<?xml version="1.0"?>

<svg height="300px" version="1.1" viewBox="0 0 400 300" width="400px" xmlns="http://www.w3.org/2000/svg" xmlns:xlink="http://www.w3.org/1999/xlink">
	<g id="surface1">
		<rect height="300" style="fill:rgb(100%,100%,100%);fill-opacity:1;stroke:none;" width="400" x="0" y="0" />
		<path d="M 47 38 L 153 38 C 155.761719 38 158 40.238281 158 43 L 158 107 C 158 109.761719 155.761719 112 153 112 L 47 112 C 44.238281 112 42 109.761719 42 107 L 42 43 C 42 40.238281 44.238281 38 47 38 Z M 47 38 " style="fill-rule:nonzero;fill:rgb(94.117647%,96.078432%,100%);fill-opacity:1;stroke-width:2;stroke-linecap:butt;stroke-linejoin:miter;stroke:rgb(50.196081%,67.450982%,100%);stroke-opacity:1;stroke-dasharray:2,2;stroke-miterlimit:4;" transform="matrix(2,0,0,2,0,0)" />
		<path d="M 169.519531 132.070312 L 154.300781 137.609375 C 152.433594 138.289062 151.46875 140.355469 152.152344 142.222656 L 161.996094 169.277344 C 162.679688 171.144531 164.742188 172.109375 166.609375 171.429688 L 186.902344 164.042969 C 188.769531 163.363281 189.730469 161.300781 189.050781 159.429688 L 181.050781 137.449219 Z M 169.519531 132.070312 " style=" stroke:none;fill-rule:nonzero;fill:rgb(96.862745%,97.254902%,97.647059%);fill-opacity:1;" />
		<path d="M 169.519531 132.070312 L 154.300781 137.609375 C 152.433594 138.289062 151.46875 140.355469 152.152344 142.222656 L 161.996094 169.277344 C 162.679688 171.144531 164.742188 172.109375 166.609375 171.429688 L 186.902344 164.042969 C 188.769531 163.363281 189.730469 161.300781 189.050781 159.429688 L 181.050781 137.449219 Z M 173.679688 159.28125 L 165.222656 162.359375 L 164.609375 160.667969 L 173.0625 157.589844 Z M 180.285156 151.132812 L 163.378906 157.285156 L 162.761719 155.59375 L 179.671875 149.441406 Z M 178.441406 146.058594 L 161.53125 152.210938 L 160.914062 150.523438 L 177.824219 144.367188 Z M 178.441406 146.058594 " style=" stroke:none;fill-rule:nonzero;fill:rgb(70.19608%,80.392158%,100%);fill-opacity:1;" />
		<path d="M 240.675781 138.335938 L 225.457031 132.796875 C 223.589844 132.117188 221.527344 133.078125 220.847656 134.949219 L 210.996094 162.003906 C 210.316406 163.871094 211.28125 165.933594 213.148438 166.617188 L 233.441406 174 C 235.308594 174.679688 237.371094 173.71875 238.050781 171.847656 L 246.054688 149.867188 Z M 240.675781 138.335938 " style=" stroke:none;fill-rule:nonzero;fill:rgb(96.862745%,97.254902%,97.647059%);fill-opacity:1;" />
		<path d="M 240.675781 138.335938 L 246.054688 149.871094 L 238.050781 171.851562 C 237.371094 173.71875 235.308594 174.679688 233.441406 174 L 213.148438 166.613281 C 211.28125 165.933594 210.316406 163.871094 210.996094 162.003906 L 220.847656 134.949219 C 221.527344 133.082031 223.589844 132.117188 225.457031 132.796875 Z M 222.226562 146.941406 L 217.300781 160.46875 L 234.210938 166.621094 L 239.132812 153.09375 Z M 224.679688 161.238281 L 219.605469 159.390625 L 222.683594 150.9375 L 227.757812 152.78125 Z M 233.132812 164.316406 L 226.367188 161.851562 L 227.597656 158.46875 L 234.363281 160.933594 Z M 234.976562 159.242188 L 228.214844 156.78125 L 229.445312 153.398438 L 236.210938 155.859375 Z M 234.976562 159.242188 " style=" stroke:none;fill-rule:nonzero;fill:rgb(70.19608%,80.392158%,100%);fill-opacity:1;" />
		<path d="M 208.59375 125.6875 L 185.8125 125.6875 C 183.015625 125.6875 180.75 127.953125 180.75 130.75 L 180.75 171.25 C 180.75 174.046875 183.015625 176.3125 185.8125 176.3125 L 216.1875 176.3125 C 218.984375 176.3125 221.25 174.046875 221.25 171.25 L 221.25 138.34375 Z M 208.59375 125.6875 " style=" stroke:none;fill-rule:nonzero;fill:rgb(96.862745%,97.254902%,97.647059%);fill-opacity:1;" />
		<path d="M 208.59375 125.6875 L 185.8125 125.6875 C 183.015625 125.6875 180.75 127.953125 180.75 130.75 L 180.75 171.25 C 180.75 174.046875 183.015625 176.3125 185.8125 176.3125 L 216.1875 176.3125 C 218.984375 176.3125 221.25 174.046875 221.25 171.25 L 221.25 138.34375 Z M 193.40625 145.9375 C 194.800781 145.9375 195.9375 147.074219 195.9375 148.46875 C 195.9375 149.863281 194.800781 151 193.40625 151 C 192.011719 151 190.875 149.863281 190.875 148.46875 C 190.875 147.074219 192.011719 145.9375 193.40625 145.9375 Z M 188.34375 163.65625 L 195.9375 153.53125 L 201 158.59375 L 206.0625 151 L 213.65625 163.65625 Z M 188.34375 163.65625 " style=" stroke:none;fill-rule:nonzero;fill:rgb(4.313726%,37.254903%,100%);fill-opacity:1;" />
	</g>
</svg>