<svg fill="none" height="46" viewBox="0 0 46 46" width="46" xmlns="http://www.w3.org/2000/svg">
	<path d="M32.6916 17.945C35.0937 17.945 37.0409 15.9977 37.0409 13.5956C37.0409 11.1936 35.0937 9.24634 32.6916 9.24634C30.2895 9.24634 28.3423 11.1936 28.3423 13.5956C28.3423 15.9977 30.2895 17.945 32.6916 17.945Z" stroke="#0B5FFF" stroke-linecap="round" stroke-miterlimit="10" stroke-width="2" />
	<path d="M20.2968 34.4919C19.6561 43.8435 3.55261 42.6607 3.55261 42.6607C3.55261 42.6607 2.36979 26.5572 11.7214 25.9165" fill="#0B5FFF" />
	<path d="M16.6004 16.6267L6.87911 18.0929C2.19714 22.4669 2 28.8245 2 28.8245C5.90575 24.9187 11.327 22.9967 12.5098 24.1795" stroke="#0B5FFF" stroke-miterlimit="10" stroke-width="2" />
	<path d="M20.7772 34.1717C20.7772 34.1717 45.6902 25.7934 44.4212 1.7798C20.4076 0.510737 12.0293 25.4238 12.0293 25.4238L20.7649 34.1594L20.7772 34.1717Z" stroke="#0B5FFF" stroke-miterlimit="10" stroke-width="2" />
	<path d="M29.5742 29.6006L28.108 39.3218C23.7341 44.0038 17.3765 44.201 17.3765 44.201C21.2822 40.2952 23.2043 34.874 22.0215 33.6912" stroke="#0B5FFF" stroke-miterlimit="10" stroke-width="2" />
</svg>