<svg fill="none" height="48" viewBox="0 0 48 48" width="48" xmlns="http://www.w3.org/2000/svg">
	<path d="M14.2199 8.77106C14.8219 8.77106 15.3099 8.28305 15.3099 7.68106C15.3099 7.07907 14.8219 6.59106 14.2199 6.59106C13.6179 6.59106 13.1299 7.07907 13.1299 7.68106C13.1299 8.28305 13.6179 8.77106 14.2199 8.77106Z" fill="#0B5FFF" />
	<path d="M10.9601 8.77106C11.5621 8.77106 12.0501 8.28305 12.0501 7.68106C12.0501 7.07907 11.5621 6.59106 10.9601 6.59106C10.3581 6.59106 9.87012 7.07907 9.87012 7.68106C9.87012 8.28305 10.3581 8.77106 10.9601 8.77106Z" fill="#0B5FFF" />
	<path d="M7.69986 8.77106C8.30185 8.77106 8.78986 8.28305 8.78986 7.68106C8.78986 7.07907 8.30185 6.59106 7.69986 6.59106C7.09787 6.59106 6.60986 7.07907 6.60986 7.68106C6.60986 8.28305 7.09787 8.77106 7.69986 8.77106Z" fill="#0B5FFF" />
	<path d="M4 11.231H44" stroke="#0B5FFF" stroke-linecap="round" stroke-linejoin="round" stroke-width="2" />
	<path d="M41.39 4.00098H6.61C5.16854 4.00098 4 5.16951 4 6.61098V41.391C4 42.8324 5.16854 44.001 6.61 44.001H41.39C42.8315 44.001 44 42.8324 44 41.391V6.61098C44 5.16951 42.8315 4.00098 41.39 4.00098Z" stroke="#0B5FFF" stroke-width="2" />
	<path d="M23.0999 27.5711C25.7177 27.5711 27.8399 25.4489 27.8399 22.8311C27.8399 20.2132 25.7177 18.0911 23.0999 18.0911C20.482 18.0911 18.3599 20.2132 18.3599 22.8311C18.3599 25.4489 20.482 27.5711 23.0999 27.5711Z" fill="#0B5FFF" />
	<path d="M30.9999 34.231V36.261C30.9999 36.701 30.6499 37.051 30.2099 37.051H15.9799C15.5399 37.051 15.1899 36.701 15.1899 36.261V33.891C15.1899 29.271 19.1599 25.571 23.8699 26.021C27.9799 26.411 30.9999 30.101 30.9999 34.231Z" fill="#0B5FFF" />
</svg>