<svg fill="none" height="250" viewBox="0 0 250 250" width="250" xmlns="http://www.w3.org/2000/svg">
	<path d="M125 157.932L125 106.721" stroke="#80ACFF" stroke-dasharray="5.94 5.94" stroke-width="2" />
	<path d="M125 129.357C125 132.952 122.086 135.866 118.492 135.866L59.6875 135.866C55.5885 135.866 52.2656 139.189 52.2656 143.288L52.2656 169.436" stroke="#80ACFF" stroke-dasharray="5.94 5.94" stroke-width="2" />
	<path d="M125 129.357C125 132.952 127.914 135.866 131.508 135.866L190.312 135.866C194.411 135.866 197.734 139.189 197.734 143.288L197.734 169.436" stroke="#80ACFF" stroke-dasharray="5.94 5.94" stroke-width="2" />
	<rect fill="white" height="45.5" rx="22.75" stroke="#80ACFF" stroke-width="2" width="45.5" x="31" y="161.344" />
	<g clip-path="url(#clip0_1935_43)">
		<mask height="25" id="mask0_1935_43" maskUnits="userSpaceOnUse" style="mask-type:alpha" width="25" x="41" y="172">
			<path d="M62.5984 172.344C64.0828 172.344 65.5671 173.828 65.5671 175.312V193.125C65.5671 194.609 64.0828 196.094 62.5984 196.094H44.7859C43.3015 196.094 41.8171 194.609 41.8171 193.125V182.734C41.8171 181.915 42.4817 181.25 43.3015 181.25C44.1213 181.25 44.7859 181.915 44.7859 182.734V193.125H62.5984V175.312H58.1453C57.3255 175.312 56.6609 174.648 56.6609 173.828C56.6609 173.008 57.3255 172.344 58.1453 172.344H62.5984Z" fill="black" />
			<path d="M47.7546 187.188C48.5751 187.188 49.239 187.852 49.239 188.672C49.239 189.492 48.5751 190.156 47.7546 190.156C46.9342 190.156 46.2703 189.492 46.2703 188.672C46.2703 187.852 46.9342 187.188 47.7546 187.188Z" fill="black" />
			<path d="M59.6296 187.188C60.4501 187.188 61.114 187.851 61.114 188.672C61.114 189.493 60.4501 190.156 59.6296 190.156H52.2078C51.3873 190.156 50.7234 189.493 50.7234 188.672C50.7234 187.851 51.3873 187.188 52.2078 187.188H59.6296Z" fill="black" />
			<path d="M47.7546 182.734C48.5751 182.734 49.239 183.399 49.239 184.219C49.239 185.039 48.5751 185.703 47.7546 185.703C46.9342 185.703 46.2703 185.039 46.2703 184.219C46.2703 183.399 46.9342 182.734 47.7546 182.734Z" fill="black" />
			<path d="M59.6296 182.734C60.4501 182.734 61.114 183.398 61.114 184.219C61.114 185.04 60.4501 185.703 59.6296 185.703H53.6921C52.8717 185.703 52.2078 185.04 52.2078 184.219C52.2078 183.398 52.8717 182.734 53.6921 182.734H59.6296Z" fill="black" />
			<path d="M59.6296 178.281C60.4501 178.281 61.114 178.945 61.114 179.766C61.114 180.587 60.4501 181.25 59.6296 181.25H55.1765C54.356 181.25 53.6921 180.587 53.6921 179.766C53.6921 178.945 54.356 178.281 55.1765 178.281H59.6296Z" fill="black" />
			<path d="M51.7042 172.865C52.2359 172.241 53.1728 172.167 53.7967 172.698C54.4207 173.23 54.4955 174.167 53.9638 174.791L48.9493 180.676C48.3544 181.374 47.2915 181.419 46.6395 180.774L43.782 177.844C43.1993 177.268 43.1944 176.328 43.771 175.745C44.3477 175.162 45.2875 175.158 45.8702 175.734L47.662 177.609L51.7042 172.865Z" fill="black" />
		</mask>
		<g mask="url(#mask0_1935_43)">
			<rect fill="#0B5FFF" height="23.75" width="23.75" x="41.8171" y="172.219" />
		</g>
	</g>
	<rect fill="white" height="45.5" rx="22.75" stroke="#80ACFF" stroke-width="2" width="45.5" x="102.25" y="161.344" />
	<g clip-path="url(#clip1_1935_43)">
		<mask height="25" id="mask1_1935_43" maskUnits="userSpaceOnUse" style="mask-type:alpha" width="24" x="113" y="172">
			<path d="M133.848 172.344C135.333 172.344 136.817 173.828 136.817 175.312V193.125C136.817 194.609 135.333 196.094 133.848 196.094H116.036C114.552 196.094 113.067 194.609 113.067 193.125V182.734C113.067 181.915 113.732 181.25 114.552 181.25C115.371 181.25 116.036 181.915 116.036 182.734V193.125H133.848V175.312H129.395C128.575 175.312 127.911 174.648 127.911 173.828C127.911 173.008 128.575 172.344 129.395 172.344H133.848Z" fill="black" />
			<path d="M119.005 187.188C119.825 187.188 120.489 187.852 120.489 188.672C120.489 189.492 119.825 190.156 119.005 190.156C118.184 190.156 117.52 189.492 117.52 188.672C117.52 187.852 118.184 187.188 119.005 187.188Z" fill="black" />
			<path d="M130.88 187.188C131.7 187.188 132.364 187.851 132.364 188.672C132.364 189.493 131.7 190.156 130.88 190.156H123.458C122.637 190.156 121.973 189.493 121.973 188.672C121.973 187.851 122.637 187.188 123.458 187.188H130.88Z" fill="black" />
			<path d="M119.005 182.734C119.825 182.734 120.489 183.399 120.489 184.219C120.489 185.039 119.825 185.703 119.005 185.703C118.184 185.703 117.52 185.039 117.52 184.219C117.52 183.399 118.184 182.734 119.005 182.734Z" fill="black" />
			<path d="M130.88 182.734C131.7 182.734 132.364 183.398 132.364 184.219C132.364 185.04 131.7 185.703 130.88 185.703H124.942C124.122 185.703 123.458 185.04 123.458 184.219C123.458 183.398 124.122 182.734 124.942 182.734H130.88Z" fill="black" />
			<path d="M130.88 178.281C131.7 178.281 132.364 178.945 132.364 179.766C132.364 180.587 131.7 181.25 130.88 181.25H126.427C125.606 181.25 124.942 180.587 124.942 179.766C124.942 178.945 125.606 178.281 126.427 178.281H130.88Z" fill="black" />
			<path d="M122.954 172.865C123.486 172.241 124.423 172.167 125.047 172.698C125.671 173.23 125.746 174.167 125.214 174.791L120.199 180.676C119.604 181.374 118.541 181.419 117.89 180.774L115.032 177.844C114.449 177.268 114.444 176.328 115.021 175.745C115.598 175.162 116.538 175.158 117.12 175.734L118.912 177.609L122.954 172.865Z" fill="black" />
		</mask>
		<g mask="url(#mask1_1935_43)">
			<rect fill="#0B5FFF" height="23.75" width="23.75" x="113.067" y="172.219" />
		</g>
	</g>
	<rect fill="white" height="45.5" rx="22.75" stroke="#80ACFF" stroke-width="2" width="45.5" x="173.5" y="161.344" />
	<g clip-path="url(#clip2_1935_43)">
		<mask height="25" id="mask2_1935_43" maskUnits="userSpaceOnUse" style="mask-type:alpha" width="25" x="184" y="172">
			<path d="M205.098 172.344C206.583 172.344 208.067 173.828 208.067 175.312V193.125C208.067 194.609 206.583 196.094 205.098 196.094H187.286C185.802 196.094 184.317 194.609 184.317 193.125V182.734C184.317 181.915 184.982 181.25 185.802 181.25C186.621 181.25 187.286 181.915 187.286 182.734V193.125H205.098V175.312H200.645C199.825 175.312 199.161 174.648 199.161 173.828C199.161 173.008 199.825 172.344 200.645 172.344H205.098Z" fill="black" />
			<path d="M190.255 187.188C191.075 187.188 191.739 187.852 191.739 188.672C191.739 189.492 191.075 190.156 190.255 190.156C189.434 190.156 188.77 189.492 188.77 188.672C188.77 187.852 189.434 187.188 190.255 187.188Z" fill="black" />
			<path d="M202.13 187.188C202.95 187.188 203.614 187.851 203.614 188.672C203.614 189.493 202.95 190.156 202.13 190.156H194.708C193.887 190.156 193.223 189.493 193.223 188.672C193.223 187.851 193.887 187.188 194.708 187.188H202.13Z" fill="black" />
			<path d="M190.255 182.734C191.075 182.734 191.739 183.399 191.739 184.219C191.739 185.039 191.075 185.703 190.255 185.703C189.434 185.703 188.77 185.039 188.77 184.219C188.77 183.399 189.434 182.734 190.255 182.734Z" fill="black" />
			<path d="M202.13 182.734C202.95 182.734 203.614 183.398 203.614 184.219C203.614 185.04 202.95 185.703 202.13 185.703H196.192C195.372 185.703 194.708 185.04 194.708 184.219C194.708 183.398 195.372 182.734 196.192 182.734H202.13Z" fill="black" />
			<path d="M202.13 178.281C202.95 178.281 203.614 178.945 203.614 179.766C203.614 180.587 202.95 181.25 202.13 181.25H197.677C196.856 181.25 196.192 180.587 196.192 179.766C196.192 178.945 196.856 178.281 197.677 178.281H202.13Z" fill="black" />
			<path d="M194.204 172.865C194.736 172.241 195.673 172.167 196.297 172.698C196.921 173.23 196.996 174.167 196.464 174.791L191.449 180.676C190.854 181.374 189.791 181.419 189.14 180.774L186.282 177.844C185.699 177.268 185.694 176.328 186.271 175.745C186.848 175.162 187.788 175.158 188.37 175.734L190.162 177.609L194.204 172.865Z" fill="black" />
		</mask>
		<g mask="url(#mask2_1935_43)">
			<rect fill="#0B5FFF" height="23.75" width="23.75" x="184.317" y="172.219" />
		</g>
	</g>
	<rect fill="#0B5FFF" height="47.5" rx="23.75" width="47.5" x="101.436" y="69.7969" />
	<mask height="21" id="mask3_1935_43" maskUnits="userSpaceOnUse" style="mask-type:alpha" width="25" x="113" y="83">
		<path d="M135.576 86.125H114.795C113.979 86.125 113.311 85.457 113.311 84.6406C113.311 83.8242 113.979 83.1562 114.795 83.1562H135.576C136.392 83.1562 137.061 83.8242 137.061 84.6406C137.061 85.457 136.392 86.125 135.576 86.125Z" fill="#6B6C7E" />
		<path d="M122.217 96.5156H128.154C128.97 96.5156 129.639 95.8477 129.639 95.0312C129.639 94.2148 128.97 93.5469 128.154 93.5469H122.217C121.401 93.5469 120.732 94.2148 120.732 95.0312C120.732 95.8477 121.401 96.5156 122.217 96.5156Z" fill="#6B6C7E" />
		<path clip-rule="evenodd" d="M113.311 101.298V87.6094H137.061V101.298C137.061 102.755 135.878 103.938 134.421 103.938H115.95C114.493 103.938 113.311 102.755 113.311 101.298ZM116.279 90.5781V100.969H134.092V90.5781H116.279Z" fill="#6B6C7E" fill-rule="evenodd" />
	</mask>
	<g mask="url(#mask3_1935_43)">
		<rect fill="#F0F5FF" height="23.75" width="23.75" x="113.311" y="81.6719" />
	</g>
	<defs>
		<clipPath id="clip0_1935_43">
			<rect fill="white" height="23.75" transform="translate(41.8171 172.219)" width="23.75" />
		</clipPath>
		<clipPath id="clip1_1935_43">
			<rect fill="white" height="23.75" transform="translate(113.067 172.219)" width="23.75" />
		</clipPath>
		<clipPath id="clip2_1935_43">
			<rect fill="white" height="23.75" transform="translate(184.317 172.219)" width="23.75" />
		</clipPath>
	</defs>
</svg>