<svg fill="none" height="250" width="261" xmlns="http://www.w3.org/2000/svg">
	<g clip-path="url(#AllSection_Illustration-1 1__a)">
		<rect fill="#F0F5FF" height="114.667" rx="8" stroke="#5791FF" stroke-width="2" width="176" x="15" y="70" />
		<path d="M41.667 106H75v4H41.667z" fill="#B3CDFF" />
		<path d="M96.333 106H115v4H96.333zm52 0H167v4h-18.667z" fill="#80ACFF" />
		<path d="M27 106h4v4h-4zm0 12h4v4h-4z" fill="#0053F0" opacity=".5" />
		<path d="M41.667 118h34.667v4H41.667z" fill="#B3CDFF" />
		<path d="M96.333 118h24v4h-24zm52 0h24v4h-24z" fill="#80ACFF" />
		<path d="M27 130h4v4h-4z" fill="#0053F0" opacity=".5" />
		<path d="M41.667 130H71v4H41.667z" fill="#B3CDFF" />
		<path d="M96.333 130H115v4H96.333zm52 0H167v4h-18.667z" fill="#80ACFF" />
		<path d="M27 142h4v4h-4z" fill="#0053F0" opacity=".5" />
		<path d="M41.667 142H75v4H41.667z" fill="#B3CDFF" />
		<path d="M96.333 142H119v4H96.333zm52 0H171v4h-22.667z" fill="#80ACFF" />
		<path d="M27 154h4v4h-4z" fill="#0053F0" opacity=".5" />
		<path d="M41.667 154h30.667v4H41.667zm54.666 0h21.333v4H96.333zm52 0h21.333v4h-21.333z" fill="#B3CDFF" />
		<path d="M27 166h4v4h-4z" fill="#0053F0" opacity=".5" />
		<path d="M41.667 166H75v4H41.667zm54.666 0H119v4H96.333zm52 0H171v4h-22.667z" fill="#B3CDFF" />
		<path d="M41.667 79.333h34.667v4H41.667zm54.666 0h21.333v4H96.333zm52 0h17.333v4h-17.333z" fill="#5791FF" opacity=".5" />
		<path d="M15 91.333h176v1.333H15z" fill="#B3CDFF" opacity=".3" />
		<path d="M132.333 70v114.667H131V70z" fill="#0B5FFF" opacity=".4" />
		<g filter="url(#AllSection_Illustration-1 1__b)">
			<rect fill="#fff" height="42.667" rx="5.333" width="153.333" x="93.667" y="104.667" />
			<rect height="42.667" rx="5.333" stroke="#0B5FFF" stroke-opacity=".4" stroke-width="8" width="153.333" x="93.667" y="104.667" />
		</g>
		<rect fill="#fff" height="42.667" rx="4" width="153.333" x="93.667" y="104.667" />
		<rect fill="#F0F5FF" height="21.333" rx="5.333" width="21.333" x="104.333" y="115.333" />
		<mask height="12" id="AllSection_Illustration-1 1__c" maskUnits="userSpaceOnUse" style="mask-type:alpha" width="12" x="109" y="120">
			<path clip-rule="evenodd" d="M109.641 130v-8c0-.735.597-1.333 1.333-1.333h8c.736 0 1.333.598 1.333 1.333v8c0 .735-.597 1.333-1.333 1.333h-8a1.334 1.334 0 0 1-1.333-1.333Zm9.333 0v-8h-8v8h8Zm-1.667-2.667c.459 0 .438-.666 0-.666h-4.666c-.438 0-.438.666 0 .666h4.666Zm-1.333 1.334h-3.333c-.459 0-.438-.667 0-.667h3.333c.417 0 .458.667 0 .667Zm.333-3.334a1.334 1.334 0 1 0 0-2.668 1.334 1.334 0 0 0 0 2.668Zm-2.666-2.666-1.334 2.666h2.667l-1.333-2.666Z" fill="#6B6C7E" fill-rule="evenodd" />
		</mask>
		<g mask="url(#AllSection_Illustration-1 1__c)">
			<path d="M109.641 120.667h10.667v10.667h-10.667z" fill="#0B5FFF" />
		</g>
		<path d="M136.333 119.333H183v5.333h-46.667z" fill="#80ACFF" />
		<path d="M136.333 130h80v2.667h-80z" fill="#80ACFF" opacity=".5" />
		<rect fill="#0B5FFF" height="32" rx="5.333" width="32" x="99" y="109.999" />
		<mask height="17" id="AllSection_Illustration-1 1__d" maskUnits="userSpaceOnUse" style="mask-type:alpha" width="17" x="106" y="117">
			<path clip-rule="evenodd" d="M106.961 131.999v-12c0-1.103.896-2 2-2h12c1.103 0 2 .897 2 2v12c0 1.103-.897 2-2 2h-12c-1.104 0-2-.897-2-2Zm14 0v-12h-12v12h12Zm-2.5-4c.687 0 .656-1 0-1h-7c-.656 0-.656 1 0 1h7Zm-2 2h-5c-.688 0-.656-1 0-1h5c.625 0 .687 1 0 1Zm.5-5a2 2 0 1 0 0-4 2 2 0 0 0 0 4Zm-4-4-2 4h4l-2-4Z" fill="#6B6C7E" fill-rule="evenodd" />
		</mask>
		<g mask="url(#AllSection_Illustration-1 1__d)">
			<path d="M106.961 117.999h16v16h-16z" fill="#F0F5FF" />
		</g>
	</g>
	<defs>
		<clipPath id="AllSection_Illustration-1 1__a">
			<path d="M0 0h261v250H0z" fill="#fff" />
		</clipPath>
		<filter color-interpolation-filters="sRGB" filterUnits="userSpaceOnUse" height="72" id="AllSection_Illustration-1 1__b" width="182.667" x="79" y="95.333">
			<feFlood flood-opacity="0" result="BackgroundImageFix" />
			<feColorMatrix in="SourceAlpha" result="hardAlpha" values="0 0 0 0 0 0 0 0 0 0 0 0 0 0 0 0 0 0 127 0" />
			<feOffset dy="5.333" />
			<feGaussianBlur stdDeviation="5.333" />
			<feColorMatrix values="0 0 0 0 0.152941 0 0 0 0 0.156863 0 0 0 0 0.2 0 0 0 0.12 0" />
			<feBlend in2="BackgroundImageFix" result="effect1_dropShadow_1813_80473" />
			<feBlend in="SourceGraphic" in2="effect1_dropShadow_1813_80473" result="shape" />
		</filter>
	</defs>
</svg>