<svg fill="none" height="928" viewBox="0 0 1450 928" width="1450" xmlns="http://www.w3.org/2000/svg">
	<g clip-path="url(#a)">
		<path d="M1442 0H8a8 8 0 0 0-8 8v912a8 8 0 0 0 8 8h1434a8 8 0 0 0 8-8V8a8 8 0 0 0-8-8" fill="#f1f2f5" />
		<g filter="url(#b)">
			<mask height="746" id="c" maskUnits="userSpaceOnUse" style="mask-type:luminance" width="1156" x="148" y="83">
				<path d="M1288 83H164c-8.837 0-16 7.163-16 16v714c0 8.837 7.163 16 16 16h1124c8.84 0 16-7.163 16-16V99c0-8.837-7.16-16-16-16" fill="#fff" />
			</mask>
			<g mask="url(#c)">
				<path d="M1288 83H164c-8.837 0-16 7.163-16 16v714c0 8.837 7.163 16 16 16h1124c8.84 0 16-7.163 16-16V99c0-8.837-7.16-16-16-16" fill="#f1f2f5" />
				<path d="M428 83h1160v64H428z" fill="#fff" />
				<mask height="32" id="d" maskUnits="userSpaceOnUse" style="mask-type:luminance" width="32" x="452" y="99">
					<path d="M480 99h-24a4 4 0 0 0-4 4v24a4 4 0 0 0 4 4h24a4 4 0 0 0 4-4v-24a4 4 0 0 0-4-4" fill="#fff" />
				</mask>
				<g mask="url(#d)">
					<mask height="17" id="e" maskUnits="userSpaceOnUse" style="mask-type:alpha" width="16" x="460" y="107">
						<path clip-rule="evenodd" d="M461.453 107.002h13.094c.8 0 1.453.668 1.45 1.49v13.023c0 .819-.65 1.487-1.453 1.487h-13.091c-.8 0-1.453-.665-1.453-1.487v-13.026c0-.819.653-1.487 1.453-1.487M468 121.144h6v-12.281h-6z" fill="#6b6c7e" fill-rule="evenodd" />
					</mask>
					<g mask="url(#e)">
						<path d="M460 107h16v16h-16z" fill="#a7a9bc" />
					</g>
				</g>
				<path d="M602.5 109.5h-97a5.5 5.5 0 1 0 0 11h97a5.5 5.5 0 1 0 0-11" fill="#cdced9" />
				<path d="M428 146.75h1160" stroke="#9393a4" stroke-width=".5" />
				<path d="M148 83h280v1024H148z" fill="#fff" />
				<path d="M233.5 189.5h-64a5.5 5.5 0 1 0 0 11h64a5.5 5.5 0 1 0 0-11" fill="#e7e7ed" />
				<mask height="7" id="f" maskUnits="userSpaceOnUse" style="mask-type:alpha" width="10" x="399" y="192">
					<path d="m404.672 197.559 4.05-4.11c.793-.843-.285-1.989-1.063-1.164L404 196.008l-3.7-3.745c-.722-.768-1.782.415-1.057 1.186l4.059 4.12c.49.532.787.62 1.37-.01" fill="#6b6c7e" />
				</mask>
				<g mask="url(#f)">
					<path d="M396 187h16v16h-16z" fill="#6b6c7e" />
				</g>
				<path d="M148 215h280v40H148z" fill="#fff" />
				<mask height="16" id="g" maskUnits="userSpaceOnUse" style="mask-type:alpha" width="17" x="168" y="227">
					<path d="M168.448 230.401 176 227l7.553 3.301c.597.3.597 1.101 0 1.301L176 235l-7.552-3.298c-.597-.3-.597-1.101 0-1.301" fill="#6b6c7e" />
					<path d="m183.621 234.4-1.896-.801-1.197.501 1.997.9-6.488 2.901-6.486-2.901 2.097-.9-1.297-.601-1.897.901c-.6.2-.6 1 0 1.3l7.583 3.302 7.584-3.399c.5-.203.5-1.003 0-1.203" fill="#6b6c7e" />
					<path d="m183.618 238.398-1.909-.8-1.206.5 2.11.9-6.628 2.902-6.525-2.902 2.11-.9-1.206-.5-1.91.8c-.602.2-.602 1.001 0 1.301l7.531 3.301 7.63-3.398c.506-.203.506-1.004.003-1.204" fill="#6b6c7e" />
				</mask>
				<g mask="url(#g)">
					<path d="M168 227h16v16h-16z" fill="#272833" />
				</g>
				<path d="M222.5 229.5h-21a5.5 5.5 0 1 0 0 11h21a5.5 5.5 0 1 0 0-11" fill="#e7e7ed" />
				<path d="M148 255h280v40H148z" fill="#fff" />
				<mask height="16" id="h" maskUnits="userSpaceOnUse" style="mask-type:alpha" width="16" x="168" y="267">
					<path clip-rule="evenodd" d="M168 281v-12c0-1.103.896-2 2-2h12c1.104 0 2 .897 2 2v12c0 1.103-.896 2-2 2h-12c-1.104 0-2-.897-2-2m14 0v-12h-12v12zm-2.5-4c.688 0 .656-1 0-1h-7c-.656 0-.656 1 0 1zm-2 2h-5c-.688 0-.656-1 0-1h5c.625 0 .688 1 0 1m.5-5a2 2 0 1 0-.001-4.001A2 2 0 0 0 178 274m-4-4-2 4h4z" fill="#6b6c7e" fill-rule="evenodd" />
				</mask>
				<g mask="url(#h)">
					<path d="M168 267h16v16h-16z" fill="#272833" />
				</g>
				<path d="M262.5 269.5h-61a5.5 5.5 0 1 0 0 11h61a5.5 5.5 0 1 0 0-11" fill="#e7e7ed" />
				<path d="M148 295h280v40H148z" fill="#fff" />
				<mask height="17" id="i" maskUnits="userSpaceOnUse" style="mask-type:alpha" width="16" x="168" y="307">
					<path clip-rule="evenodd" d="M172.898 313.001a.4.4 0 0 1-.364-.213.4.4 0 0 1-.04-.14q-.002-.075.026-.15.021-.065.071-.172l.766-1.747.078-.181a.8.8 0 0 1 .109-.197.52.52 0 0 1 .435-.2q.154 0 .262.056a.5.5 0 0 1 .175.141q.058.076.1.166l.091.209.784 1.734c.072.15.103.257.103.335a.34.34 0 0 1-.122.253.4.4 0 0 1-.281.106.4.4 0 0 1-.169-.031.4.4 0 0 1-.121-.091.6.6 0 0 1-.091-.144l-.031-.066-.038-.084-.115-.271h-1.076l-.115.278a1.2 1.2 0 0 1-.159.3q-.094.108-.278.109m1.087-2.025.291.713h-.576z" fill="#000" fill-rule="evenodd" />
					<path d="M176 316.001h-4a.997.997 0 0 1-1-1 .997.997 0 0 1 1-1h4a.997.997 0 0 1 1 1 .997.997 0 0 1-1 1" fill="#000" />
					<path clip-rule="evenodd" d="M180 310.001h2c1.104 0 2 .897 2 2v9c0 1.103-.896 2-2 2h-9c-1.103 0-2-.897-2-2v-2h-1c-1.103 0-2-.897-2-2v-8c0-1.103.897-2 2-2h8c1.104 0 2 .897 2 2zm-10-1v8h8v-8zm12 12h-9v-2h5c1.104 0 2-.897 2-2v-5h2z" fill="#000" fill-rule="evenodd" />
				</mask>
				<g mask="url(#i)">
					<path d="M168 307h16v16h-16z" fill="#272833" />
				</g>
				<path d="M246.5 309.5h-45a5.5 5.5 0 1 0 0 11h45a5.5 5.5 0 1 0 0-11" fill="#e7e7ed" />
				<mask height="17" id="j" maskUnits="userSpaceOnUse" style="mask-type:alpha" width="17" x="167" y="347">
					<path d="M171.017 349.974c0-2.635 3.396-4.198 5.395-1.747-1.56.612-2.941 2.55-2.351 4.717l-.028.003-.028.003a2.98 2.98 0 0 1-2.988-2.976m9.994 2.001a2.983 2.983 0 0 1-2.988 2.976 2.983 2.983 0 0 1-2.989-2.976 2.983 2.983 0 0 1 2.989-2.976 2.98 2.98 0 0 1 2.988 2.976" fill="#000" />
					<path d="M183.999 360.4c0 3.47-11.947 3.47-11.947 0 0-6.134 11.947-6.071 11.947 0" fill="#000" />
					<path d="M174.407 353.844c-5.518-.753-9.065 5.624-3.886 6.712.051-2.929 2.286-4.711 5.02-5.368a4.05 4.05 0 0 1-1.134-1.344" fill="#000" />
				</mask>
				<g mask="url(#j)">
					<path d="M168 347h16v16h-16z" fill="#272833" />
				</g>
				<path d="M270.5 349.5h-69a5.5 5.5 0 1 0 0 11h69a5.5 5.5 0 1 0 0-11m-15 56h-86a5.5 5.5 0 1 0 0 11h86a5.5 5.5 0 1 0 0-11" fill="#e7e7ed" />
				<mask height="7" id="k" maskUnits="userSpaceOnUse" style="mask-type:alpha" width="10" x="399" y="408">
					<path d="m404.672 413.559 4.05-4.11c.793-.843-.285-1.989-1.063-1.164L404 412.008l-3.7-3.745c-.722-.768-1.782.415-1.057 1.186l4.059 4.12c.49.532.787.62 1.37-.01" fill="#6b6c7e" />
				</mask>
				<g mask="url(#k)">
					<path d="M396 403h16v16h-16z" fill="#6b6c7e" />
				</g>
				<path d="M148 431h280v40H148z" fill="#fff" />
				<mask height="16" id="l" maskUnits="userSpaceOnUse" style="mask-type:alpha" width="16" x="168" y="443">
					<path clip-rule="evenodd" d="M169.778 443h12.444c.471.001.923.188 1.257.521.333.334.52.786.521 1.257v12.444a1.8 1.8 0 0 1-.521 1.257c-.334.333-.786.52-1.257.521h-12.444a1.8 1.8 0 0 1-1.257-.521 1.8 1.8 0 0 1-.521-1.257v-12.444c.001-.471.188-.923.521-1.257.334-.333.786-.52 1.257-.521m.113 14.444H173V445h-3.109zM175 457v-5h7v5zm0-7h7v-5h-7z" fill="#6b6c7e" fill-rule="evenodd" />
				</mask>
				<g mask="url(#l)">
					<path d="M168 443h16v16h-16z" fill="#272833" />
				</g>
				<path d="M286.5 445.5h-85a5.5 5.5 0 1 0 0 11h85a5.5 5.5 0 1 0 0-11" fill="#e7e7ed" />
				<path d="M148 471h280v40H148z" fill="#fff" />
				<mask height="14" id="m" maskUnits="userSpaceOnUse" style="mask-type:alpha" width="16" x="168" y="484">
					<path d="M170.994 484h-1.996a1 1 0 0 0-.923.617q-.075.185-.075.383v1h3.992v-1c0-.553-.446-1-.998-1M168 497c0 .553.446 1 .998 1h1.996a1 1 0 0 0 .923-.617q.075-.185.075-.383v-1H168zm3.992-10H168v8h3.992zm3.992-3h-1.996a1 1 0 0 0-.923.617q-.075.185-.075.383v1h3.991v-1c0-.553-.445-1-.997-1m-2.994 13c0 .553.446 1 .998 1h1.996a1 1 0 0 0 .922-.618 1 1 0 0 0 .075-.382v-1h-3.991zm3.991-10h-3.991v8h3.991zm2.754-2.9-.967.253a1 1 0 0 0-.714 1.219l.253.969 2.897-.757-.253-.968a.99.99 0 0 0-1.216-.716m1.721 2.651-2.897.756 2.01 7.742 2.897-.755zm-.386 10.433a1 1 0 0 0 .827.739 1 1 0 0 0 .389-.023l.967-.253a1 1 0 0 0 .714-1.219l-.253-.969-2.897.757z" fill="#6b6c7e" />
				</mask>
				<g mask="url(#m)">
					<path d="M168 483h16v16h-16z" fill="#272833" />
				</g>
				<path d="M262.5 485.5h-61a5.5 5.5 0 1 0 0 11h61a5.5 5.5 0 1 0 0-11" fill="#e7e7ed" />
				<path d="M148 511h280v40H148z" fill="#fff" />
				<mask height="16" id="n" maskUnits="userSpaceOnUse" style="mask-type:alpha" width="17" x="168" y="523">
					<path clip-rule="evenodd" d="M173.895 530.44a1 1 0 0 1-1.79-.894l3-5.994a1.002 1.002 0 0 1 1.79 0l3 5.994a.999.999 0 0 1-1.212 1.396 1 1 0 0 1-.578-.502l-.223-.447h-3.764zm2.987-2.445-.882-1.762-.882 1.762zM174 535a.997.997 0 0 0-1-1v-2a.997.997 0 0 0-1-1c-1.333 0-2.667-.017-4 0v8h5a.997.997 0 0 0 1-1zm-3-1v-1h-1v1zm-1 3v-1h2v1zm12.327-.002c.054.004.121.009.634-.011a1 1 0 0 1 .742.25.99.99 0 0 1 .27 1.102 1 1 0 0 1-.543.565 1 1 0 0 1-.391.08c-.301.012-.481.016-.605.016-.122 0-.19-.004-.263-.01-.039-.003-.069-.006-.171-.006-2.206 0-4-1.781-4-3.984s1.794-4.008 4-4.008c.596 0 1.095.058 1.116.06a.999.999 0 0 1-.232 1.985 8 8 0 0 0-.884-.047c-1.103 0-2 .908-2 2.01a2 2 0 0 0 .588 1.408 1.98 1.98 0 0 0 1.412.578c.167 0 .247.006.327.012" fill="#6b6c7e" fill-rule="evenodd" />
				</mask>
				<g mask="url(#n)">
					<path d="M168 523h16v16h-16z" fill="#272833" />
				</g>
				<path d="M270.5 525.5h-69a5.5 5.5 0 1 0 0 11h69a5.5 5.5 0 1 0 0-11" fill="#e7e7ed" />
				<path d="M148 551h280v40H148z" fill="#fff" />
				<mask height="16" id="o" maskUnits="userSpaceOnUse" style="mask-type:alpha" width="16" x="168" y="563">
					<path clip-rule="evenodd" d="M182 563h-12c-1.104 0-2 .897-2 2v12c0 1.103.896 2 2 2h12c1.104 0 2-.897 2-2v-12c0-1.103-.896-2-2-2m0 2v12h-12v-12zm-3 4.5v1.55a2.5 2.5 0 0 1 1.925 3.06 2.51 2.51 0 0 1-1.814 1.814 2.503 2.503 0 0 1-3.06-1.924H173v-3h-2v-5h5v5h-2v2h2.051c.199-.978.97-1.75 1.949-1.95v-1.55h-1l1.5-3 1.5 3z" fill="#6b6c7e" fill-rule="evenodd" />
				</mask>
				<g mask="url(#o)">
					<path d="M168 563h16v16h-16z" fill="#272833" />
				</g>
				<path d="M238.5 565.5h-37a5.5 5.5 0 1 0 0 11h37a5.5 5.5 0 1 0 0-11" fill="#e7e7ed" />
				<path d="M168.491 632.232c-2.16 0-3.554-1.134-3.698-2.741l-.007-.075h1.231l.006.075c.089.985 1.115 1.607 2.537 1.607 1.339 0 2.317-.691 2.317-1.696v-.006c0-.821-.567-1.381-1.921-1.682l-1.094-.239c-1.975-.438-2.83-1.347-2.83-2.776v-.007c.007-1.633 1.436-2.789 3.473-2.789 1.969 0 3.343 1.162 3.445 2.632l.007.096h-1.23l-.014-.089c-.137-.868-.957-1.511-2.242-1.504-1.231.007-2.181.588-2.181 1.62v.007c0 .786.54 1.319 1.88 1.613l1.094.246c2.057.458 2.871 1.286 2.871 2.707v.007c0 1.846-1.443 2.994-3.644 2.994m5.544 2.229v-9.83h1.19v1.176h.109c.451-.821 1.271-1.306 2.297-1.306 1.866 0 3.09 1.511 3.09 3.808v.013c0 2.311-1.217 3.808-3.09 3.808-1.012 0-1.894-.506-2.297-1.292h-.109v3.623zm3.322-3.384c1.347 0 2.147-1.039 2.147-2.755v-.013c0-1.716-.8-2.755-2.147-2.755-1.339 0-2.16 1.052-2.16 2.755v.013c0 1.702.821 2.755 2.16 2.755m7.247 1.053c-1.402 0-2.461-.848-2.461-2.188v-.013c0-1.313.97-2.072 2.686-2.174l2.112-.13v-.67c0-.909-.553-1.401-1.654-1.401-.882 0-1.463.328-1.654.902l-.007.021h-1.189l.006-.041c.192-1.156 1.313-1.935 2.885-1.935 1.798 0 2.803.923 2.803 2.454V632h-1.19v-1.087h-.109c-.465.786-1.237 1.217-2.228 1.217m-1.245-2.215c0 .745.636 1.183 1.491 1.183 1.21 0 2.091-.793 2.091-1.846v-.67l-1.968.123c-1.121.068-1.614.465-1.614 1.196zm9.96 2.215c-2.064 0-3.383-1.497-3.383-3.835v-.014c0-2.29 1.312-3.78 3.376-3.78 1.792 0 2.865 1.032 3.084 2.345l.006.041h-1.182l-.007-.021c-.185-.724-.841-1.312-1.901-1.312-1.326 0-2.16 1.066-2.16 2.727v.014c0 1.695.848 2.782 2.16 2.782.992 0 1.621-.437 1.894-1.258l.014-.041 1.176-.007-.014.076c-.301 1.333-1.292 2.283-3.063 2.283m7.827 0c-2.105 0-3.376-1.477-3.376-3.787v-.007c0-2.276 1.298-3.835 3.301-3.835s3.22 1.49 3.22 3.691v.465h-5.305c.035 1.525.875 2.413 2.188 2.413.998 0 1.613-.471 1.811-.916l.028-.061h1.189l-.014.054c-.252.999-1.305 1.983-3.042 1.983m-.082-6.569c-1.093 0-1.927.745-2.057 2.146h4.074c-.123-1.456-.93-2.146-2.017-2.146m7.602 6.569c-1.641 0-2.769-.793-2.905-2.01h1.217c.198.615.786 1.019 1.729 1.019.991 0 1.695-.472 1.695-1.142v-.014c0-.499-.376-.847-1.285-1.066l-1.141-.273c-1.381-.329-2.003-.93-2.003-1.99v-.007c0-1.223 1.175-2.146 2.741-2.146 1.545 0 2.618.772 2.782 1.976h-1.169c-.157-.581-.731-.985-1.62-.985-.875 0-1.518.451-1.518 1.101v.013c0 .499.37.814 1.238 1.026l1.135.273c1.387.335 2.057.937 2.057 1.99v.013c0 1.313-1.278 2.222-2.953 2.222" fill="#272833" />
				<mask height="7" id="p" maskUnits="userSpaceOnUse" style="mask-type:alpha" width="10" x="399" y="624">
					<path d="m404.672 629.559 4.05-4.11c.793-.843-.285-1.989-1.063-1.164L404 628.008l-3.7-3.745c-.722-.768-1.782.415-1.057 1.186l4.059 4.12c.49.532.787.62 1.37-.01" fill="#6b6c7e" />
				</mask>
				<g mask="url(#p)">
					<path d="M396 619h16v16h-16z" fill="#6b6c7e" />
				</g>
				<path d="M148 647h280v40H148z" fill="#f0f5ff" />
				<path d="M148 647h6v40h-6z" fill="#0b5fff" />
				<path d="M184 655.5h-16a3.5 3.5 0 0 0-3.5 3.5v16a3.5 3.5 0 0 0 3.5 3.5h16a3.5 3.5 0 0 0 3.5-3.5v-16a3.5 3.5 0 0 0-3.5-3.5" fill="#f6f0ff" />
				<path d="M184 655.5h-16a3.5 3.5 0 0 0-3.5 3.5v16a3.5 3.5 0 0 0 3.5 3.5h16a3.5 3.5 0 0 0 3.5-3.5v-16a3.5 3.5 0 0 0-3.5-3.5Z" stroke="#5d00e6" />
				<path d="M197.217 672v-9.864h2.023l2.967 7.588h.116l2.96-7.588h2.024V672h-1.586v-7.014h-.123L202.863 672h-1.203l-2.734-7.014h-.116V672zm14.383.123c-1.422 0-2.454-.875-2.454-2.235v-.014c0-1.333 1.018-2.112 2.836-2.222l1.921-.116v-.642c0-.746-.485-1.156-1.401-1.156-.779 0-1.285.281-1.456.773l-.007.027h-1.606l.006-.061c.165-1.258 1.368-2.092 3.145-2.092 1.921 0 3.001.929 3.001 2.509V672h-1.682v-1.025h-.116c-.41.724-1.203 1.148-2.187 1.148m-.773-2.317c0 .635.54 1.011 1.292 1.011 1.026 0 1.784-.67 1.784-1.558v-.602l-1.681.11c-.951.061-1.395.41-1.395 1.025zm6.802 2.194v-7.472h1.702v1.149h.116c.253-.8.937-1.272 1.921-1.272.26 0 .527.034.691.082v1.525a4.3 4.3 0 0 0-.848-.096c-1.135 0-1.88.677-1.88 1.743V672zm5.892 0v-10.363h1.703v5.954h.116l2.755-3.063h1.968l-3.007 3.159 3.213 4.313h-2.051l-2.4-3.233-.594.608V672zm10.842.15c-2.221 0-3.568-1.49-3.568-3.869v-.007c0-2.351 1.36-3.889 3.486-3.889s3.439 1.49 3.439 3.746v.56h-5.223c.021 1.34.745 2.12 1.9 2.12.923 0 1.45-.465 1.614-.807l.02-.048h1.62l-.02.062c-.239.963-1.237 2.132-3.268 2.132m-.061-6.432c-.95 0-1.661.642-1.791 1.832h3.548c-.117-1.224-.807-1.832-1.757-1.832m8.059 6.316c-1.715 0-2.42-.574-2.42-2.016v-4.17h-1.162v-1.32h1.162v-1.832h1.73v1.832h1.579v1.32h-1.579v3.766c0 .745.294 1.06 1.005 1.06.239 0 .369-.007.574-.028v1.313a5 5 0 0 1-.889.075m3.459-8.757a1.01 1.01 0 0 1-1.018-1.005c0-.553.458-1.004 1.018-1.004.554 0 1.012.451 1.012 1.004 0 .561-.458 1.005-1.012 1.005m-.854 8.723v-7.472h1.702V672zm3.794 0v-7.472h1.702v1.142h.116c.356-.8 1.073-1.285 2.153-1.285 1.668 0 2.578 1.005 2.578 2.782V672h-1.703v-4.437c0-1.162-.471-1.75-1.503-1.75-1.012 0-1.641.711-1.641 1.833V672zm11.771 2.625c-1.969 0-3.151-.841-3.322-2.099l.007-.02h1.702l.007.02c.116.479.683.814 1.634.814 1.162 0 1.838-.54 1.838-1.497v-1.429h-.116c-.43.8-1.244 1.237-2.276 1.237-1.894 0-3.069-1.463-3.069-3.582v-.013c0-2.16 1.175-3.651 3.103-3.651 1.032 0 1.839.506 2.263 1.354h.089v-1.231h1.702v7.287c0 1.723-1.381 2.81-3.562 2.81m0-4.327c1.183 0 1.894-.909 1.894-2.229v-.013c0-1.32-.718-2.236-1.894-2.236-1.182 0-1.852.916-1.852 2.236v.013c0 1.32.67 2.229 1.852 2.229" fill="#272833" />
				<path d="M184 695.5h-16a3.5 3.5 0 0 0-3.5 3.5v16a3.5 3.5 0 0 0 3.5 3.5h16a3.5 3.5 0 0 0 3.5-3.5v-16a3.5 3.5 0 0 0-3.5-3.5" fill="#fffbf0" />
				<path d="M184 695.5h-16a3.5 3.5 0 0 0-3.5 3.5v16a3.5 3.5 0 0 0 3.5 3.5h16a3.5 3.5 0 0 0 3.5-3.5v-16a3.5 3.5 0 0 0-3.5-3.5Z" stroke="#e6a600" />
				<path d="M201.229 712.232c-2.679 0-4.354-1.982-4.354-5.154v-.014c0-3.178 1.668-5.161 4.348-5.161 2.078 0 3.698 1.306 3.992 3.2l-.007.013h-1.237l-.007-.013c-.328-1.265-1.381-2.065-2.741-2.065-1.894 0-3.083 1.559-3.083 4.026v.014c0 2.468 1.189 4.02 3.089 4.02 1.375 0 2.42-.704 2.728-1.839l.014-.014h1.244v.014c-.328 1.804-1.887 2.973-3.986 2.973m7.923-.102c-1.401 0-2.461-.848-2.461-2.188v-.013c0-1.313.971-2.072 2.687-2.174l2.112-.13v-.67c0-.909-.553-1.401-1.654-1.401-.882 0-1.463.328-1.654.902l-.007.021h-1.19l.007-.041c.192-1.156 1.313-1.935 2.885-1.935 1.798 0 2.803.923 2.803 2.454V712h-1.19v-1.087h-.109c-.465.786-1.237 1.217-2.229 1.217m-1.244-2.215c0 .745.636 1.183 1.49 1.183 1.21 0 2.092-.793 2.092-1.846v-.67l-1.969.123c-1.121.068-1.613.465-1.613 1.196zm6.946 2.085v-7.369h1.189v1.121h.109c.328-.793 1.026-1.251 1.99-1.251.998 0 1.695.526 2.037 1.292h.109c.397-.779 1.237-1.292 2.256-1.292 1.504 0 2.345.861 2.345 2.406V712h-1.19v-4.819c0-1.087-.499-1.627-1.538-1.627-1.025 0-1.702.772-1.702 1.709V712h-1.189v-5.004c0-.875-.602-1.442-1.532-1.442-.964 0-1.695.841-1.695 1.88V712zm12.181 2.461v-9.83h1.19v1.176h.109c.451-.821 1.271-1.306 2.297-1.306 1.866 0 3.09 1.511 3.09 3.808v.013c0 2.311-1.217 3.808-3.09 3.808-1.012 0-1.894-.506-2.297-1.292h-.109v3.623zm3.322-3.384c1.347 0 2.147-1.039 2.147-2.755v-.013c0-1.716-.8-2.755-2.147-2.755-1.339 0-2.16 1.052-2.16 2.755v.013c0 1.702.821 2.755 2.16 2.755m7.247 1.053c-1.402 0-2.461-.848-2.461-2.188v-.013c0-1.313.97-2.072 2.686-2.174l2.112-.13v-.67c0-.909-.553-1.401-1.654-1.401-.882 0-1.463.328-1.654.902l-.007.021h-1.189l.006-.041c.192-1.156 1.313-1.935 2.885-1.935 1.798 0 2.803.923 2.803 2.454V712h-1.19v-1.087h-.109c-.465.786-1.237 1.217-2.228 1.217m-1.245-2.215c0 .745.636 1.183 1.491 1.183 1.21 0 2.091-.793 2.091-1.846v-.67l-1.968.123c-1.121.068-1.614.465-1.614 1.196zm7.575-6.706a.826.826 0 0 1-.821-.82c0-.451.369-.821.821-.821s.82.37.82.821-.369.82-.82.82m-.602 8.791v-7.369h1.189V712zm6.467 2.598c-1.778 0-2.912-.8-3.097-2.01l.014-.007h1.23l.007.007c.13.56.786.957 1.846.957 1.319 0 2.105-.622 2.105-1.709v-1.49h-.109c-.465.813-1.299 1.271-2.311 1.271-1.907 0-3.089-1.476-3.089-3.541v-.014c0-2.064 1.189-3.561 3.117-3.561 1.039 0 1.845.513 2.297 1.347h.082v-1.217h1.189v7.266c0 1.648-1.271 2.701-3.281 2.701m-.055-4.034c1.367 0 2.188-1.025 2.188-2.488v-.014c0-1.462-.828-2.508-2.188-2.508-1.367 0-2.133 1.046-2.133 2.508v.014c0 1.463.766 2.488 2.133 2.488m5.551 1.436v-7.369h1.189v1.107h.11c.369-.779 1.059-1.237 2.146-1.237 1.655 0 2.577.978 2.577 2.728V712h-1.189v-4.484c0-1.327-.547-1.962-1.723-1.962s-1.921.793-1.921 2.085V712zm10.705.13c-1.641 0-2.769-.793-2.905-2.01h1.217c.198.615.786 1.019 1.729 1.019.991 0 1.695-.472 1.695-1.142v-.014c0-.499-.376-.847-1.285-1.066l-1.141-.273c-1.381-.329-2.003-.93-2.003-1.99v-.007c0-1.223 1.175-2.146 2.741-2.146 1.545 0 2.618.772 2.782 1.976h-1.169c-.157-.581-.731-.985-1.62-.985-.875 0-1.518.451-1.518 1.101v.013c0 .499.37.814 1.238 1.026l1.135.273c1.387.335 2.057.937 2.057 1.99v.013c0 1.313-1.278 2.222-2.953 2.222" fill="#272833" />
				<path d="M148 727h280v40H148z" fill="#fff" />
				<mask height="16" id="q" maskUnits="userSpaceOnUse" style="mask-type:alpha" width="17" x="168" y="739">
					<path d="M178.001 747h2a.997.997 0 0 0 1-1v-2a.997.997 0 0 0-1-1h-2a.997.997 0 0 0-1 1v2a.997.997 0 0 0 1 1m2 5h-2a.997.997 0 0 1-1-1v-2a.997.997 0 0 1 1-1h2a.997.997 0 0 1 1 1v2a.997.997 0 0 1-1 1m-7 0h2a.997.997 0 0 0 1-1v-2a.997.997 0 0 0-1-1h-2a.997.997 0 0 0-1 1v2a.997.997 0 0 0 1 1" fill="#6b6c7e" />
					<path clip-rule="evenodd" d="M182.001 739h-12c-1.103 0-2 .897-2 2v12c0 1.103.897 2 2 2h12c1.104 0 2-.897 2-2v-12c0-1.103-.896-2-2-2m-12 2h12v12h-12z" fill="#6b6c7e" fill-rule="evenodd" />
				</mask>
				<g mask="url(#q)">
					<path d="M168.001 739h16v16h-16z" fill="#272833" />
				</g>
				<path d="m196.472 752 3.636-9.864h1.217l3.637 9.864h-1.292l-.991-2.823h-3.924l-.991 2.823zm4.19-8.271-1.545 4.402h3.199l-1.545-4.402zm5.947 8.271v-10.295h1.19V752zm3.541 0v-10.295h1.19V752zm10.794.232c-2.16 0-3.554-1.134-3.698-2.741l-.007-.075h1.231l.007.075c.088.985 1.114 1.607 2.536 1.607 1.34 0 2.317-.691 2.317-1.696v-.006c0-.821-.567-1.381-1.921-1.682l-1.094-.239c-1.975-.438-2.83-1.347-2.83-2.776v-.007c.007-1.633 1.436-2.789 3.473-2.789 1.969 0 3.343 1.162 3.445 2.632l.007.096h-1.23l-.014-.089c-.137-.868-.957-1.511-2.242-1.504-1.231.007-2.181.588-2.181 1.62v.007c0 .786.54 1.319 1.88 1.613l1.094.246c2.057.458 2.871 1.286 2.871 2.707v.007c0 1.846-1.442 2.994-3.644 2.994m5.544 2.229v-9.83h1.19v1.176h.109c.451-.821 1.272-1.306 2.297-1.306 1.866 0 3.09 1.511 3.09 3.808v.013c0 2.311-1.217 3.808-3.09 3.808-1.012 0-1.894-.506-2.297-1.292h-.109v3.623zm3.323-3.384c1.346 0 2.146-1.039 2.146-2.755v-.013c0-1.716-.8-2.755-2.146-2.755-1.34 0-2.161 1.052-2.161 2.755v.013c0 1.702.821 2.755 2.161 2.755m7.246 1.053c-1.402 0-2.461-.848-2.461-2.188v-.013c0-1.313.97-2.072 2.686-2.174l2.113-.13v-.67c0-.909-.554-1.401-1.655-1.401-.882 0-1.463.328-1.654.902l-.007.021h-1.189l.006-.041c.192-1.156 1.313-1.935 2.885-1.935 1.798 0 2.803.923 2.803 2.454V752h-1.189v-1.087h-.11c-.465.786-1.237 1.217-2.228 1.217m-1.245-2.215c0 .745.636 1.183 1.491 1.183 1.21 0 2.092-.793 2.092-1.846v-.67l-1.969.123c-1.121.068-1.614.465-1.614 1.196zm9.96 2.215c-2.064 0-3.383-1.497-3.383-3.835v-.014c0-2.29 1.312-3.78 3.377-3.78 1.791 0 2.864 1.032 3.083 2.345l.006.041h-1.182l-.007-.021c-.185-.724-.841-1.312-1.9-1.312-1.327 0-2.161 1.066-2.161 2.727v.014c0 1.695.848 2.782 2.161 2.782.991 0 1.62-.437 1.893-1.258l.014-.041 1.176-.007-.014.076c-.301 1.333-1.292 2.283-3.063 2.283m7.828 0c-2.106 0-3.377-1.477-3.377-3.787v-.007c0-2.276 1.298-3.835 3.301-3.835s3.22 1.49 3.22 3.691v.465h-5.305c.035 1.525.875 2.413 2.188 2.413.998 0 1.613-.471 1.811-.916l.028-.061h1.189l-.013.054c-.253.999-1.306 1.983-3.042 1.983m-.082-6.569c-1.094 0-1.928.745-2.058 2.146h4.074c-.123-1.456-.93-2.146-2.016-2.146m7.601 6.569c-1.64 0-2.768-.793-2.905-2.01h1.217c.198.615.786 1.019 1.729 1.019.991 0 1.695-.472 1.695-1.142v-.014c0-.499-.376-.847-1.285-1.066l-1.141-.273c-1.381-.329-2.003-.93-2.003-1.99v-.007c0-1.223 1.176-2.146 2.741-2.146 1.545 0 2.618.772 2.782 1.976h-1.169c-.157-.581-.731-.985-1.62-.985-.875 0-1.517.451-1.517 1.101v.013c0 .499.369.814 1.237 1.026l1.135.273c1.387.335 2.057.937 2.057 1.99v.013c0 1.313-1.278 2.222-2.953 2.222" fill="#272833" />
				<path d="M176.176 711.211c-2.397 0-3.885-1.699-3.885-4.43v-.011c0-2.743 1.482-4.436 3.879-4.436 1.922 0 3.381 1.219 3.58 2.947v.047h-1.482l-.006-.023c-.217-1.002-1.026-1.664-2.092-1.664-1.436 0-2.332 1.201-2.332 3.123v.011c0 1.928.896 3.129 2.338 3.129 1.072 0 1.869-.597 2.086-1.529l.006-.029h1.482v.041c-.223 1.693-1.623 2.824-3.574 2.824" fill="#705100" />
				<path d="M171.676 671v-8.455h1.734l2.543 6.504h.1l2.537-6.504h1.734V671h-1.359v-6.012h-.106L176.516 671h-1.032l-2.343-6.012h-.1V671z" fill="#5d00e6" />
				<path clip-rule="evenodd" d="M175.047 107.264c2.495-3.499 9.433-3.012 13.176.365 7.059 6.36-2.1 22.031-10.681 15.763-.213-.152-.426-.304-.639-.487-2.708-2.343-4.899-5.66-2.587-14.119.152-.578.426-1.065.731-1.522" fill="#1aa0e8" fill-rule="evenodd" />
				<path clip-rule="evenodd" d="M175.047 107.264c7.211-2.951 16.249 4.139 9.22 12.02-1.644 1.826-4.2 3.438-6.725 4.108-1.826.487-3.652.456-5.082-.365-3.438-1.917-4.29-8.734-1.643-12.385 1.217-1.643 2.678-2.739 4.23-3.378" fill="#0b63ce" fill-rule="evenodd" />
				<path d="M184.267 119.284c7.029-7.881-2.009-14.971-9.22-12.02-.305.457-.579.944-.731 1.522-2.312 8.459-.121 11.776 2.587 14.119.213.183.426.335.639.487 2.525-.67 5.081-2.282 6.725-4.108" fill="#134194" />
				<path d="M310.5 109.5h-97a5.5 5.5 0 1 0 0 11h97a5.5 5.5 0 1 0 0-11" fill="#e7e7ed" />
				<path d="M428 83h.5v1024h-.5z" fill="#9393a4" />
				<path d="M1206 171.5H456a3.5 3.5 0 0 0-3.5 3.5v309a3.5 3.5 0 0 0 3.5 3.5h750c1.93 0 3.5-1.567 3.5-3.5V175c0-1.933-1.57-3.5-3.5-3.5" fill="#fff" />
				<path d="M1206 171.5H456a3.5 3.5 0 0 0-3.5 3.5v309a3.5 3.5 0 0 0 3.5 3.5h750c1.93 0 3.5-1.567 3.5-3.5V175c0-1.933-1.57-3.5-3.5-3.5Z" stroke="#cdced9" />
				<path d="M468 191c0-1.061.421-2.078 1.172-2.828A4 4 0 0 1 472 187h16c1.061 0 2.078.421 2.828 1.172A4 4 0 0 1 492 191v16a4 4 0 0 1-1.172 2.828A4 4 0 0 1 488 211h-16a4 4 0 0 1-2.828-1.172A4 4 0 0 1 468 207zm106.5 2.5h-69a5.5 5.5 0 1 0 0 11h69a5.5 5.5 0 1 0 0-11" fill="#e7e7ed" />
				<path d="M468 231c0-1.061.421-2.078 1.172-2.828A4 4 0 0 1 472 227h718a4 4 0 0 1 4 4v237a4 4 0 0 1-4 4H472a4 4 0 0 1-2.828-1.172A4 4 0 0 1 468 468z" fill="#f7f8f9" />
				<path d="M1206 512.5H456a3.5 3.5 0 0 0-3.5 3.5v309a3.5 3.5 0 0 0 3.5 3.5h750c1.93 0 3.5-1.567 3.5-3.5V516c0-1.933-1.57-3.5-3.5-3.5" fill="#fff" />
				<path d="M1206 512.5H456a3.5 3.5 0 0 0-3.5 3.5v309a3.5 3.5 0 0 0 3.5 3.5h750c1.93 0 3.5-1.567 3.5-3.5V516c0-1.933-1.57-3.5-3.5-3.5Z" stroke="#cdced9" />
				<path d="M468 532c0-1.061.421-2.078 1.172-2.828A4 4 0 0 1 472 528h16c1.061 0 2.078.421 2.828 1.172A4 4 0 0 1 492 532v16a4 4 0 0 1-1.172 2.828A4 4 0 0 1 488 552h-16a4 4 0 0 1-2.828-1.172A4 4 0 0 1 468 548zm106.5 2.5h-69a5.5 5.5 0 1 0 0 11h69a5.5 5.5 0 1 0 0-11" fill="#e7e7ed" />
				<path d="M468 572c0-1.061.421-2.078 1.172-2.828A4 4 0 0 1 472 568h718a4 4 0 0 1 4 4v237a4 4 0 0 1-4 4H472a4 4 0 0 1-2.828-1.172A4 4 0 0 1 468 809z" fill="#f7f8f9" />
			</g>
		</g>
		<path d="M426.76 602.337H122.24c-6.574 0-11.903 5.329-11.903 11.903v156.484c0 6.574 5.329 11.903 11.903 11.903h304.52c6.574 0 11.903-5.329 11.903-11.903V614.24c0-6.574-5.329-11.903-11.903-11.903" fill="#fff" />
		<path d="M426.76 602.337H122.24c-6.574 0-11.903 5.329-11.903 11.903v156.484c0 6.574 5.329 11.903 11.903 11.903h304.52c6.574 0 11.903-5.329 11.903-11.903V614.24c0-6.574-5.329-11.903-11.903-11.903Z" stroke="#b3cdff" stroke-width="7.326" />
		<path d="M426.759 605.176H122.241a9.066 9.066 0 0 0-9.065 9.065v156.482a9.066 9.066 0 0 0 9.065 9.065h304.518a9.065 9.065 0 0 0 9.065-9.065V614.241a9.065 9.065 0 0 0-9.065-9.065Z" stroke="#0b5fff" stroke-width="1.648" />
		<path d="M136.193 632.755c-2.34 0-3.85-1.229-4.006-2.969l-.007-.081h1.333l.007.081c.096 1.067 1.207 1.74 2.747 1.74 1.451 0 2.51-.747 2.51-1.836v-.007c0-.889-.615-1.496-2.081-1.821l-1.184-.26c-2.14-.473-3.065-1.458-3.065-3.005v-.008c.007-1.769 1.554-3.02 3.761-3.02 2.132 0 3.62 1.258 3.731 2.85l.007.104h-1.332l-.015-.097c-.148-.94-1.037-1.636-2.428-1.628-1.333.007-2.362.636-2.362 1.754v.008c0 .851.585 1.428 2.036 1.747l1.184.266c2.229.496 3.11 1.392 3.11 2.932v.008c0 1.999-1.562 3.242-3.946 3.242m6.004 2.414v-10.646h1.288v1.273h.119c.488-.888 1.377-1.414 2.487-1.414 2.021 0 3.347 1.636 3.347 4.124v.014c0 2.503-1.318 4.124-3.347 4.124-1.095 0-2.05-.548-2.487-1.399h-.119v3.924zm3.598-3.665c1.459 0 2.325-1.125 2.325-2.984v-.014c0-1.859-.866-2.984-2.325-2.984-1.451 0-2.339 1.14-2.339 2.984v.014c0 1.844.888 2.984 2.339 2.984m7.848 1.14c-1.518 0-2.665-.918-2.665-2.369v-.015c0-1.421 1.051-2.243 2.909-2.354l2.288-.141v-.725c0-.985-.6-1.518-1.792-1.518-.955 0-1.584.355-1.791.977l-.008.023h-1.288l.007-.045c.208-1.251 1.422-2.095 3.125-2.095 1.947 0 3.035.999 3.035 2.658v5.464h-1.288v-1.178h-.118c-.504.852-1.341 1.318-2.414 1.318m-1.347-2.398c0 .807.688 1.28 1.613 1.28 1.311 0 2.266-.858 2.266-1.999v-.725l-2.132.133c-1.214.074-1.747.504-1.747 1.296zm10.786 2.398c-2.235 0-3.664-1.621-3.664-4.153v-.015c0-2.48 1.421-4.094 3.657-4.094 1.94 0 3.102 1.118 3.339 2.539l.007.045h-1.28l-.008-.022c-.2-.785-.91-1.422-2.058-1.422-1.436 0-2.339 1.155-2.339 2.954v.015c0 1.836.918 3.013 2.339 3.013 1.074 0 1.755-.474 2.051-1.362l.015-.045 1.273-.007-.015.081c-.325 1.444-1.399 2.473-3.317 2.473m8.478 0c-2.281 0-3.658-1.599-3.658-4.101v-.008c0-2.465 1.407-4.153 3.576-4.153s3.487 1.614 3.487 3.998v.503h-5.745c.037 1.651.948 2.614 2.369 2.614 1.081 0 1.747-.511 1.962-.992l.03-.067h1.288l-.015.059c-.274 1.081-1.414 2.147-3.294 2.147m-.089-7.115c-1.185 0-2.088.807-2.229 2.325h4.413c-.133-1.577-1.007-2.325-2.184-2.325m8.232 7.115c-1.776 0-2.998-.859-3.146-2.176h1.318c.215.666.851 1.103 1.873 1.103 1.073 0 1.836-.511 1.836-1.237v-.014c0-.541-.407-.918-1.392-1.155l-1.236-.297c-1.496-.355-2.17-1.006-2.17-2.154v-.007c0-1.326 1.274-2.325 2.969-2.325 1.674 0 2.836.836 3.014 2.14h-1.266c-.171-.63-.793-1.067-1.755-1.067-.948 0-1.644.489-1.644 1.192v.015c0 .541.4.881 1.34 1.111l1.229.296c1.503.363 2.229 1.014 2.229 2.154v.015c0 1.422-1.385 2.406-3.199 2.406" fill="#272833" />
		<mask height="7" id="r" maskUnits="userSpaceOnUse" style="mask-type:alpha" width="12" x="403" y="624">
			<path d="m409.735 630.272 4.386-4.452c.859-.913-.309-2.154-1.151-1.261l-3.963 4.032-4.008-4.056c-.782-.831-1.929.45-1.144 1.285l4.396 4.462c.531.576.853.671 1.484-.01" fill="#6b6c7e" />
		</mask>
		<g mask="url(#r)">
			<path d="M400.343 618.836h17.329v17.329h-17.329z" fill="#6b6c7e" />
		</g>
		<path d="M114 649h321v43.321H114z" fill="#f0f5ff" />
		<path d="M152.989 658.206h-17.328a3.79 3.79 0 0 0-3.791 3.791v17.328a3.79 3.79 0 0 0 3.791 3.791h17.328a3.79 3.79 0 0 0 3.791-3.791v-17.328a3.79 3.79 0 0 0-3.791-3.791" fill="#e5e8ff" />
		<path d="M152.989 658.206h-17.328a3.79 3.79 0 0 0-3.791 3.791v17.328a3.79 3.79 0 0 0 3.791 3.791h17.328a3.79 3.79 0 0 0 3.791-3.791v-17.328a3.79 3.79 0 0 0-3.791-3.791Z" fill="#e5e8ff" stroke="#4d5fff" stroke-width="1.083" />
		<path d="M167.304 675.664v-10.683h2.191l3.213 8.218h.126l3.206-8.218h2.191v10.683h-1.717v-7.596h-.134l-2.961 7.596h-1.303l-2.962-7.596h-.125v7.596zm15.577.134c-1.54 0-2.658-.948-2.658-2.421v-.015c0-1.444 1.103-2.288 3.072-2.406l2.081-.126v-.696c0-.807-.526-1.251-1.518-1.251-.844 0-1.392.303-1.577.836l-.007.03h-1.74l.007-.067c.178-1.362 1.481-2.265 3.406-2.265 2.08 0 3.25 1.007 3.25 2.717v5.53h-1.821v-1.11h-.126c-.444.785-1.303 1.244-2.369 1.244m-.837-2.51c0 .688.585 1.095 1.399 1.095 1.111 0 1.933-.725 1.933-1.688v-.651l-1.822.118c-1.029.067-1.51.445-1.51 1.111zm7.367 2.376v-8.092h1.843v1.244h.126c.274-.866 1.014-1.377 2.08-1.377.282 0 .57.037.748.089v1.651a4.6 4.6 0 0 0-.918-.104c-1.229 0-2.036.733-2.036 1.888v4.701zm6.381 0v-11.223h1.844v6.448h.126l2.983-3.317h2.133l-3.258 3.421 3.48 4.671h-2.221l-2.599-3.502-.644.659v2.843zm11.743.163c-2.407 0-3.865-1.614-3.865-4.19v-.008c0-2.546 1.473-4.212 3.776-4.212s3.724 1.614 3.724 4.057v.607h-5.657c.023 1.451.807 2.295 2.059 2.295.999 0 1.569-.503 1.747-.874l.022-.051h1.755l-.023.066c-.259 1.044-1.34 2.31-3.538 2.31m-.067-6.967c-1.029 0-1.799.696-1.94 1.985h3.843c-.126-1.326-.874-1.985-1.903-1.985m8.729 6.841c-1.859 0-2.621-.622-2.621-2.184v-4.516h-1.259v-1.429h1.259v-1.984h1.873v1.984h1.71v1.429h-1.71v4.079c0 .807.318 1.148 1.088 1.148.259 0 .4-.007.622-.03v1.422q-.477.086-.962.081m3.746-9.484a1.1 1.1 0 0 1-1.017-.669 1.1 1.1 0 0 1-.086-.419c0-.6.496-1.088 1.103-1.088.6 0 1.096.488 1.096 1.088 0 .607-.496 1.088-1.096 1.088m-.926 9.447v-8.092h1.844v8.092zm4.109 0v-8.092h1.844v1.237h.126c.385-.867 1.162-1.392 2.332-1.392 1.806 0 2.791 1.088 2.791 3.013v5.234h-1.843v-4.805c0-1.258-.511-1.895-1.629-1.895-1.096 0-1.777.77-1.777 1.984v4.716zm12.749 2.843c-2.132 0-3.413-.91-3.598-2.273l.008-.022h1.843l.008.022c.125.519.74.881 1.769.881 1.259 0 1.992-.584 1.992-1.621v-1.547h-.126c-.467.866-1.348 1.34-2.466 1.34-2.051 0-3.324-1.585-3.324-3.88v-.015c0-2.339 1.273-3.953 3.361-3.953 1.118 0 1.992.548 2.451 1.466h.096v-1.333h1.844v7.892c0 1.866-1.496 3.043-3.858 3.043m0-4.686c1.281 0 2.051-.985 2.051-2.414v-.015c0-1.428-.777-2.421-2.051-2.421-1.28 0-2.006.993-2.006 2.421v.015c0 1.429.726 2.414 2.006 2.414" fill="#272833" />
		<path d="M152.989 701.527h-17.328a3.79 3.79 0 0 0-3.791 3.791v17.328a3.79 3.79 0 0 0 3.791 3.791h17.328a3.79 3.79 0 0 0 3.791-3.791v-17.328a3.79 3.79 0 0 0-3.791-3.791" fill="#fffbf0" />
		<path d="M152.989 701.527h-17.328a3.79 3.79 0 0 0-3.791 3.791v17.328a3.79 3.79 0 0 0 3.791 3.791h17.328a3.79 3.79 0 0 0 3.791-3.791v-17.328a3.79 3.79 0 0 0-3.791-3.791Z" stroke="#e6a600" stroke-width="1.083" />
		<path d="M167.348 718.986v-10.684h1.333v4.62h5.863v-4.62h1.333v10.684h-1.333v-4.864h-5.863v4.864zm11.253 0v-10.684h4.08c2.058 0 3.405 1.259 3.405 3.177v.014c0 1.481-.807 2.636-2.147 3.058l2.473 4.435h-1.562l-2.288-4.228h-2.628v4.228zm1.333-5.412h2.628c1.37 0 2.147-.733 2.147-2.036v-.015c0-1.273-.829-2.036-2.206-2.036h-2.569z" fill="#272833" />
		<path d="M426.336 735.643H122.664a8.664 8.664 0 0 0-8.664 8.664V770.3a8.664 8.664 0 0 0 8.664 8.664h303.672A8.664 8.664 0 0 0 435 770.3v-25.993a8.664 8.664 0 0 0-8.664-8.664" fill="#fff" />
		<mask height="18" id="s" maskUnits="userSpaceOnUse" style="mask-type:alpha" width="18" x="135" y="748">
			<path d="M146.493 757.304h2.166c.598 0 1.083-.484 1.083-1.083v-2.167c0-.599-.485-1.083-1.083-1.083h-2.166c-.599 0-1.083.484-1.083 1.083v2.167c0 .599.484 1.083 1.083 1.083m2.166 5.415h-2.166q-.215 0-.415-.082a1.08 1.08 0 0 1-.668-1.001v-2.166c0-.599.484-1.083 1.083-1.083h2.166c.598 0 1.083.484 1.083 1.083v2.166c0 .599-.485 1.083-1.083 1.083m-7.582 0h2.166c.599 0 1.084-.484 1.084-1.083v-2.166c0-.599-.485-1.083-1.084-1.083h-2.166c-.598 0-1.083.484-1.083 1.083v2.166c0 .599.485 1.083 1.083 1.083" fill="#6b6c7e" />
			<path clip-rule="evenodd" d="M150.825 748.639h-12.997a2.17 2.17 0 0 0-2.166 2.166v12.997c0 1.194.971 2.166 2.166 2.166h12.997a2.17 2.17 0 0 0 2.166-2.166v-12.997a2.17 2.17 0 0 0-2.166-2.166m-12.997 2.166h12.997v12.997h-12.997z" fill="#6b6c7e" fill-rule="evenodd" />
		</mask>
		<g mask="url(#s)">
			<path d="M135.662 748.639h17.329v17.329h-17.329z" fill="#272833" />
		</g>
		<path d="m166.497 762.307 3.938-10.683h1.318l3.939 10.683h-1.399l-1.074-3.058h-4.25l-1.073 3.058zm4.538-8.958-1.673 4.768h3.465l-1.674-4.768zm6.441 8.958v-11.15h1.288v11.15zm3.835 0v-11.15h1.288v11.15zm11.69.252c-2.339 0-3.85-1.229-4.005-2.969l-.007-.081h1.332l.008.081c.096 1.066 1.206 1.74 2.746 1.74 1.451 0 2.51-.748 2.51-1.836v-.008c0-.888-.614-1.495-2.08-1.821l-1.185-.259c-2.139-.474-3.065-1.459-3.065-3.006v-.007c.008-1.77 1.555-3.021 3.761-3.021 2.132 0 3.62 1.259 3.732 2.85l.007.104h-1.333l-.015-.096c-.148-.94-1.036-1.636-2.428-1.629-1.333.007-2.362.637-2.362 1.755v.007c0 .852.585 1.429 2.036 1.747l1.185.267c2.228.496 3.109 1.392 3.109 2.932v.007c0 1.999-1.562 3.243-3.946 3.243m6.005 2.413v-10.646h1.288v1.274h.118c.489-.889 1.377-1.415 2.488-1.415 2.021 0 3.346 1.637 3.346 4.124v.015c0 2.502-1.318 4.124-3.346 4.124-1.096 0-2.051-.548-2.488-1.399h-.118v3.923zm3.598-3.664c1.458 0 2.324-1.126 2.324-2.984v-.015c0-1.858-.866-2.983-2.324-2.983-1.451 0-2.34 1.14-2.34 2.983v.015c0 1.843.889 2.984 2.34 2.984m7.848 1.14c-1.518 0-2.666-.918-2.666-2.369v-.015c0-1.422 1.052-2.243 2.91-2.354l2.288-.141v-.726c0-.984-.6-1.517-1.792-1.517-.955 0-1.584.355-1.792.977l-.007.022h-1.288l.007-.044c.207-1.252 1.421-2.096 3.124-2.096 1.947 0 3.036 1 3.036 2.658v5.464h-1.288v-1.177h-.119c-.503.851-1.34 1.318-2.413 1.318m-1.348-2.399c0 .807.689 1.281 1.614 1.281 1.31 0 2.266-.859 2.266-1.999v-.726l-2.133.134c-1.214.074-1.747.503-1.747 1.295zm10.787 2.399c-2.236 0-3.665-1.622-3.665-4.154v-.014c0-2.481 1.422-4.095 3.658-4.095 1.939 0 3.102 1.118 3.339 2.54l.007.044h-1.281l-.007-.022c-.2-.785-.911-1.421-2.058-1.421-1.437 0-2.34 1.155-2.34 2.954v.014c0 1.836.918 3.014 2.34 3.014 1.073 0 1.754-.474 2.05-1.363l.015-.044 1.274-.007-.015.081c-.326 1.444-1.399 2.473-3.317 2.473m8.477 0c-2.28 0-3.657-1.599-3.657-4.102v-.007c0-2.466 1.406-4.154 3.576-4.154s3.487 1.614 3.487 3.998v.504h-5.745c.037 1.651.947 2.613 2.369 2.613 1.081 0 1.747-.511 1.962-.992l.029-.066h1.289l-.015.059c-.274 1.081-1.414 2.147-3.295 2.147m-.089-7.115c-1.184 0-2.088.807-2.228 2.325h4.412c-.133-1.577-1.007-2.325-2.184-2.325m8.233 7.115c-1.777 0-2.998-.859-3.146-2.177h1.317c.215.666.852 1.103 1.873 1.103 1.074 0 1.837-.511 1.837-1.236v-.015c0-.54-.408-.918-1.392-1.155l-1.237-.296c-1.495-.355-2.169-1.007-2.169-2.154v-.008c0-1.325 1.273-2.325 2.969-2.325 1.673 0 2.835.837 3.013 2.14h-1.266c-.17-.629-.792-1.066-1.755-1.066-.947 0-1.643.489-1.643 1.192v.015c0 .54.4.881 1.34 1.11l1.229.296c1.503.363 2.228 1.015 2.228 2.155v.015c0 1.421-1.384 2.406-3.198 2.406" fill="#272833" />
		<path d="M140.462 719.307v-9.157h1.637v3.807h4.455v-3.807h1.631v9.157h-1.631v-3.973h-4.455v3.973z" fill="#705100" />
		<path d="m141.18 667.328 2.63 6.726.125.318h.791l.124-.318 2.623-6.726h1.037v8.158h-.472v-6.511h-.957l-.124.319-2.414 6.192h-.433l-2.414-6.192-.124-.319h-.95v6.511h-.479v-8.158z" fill="#4d5fff" stroke="#4d5fff" />
	</g>
	<defs>
		<clipPath id="a">
			<path d="M0 0h1450v928H0z" fill="#fff" />
		</clipPath>
		<filter color-interpolation-filters="sRGB" filterUnits="userSpaceOnUse" height="778" id="b" width="1188" x="132" y="75">
			<feFlood flood-opacity="0" result="BackgroundImageFix" />
			<feColorMatrix in="SourceAlpha" result="hardAlpha" values="0 0 0 0 0 0 0 0 0 0 0 0 0 0 0 0 0 0 127 0" />
			<feOffset dy="8" />
			<feGaussianBlur stdDeviation="8" />
			<feColorMatrix values="0 0 0 0 0.152941 0 0 0 0 0.156863 0 0 0 0 0.2 0 0 0 0.16 0" />
			<feBlend in2="BackgroundImageFix" result="effect1_dropShadow_1_2" />
			<feBlend in="SourceGraphic" in2="effect1_dropShadow_1_2" result="shape" />
		</filter>
	</defs>
</svg>