<svg fill="none" height="95" viewBox="0 0 130 95" width="130" xmlns="http://www.w3.org/2000/svg">
	<g filter="url(#filter0_d_2126_14497)">
		<rect fill="white" height="24" rx="4" width="108" x="11" y="7" />
		<rect height="24" rx="4" stroke="#0B5FFF" stroke-opacity="0.4" stroke-width="6" width="108" x="11" y="7" />
	</g>
	<g filter="url(#filter1_d_2126_14497)">
		<rect fill="white" height="24" rx="4" width="108" x="11" y="43" />
		<rect height="24" rx="4" stroke="#0B5FFF" stroke-opacity="0.4" stroke-width="6" width="108" x="11" y="43" />
	</g>
	<rect fill="white" height="23" rx="3.5" stroke="#0B5FFF" width="107" x="11.5" y="7.5" />
	<rect fill="white" height="23" rx="3.5" stroke="#0B5FFF" width="107" x="11.5" y="7.5" />
	<rect fill="#0B5FFF" height="14" rx="2" width="14" x="16" y="12" />
	<path d="M19 19L21.5 21.5L27 16" stroke="white" stroke-linecap="round" stroke-linejoin="round" stroke-width="2" />
	<rect fill="#0B5FFF" height="4" width="61" x="34" y="17" />
	<rect fill="#0B5FFF" height="14" rx="2" width="14" x="16" y="48" />
	<path d="M19 55L21.5 57.5L27 52" stroke="white" stroke-linecap="round" stroke-linejoin="round" stroke-width="2" />
	<rect fill="#0B5FFF" height="4" width="61" x="34" y="53" />
	<rect height="12" rx="1" stroke="#80ACFF" stroke-width="2" width="12" x="17" y="82" />
	<rect fill="#80ACFF" height="4" width="61" x="34" y="86" />
	<defs>
		<filter color-interpolation-filters="sRGB" filterUnits="userSpaceOnUse" height="46" id="filter0_d_2126_14497" width="130" x="0" y="0">
			<feFlood flood-opacity="0" result="BackgroundImageFix" />
			<feColorMatrix in="SourceAlpha" result="hardAlpha" type="matrix" values="0 0 0 0 0 0 0 0 0 0 0 0 0 0 0 0 0 0 127 0" />
			<feOffset dy="4" />
			<feGaussianBlur stdDeviation="4" />
			<feColorMatrix type="matrix" values="0 0 0 0 0.152941 0 0 0 0 0.156863 0 0 0 0 0.2 0 0 0 0.12 0" />
			<feBlend in2="BackgroundImageFix" mode="normal" result="effect1_dropShadow_2126_14497" />
			<feBlend in="SourceGraphic" in2="effect1_dropShadow_2126_14497" mode="normal" result="shape" />
		</filter>
		<filter color-interpolation-filters="sRGB" filterUnits="userSpaceOnUse" height="46" id="filter1_d_2126_14497" width="130" x="0" y="36">
			<feFlood flood-opacity="0" result="BackgroundImageFix" />
			<feColorMatrix in="SourceAlpha" result="hardAlpha" type="matrix" values="0 0 0 0 0 0 0 0 0 0 0 0 0 0 0 0 0 0 127 0" />
			<feOffset dy="4" />
			<feGaussianBlur stdDeviation="4" />
			<feColorMatrix type="matrix" values="0 0 0 0 0.152941 0 0 0 0 0.156863 0 0 0 0 0.2 0 0 0 0.12 0" />
			<feBlend in2="BackgroundImageFix" mode="normal" result="effect1_dropShadow_2126_14497" />
			<feBlend in="SourceGraphic" in2="effect1_dropShadow_2126_14497" mode="normal" result="shape" />
		</filter>
	</defs>
</svg>