<svg fill="none" height="80" viewBox="0 0 140 80" width="140" xmlns="http://www.w3.org/2000/svg">
	<rect fill="#F0F5FF" height="79" rx="3.5" stroke="#5791FF" width="31" x="0.5" y="0.5" />
	<rect fill="white" height="25" rx="3.5" stroke="#5791FF" width="79" x="36.5" y="0.5" />
	<rect fill="#80ACFF" height="3" width="25" x="53" y="8" />
	<rect fill="#0053F0" height="3" opacity="0.7" width="3" x="44" y="8" />
	<rect fill="#80ACFF" height="3" width="41" x="53" y="15" />
	<rect fill="#0053F0" height="3" opacity="0.7" width="3" x="44" y="15" />
	<rect fill="#F0F5FF" height="49" rx="3.5" stroke="#5791FF" width="79" x="36.5" y="30.5" />
	<rect fill="white" height="26" rx="5" stroke="#B3CDFF" stroke-width="2" width="96" x="43" y="47" />
	<rect fill="#0B5FFF" height="16" rx="4" width="15.8416" x="47.9602" y="52" />
	<mask height="8" id="mask0_2246_279" maskUnits="userSpaceOnUse" style="mask-type:alpha" width="9" x="51" y="56">
		<path d="M58.3371 56V56.5H57.8421V63.5H58.3371V64H56.3569V63.5H56.852V56.5H56.3569V56H58.3371Z" fill="#6B6C7E" />
		<path d="M53.8817 59.5H55.3668C56.0108 59.5 56.0108 60.5 55.3668 60.5H53.8817C53.2382 60.45 53.2382 59.5 53.8817 59.5Z" fill="#6B6C7E" />
		<path d="M56.3569 61.5H52.8916V58.5H56.3569V57.5H52.3965C52.0997 57.5 51.9015 57.7 51.9015 58V62C51.9015 62.3 52.0997 62.5 52.3965 62.5H56.3569V61.5Z" fill="#6B6C7E" />
		<path d="M58.3371 57.5H59.3272C59.6241 57.5 59.8223 57.7 59.8223 58V62C59.8223 62.3 59.6241 62.5 59.3272 62.5H58.3371V61.5H58.8322V58.5H58.3371V57.5Z" fill="#6B6C7E" />
	</mask>
	<g mask="url(#mask0_2246_279)">
		<rect fill="white" height="8" width="7.92079" x="51.9015" y="56" />
	</g>
	<rect fill="#80ACFF" height="4" width="32" x="71.7228" y="55" />
	<rect fill="#80ACFF" height="2" opacity="0.5" width="59.4059" x="71.7228" y="63" />
</svg>