<svg fill="none" height="20" viewBox="1089.33 328 20 20" width="20" xmlns="http://www.w3.org/2000/svg">
	<path d="M1109.33 328V348H1089.33V328H1109.33Z" fill="white" fill-opacity="0.01" />
	<path clip-rule="evenodd" d="M1103.29 330.145C1104.12 329.659 1105.17 330.26 1105.17 331.225V334.666C1106.55 334.666 1107.67 335.785 1107.67 337.166C1107.67 338.547 1106.55 339.666 1105.17 339.666V342.999C1105.17 344.029 1103.99 344.617 1103.17 343.999L1101.26 342.566C1100.19 341.765 1098.96 341.21 1097.67 340.934V343.241C1097.67 344.488 1096.66 345.499 1095.41 345.499C1094.4 345.499 1093.51 344.831 1093.24 343.861L1091.93 339.281C1091.35 338.596 1091 337.712 1091 336.749C1091 334.671 1092.62 332.954 1094.7 332.839L1096.88 332.717C1098.33 332.637 1099.74 332.214 1100.99 331.483L1103.29 330.145ZM1094.03 340.564L1094.84 343.403C1094.91 343.657 1095.14 343.832 1095.41 343.832C1095.74 343.832 1096 343.568 1096 343.241V340.732L1094.7 340.66C1094.47 340.647 1094.25 340.614 1094.03 340.564ZM1105.17 337.999C1105.63 337.999 1106 337.626 1106 337.166C1106 336.706 1105.63 336.332 1105.17 336.332V337.999Z" fill="#0B5FFF" fill-rule="evenodd" />
</svg>