<svg fill="none" height="24" viewBox="0 0 24 24" width="24" xmlns="http://www.w3.org/2000/svg">
	<rect fill="#E7EFFF" height="24" rx="4" width="24" />
	<path d="M20 4V20H4V4H20Z" fill="white" fill-opacity="0.01" />
	<path clip-rule="evenodd" d="M15.1628 5.71585C15.8294 5.32697 16.6666 5.80784 16.6666 6.57963V9.33262C17.7712 9.33262 18.6666 10.228 18.6666 11.3326C18.6666 12.4372 17.7712 13.3326 16.6666 13.3326V15.9993C16.6666 16.8233 15.7259 17.2937 15.0666 16.7993L13.5377 15.6526C12.6831 15.0117 11.7027 14.5679 10.6666 14.3471V16.1926C10.6666 17.1904 9.85775 17.9993 8.85992 17.9993C8.05326 17.9993 7.34433 17.4645 7.12272 16.6889L6.07573 13.0245C5.61182 12.4771 5.33331 11.7692 5.33331 10.9993C5.33331 9.33638 6.63239 7.96312 8.29274 7.87088L10.0397 7.77383C11.1985 7.70945 12.3255 7.37095 13.328 6.78617L15.1628 5.71585ZM7.7558 14.0513L8.40475 16.3226C8.46282 16.5258 8.64857 16.666 8.85992 16.666C9.12137 16.666 9.33331 16.454 9.33331 16.1926V14.1855L8.29274 14.1277C8.10891 14.1175 7.9295 14.0916 7.7558 14.0513ZM16.6666 11.9993C17.0348 11.9993 17.3333 11.7008 17.3333 11.3326C17.3333 10.9644 17.0348 10.666 16.6666 10.666V11.9993Z" fill="url(#paint0_linear_2000_19227)" fill-rule="evenodd" />
	<defs>
		<linearGradient gradientUnits="userSpaceOnUse" id="paint0_linear_2000_19227" x1="8.25729" x2="15.9224" y1="16.8492" y2="6.14564">
			<stop stop-color="#1514A4" />
			<stop offset="0.442308" stop-color="#0B5FFF" />
			<stop offset="1" stop-color="#0FFFFC" />
		</linearGradient>
	</defs>
</svg>