<svg fill="none" height="20" viewBox="792 92 20 20" width="20" xmlns="http://www.w3.org/2000/svg">
	<path clip-rule="evenodd" d="M796.167 95.3334C796.167 94.4129 796.913 93.6667 797.833 93.6667H806.167C807.087 93.6667 807.833 94.4129 807.833 95.3334V108.667C807.833 109.587 807.087 110.333 806.167 110.333H797.833C796.913 110.333 796.167 109.587 796.167 108.667V95.3334ZM801.167 106.167C801.167 105.706 801.54 105.333 802 105.333H802.008C802.469 105.333 802.842 105.706 802.842 106.167C802.842 106.627 802.469 107 802.008 107H802C801.54 107 801.167 106.627 801.167 106.167Z" fill="#0B5FFF" fill-rule="evenodd" />
</svg>