<svg fill="none" height="24" viewBox="0 0 24 24" width="24" xmlns="http://www.w3.org/2000/svg">
	<rect fill="#E7EFFF" height="24" rx="4" width="24" />
	<path d="M17.3151 5.1665C18.1536 5.16666 18.8336 5.8465 18.8336 6.68506V15.0366C18.8336 15.8752 18.1536 16.555 17.3151 16.5552H14.278V17.3149H15.0367C15.456 17.3149 15.7964 17.6545 15.7965 18.0737C15.7965 18.4931 15.4561 18.8335 15.0367 18.8335H8.96252C8.54338 18.8333 8.20374 18.4929 8.20374 18.0737C8.20383 17.6546 8.54344 17.3152 8.96252 17.3149H9.72229V16.5552H6.68518C5.84653 16.5552 5.16663 15.8753 5.16663 15.0366V6.68506C5.16663 5.8464 5.84653 5.1665 6.68518 5.1665H17.3151ZM11.2408 17.3149H12.7594V16.5552H11.2408V17.3149ZM8.50549 10.9526C8.63811 12.4764 9.75439 13.7172 11.2164 14.0376C11.027 13.8282 10.8615 13.5458 10.7262 13.2192C10.4769 12.6177 10.3084 11.825 10.276 10.9526H8.50549ZM13.649 10.9526C13.6166 11.8249 13.4481 12.6177 13.1989 13.2192C13.0636 13.5457 12.898 13.8282 12.7086 14.0376C14.1706 13.7172 15.2879 12.4764 15.4205 10.9526H13.649ZM10.8854 10.9526C10.9176 11.754 11.074 12.4655 11.2897 12.9858C11.4114 13.2794 11.5462 13.4986 11.6764 13.6392C11.8091 13.7824 11.9075 13.8149 11.9625 13.8149C12.0175 13.8148 12.1161 13.7822 12.2487 13.6392C12.3787 13.4986 12.5138 13.2792 12.6354 12.9858C12.8509 12.4655 13.0074 11.7538 13.0397 10.9526H10.8854ZM11.2164 7.25732C9.75433 7.57768 8.63812 8.81941 8.50549 10.3433H10.276C10.3085 9.47105 10.477 8.67815 10.7262 8.07666C10.8616 7.75016 11.027 7.46668 11.2164 7.25732ZM11.9625 7.48096C11.9076 7.48103 11.8088 7.51304 11.6764 7.65576C11.5463 7.79625 11.4113 8.01658 11.2897 8.31006C11.0741 8.83037 10.9177 9.54202 10.8854 10.3433H13.0397C13.0074 9.54197 12.851 8.83038 12.6354 8.31006C12.5137 8.01643 12.3788 7.79628 12.2487 7.65576C12.1163 7.51302 12.0175 7.48111 11.9625 7.48096ZM12.7096 7.25732C12.8989 7.46669 13.0636 7.75026 13.1989 8.07666C13.4481 8.67816 13.6166 9.471 13.649 10.3433H15.4205C15.288 8.81966 14.1713 7.578 12.7096 7.25732Z" fill="url(#paint0_linear_2000_19075)" />
	<defs>
		<linearGradient gradientUnits="userSpaceOnUse" id="paint0_linear_2000_19075" x1="8.16377" x2="16.7727" y1="17.568" y2="6.369">
			<stop stop-color="#1514A4" />
			<stop offset="0.442308" stop-color="#0B5FFF" />
			<stop offset="1" stop-color="#0FFFFC" />
		</linearGradient>
	</defs>
</svg>