<svg fill="none" height="20" viewBox="236 408 20 20" width="20" xmlns="http://www.w3.org/2000/svg">
	<path d="M247.686 412.792C248.254 412.792 248.812 412.941 249.305 413.225L250.333 413.819C250.339 413.821 250.425 413.856 250.641 413.899C250.837 413.938 251.079 413.972 251.333 414.001C251.669 414.038 252.004 414.06 252.251 414.073C252.626 413.55 253.239 413.209 253.932 413.209C255.074 413.209 256 414.135 256 415.277V420.895C256 422.037 255.074 422.963 253.932 422.964C253.148 422.964 252.467 422.527 252.116 421.885H250.604C250.571 421.959 250.536 422.033 250.495 422.104C250.106 422.778 249.387 423.193 248.609 423.193H243.465C242.623 423.193 241.815 422.858 241.22 422.262C240.886 421.928 240.441 421.732 239.973 421.704C239.658 422.444 238.924 422.964 238.068 422.964C236.926 422.963 236 422.037 236 420.895V415.277C236 414.135 236.926 413.209 238.068 413.209C238.851 413.209 239.531 413.643 239.883 414.284C240.385 414.277 240.864 414.077 241.22 413.721L241.408 413.533C241.883 413.058 242.528 412.792 243.199 412.792C243.544 412.792 243.823 413.071 243.823 413.416C243.823 413.76 243.544 414.039 243.199 414.04C242.859 414.04 242.532 414.175 242.291 414.416L242.103 414.604C241.573 415.133 240.876 415.455 240.137 415.52V420.463C240.876 420.528 241.573 420.851 242.103 421.381C242.464 421.742 242.954 421.945 243.465 421.945H248.609C248.941 421.945 249.249 421.768 249.415 421.48C249.604 421.153 249.575 420.743 249.344 420.445L247.52 418.094C247.308 417.822 247.358 417.431 247.63 417.219C247.902 417.008 248.294 417.058 248.505 417.33L250.33 419.679C250.552 419.965 250.693 420.295 250.753 420.637H251.863V415.3C251.653 415.285 251.422 415.266 251.194 415.241C250.922 415.21 250.642 415.172 250.398 415.124C250.181 415.081 249.908 415.015 249.709 414.9L248.681 414.306C248.378 414.132 248.035 414.04 247.686 414.04H246.48C245.952 414.04 245.446 414.249 245.072 414.623L243.597 416.098C243.428 416.267 243.428 416.542 243.597 416.711C243.766 416.879 244.04 416.879 244.209 416.711L245.89 415.029C246.133 414.785 246.529 414.785 246.772 415.029C247.016 415.273 247.016 415.668 246.772 415.912L245.092 417.592C244.435 418.249 243.371 418.249 242.715 417.592C242.059 416.936 242.058 415.872 242.715 415.215L244.19 413.74C244.798 413.133 245.622 412.792 246.48 412.792H247.686Z" fill="#0B5FFF" />
</svg>