<svg fill="none" height="20" viewBox="662.667 328 20 20" width="20" xmlns="http://www.w3.org/2000/svg">
	<path d="M680.654 341.418C681.041 341.032 681.666 341.032 682.053 341.418L682.279 341.645C682.665 342.031 682.665 342.657 682.279 343.043L678.803 346.521C678.416 346.907 677.79 346.907 677.403 346.521L675.553 344.669C675.167 344.283 675.167 343.656 675.553 343.27L675.778 343.043C676.165 342.657 676.791 342.657 677.178 343.043L678.104 343.969L680.654 341.418ZM672.56 328.208C675.291 328.208 677.506 330.423 677.506 333.155C677.506 335.887 675.291 338.101 672.56 338.101C669.828 338.101 667.613 335.887 667.613 333.155C667.613 330.423 669.828 328.209 672.56 328.208Z" fill="#0B5FFF" />
	<path d="M674.189 339.585C674.453 339.585 674.561 339.997 674.351 340.158C673.112 341.107 672.312 342.602 672.312 344.284C672.312 345.519 672.744 346.654 673.464 347.546C673.604 347.718 673.487 347.994 673.266 347.994H664.81C663.626 347.994 662.667 347.053 662.667 345.891V344.84C662.667 341.938 665.066 339.585 668.025 339.585H674.189Z" fill="#0B5FFF" />
</svg>