<svg fill="none" height="24" viewBox="0 0 24 24" width="24" xmlns="http://www.w3.org/2000/svg">
	<rect fill="#E7EFFF" height="24" rx="4" width="24" />
	<path d="M20 4V20H4V4H20Z" fill="white" fill-opacity="0.01" />
	<path d="M11.334 13.2192L10.1143 12.0005C9.85391 11.7401 9.43222 11.7401 9.17188 12.0005C8.91181 12.2609 8.91162 12.6826 9.17188 12.9429L11.5293 15.3003C11.7896 15.56 12.2115 15.5602 12.4717 15.3003L14.8291 12.9429C15.0891 12.6827 15.0889 12.2608 14.8291 12.0005C14.5688 11.7401 14.1461 11.7401 13.8857 12.0005L12.667 13.2192V7.3335H16.667C17.4031 7.33367 17.9998 7.93038 18 8.6665V17.3335C17.9999 18.0697 17.4032 18.6663 16.667 18.6665H7.33301C6.59683 18.6663 6.00009 18.0697 6 17.3335V8.6665C6.00018 7.93038 6.59689 7.33367 7.33301 7.3335H11.333V5.99951C11.3333 5.63155 11.632 5.3335 12 5.3335C12.368 5.3335 12.6667 5.63155 12.667 5.99951V7.3335H11.334V13.2192Z" fill="url(#paint0_linear_2000_19161)" />
	<defs>
		<linearGradient gradientUnits="userSpaceOnUse" id="paint0_linear_2000_19161" x1="8.63158" x2="17.2154" y1="17.432" y2="7.38201">
			<stop stop-color="#1514A4" />
			<stop offset="0.442308" stop-color="#0B5FFF" />
			<stop offset="1" stop-color="#0FFFFC" />
		</linearGradient>
	</defs>
</svg>