<svg fill="none" height="20" viewBox="236 488 20 20" width="20" xmlns="http://www.w3.org/2000/svg">
	<path d="M256 488V508H236V488H256Z" fill="white" fill-opacity="0.01" />
	<path d="M245.167 499.524L243.644 498.001C243.318 497.675 242.79 497.675 242.465 498.001C242.14 498.326 242.14 498.853 242.465 499.178L245.411 502.125C245.737 502.45 246.264 502.45 246.59 502.125L249.536 499.178C249.861 498.853 249.861 498.326 249.536 498.001C249.211 497.675 248.683 497.675 248.357 498.001L246.834 499.524V492.167H251.833C252.753 492.167 253.5 492.913 253.5 493.834V504.667C253.5 505.587 252.753 506.334 251.833 506.334H240.167C239.247 506.334 238.5 505.587 238.5 504.667V493.834C238.5 492.913 239.247 492.167 240.167 492.167H245.167V499.524ZM246 489.667C246.46 489.667 246.833 490.04 246.833 490.5V492.167H245.167V490.5C245.167 490.04 245.54 489.667 246 489.667Z" fill="#0B5FFF" />
</svg>