<svg fill="none" height="24" viewBox="0 0 24 24" width="24" xmlns="http://www.w3.org/2000/svg">
	<rect fill="#E7EFFF" height="24" rx="4" width="24" />
	<path d="M20 4V20H4V4H20Z" fill="white" fill-opacity="0.01" />
	<path clip-rule="evenodd" d="M6.66663 7.3335C6.66663 6.22893 7.56206 5.3335 8.66663 5.3335H16C16.7363 5.3335 17.3333 5.93045 17.3333 6.66683V15.3268C17.3333 15.4385 17.3081 15.5412 17.2581 15.6413L16.8944 16.3687C16.8005 16.5564 16.8005 16.7773 16.8944 16.965L17.2569 17.69C17.3057 17.7827 17.3333 17.8882 17.3333 18.0002C17.3333 18.3684 17.0348 18.6668 16.6666 18.6668H8.66663C7.56206 18.6668 6.66663 17.7714 6.66663 16.6668V7.3335ZM8.66663 16.0002H15.605C15.4526 16.4314 15.4526 16.9023 15.605 17.3335H8.66663C8.29844 17.3335 7.99996 17.035 7.99996 16.6668C7.99996 16.2986 8.29844 16.0002 8.66663 16.0002ZM10.6666 8.66683C10.2984 8.66683 9.99996 8.96531 9.99996 9.3335C9.99996 9.70169 10.2984 10.0002 10.6666 10.0002H13.3333C13.7015 10.0002 14 9.70169 14 9.3335C14 8.96531 13.7015 8.66683 13.3333 8.66683H10.6666Z" fill="url(#paint0_linear_2000_19193)" fill-rule="evenodd" />
	<defs>
		<linearGradient gradientUnits="userSpaceOnUse" id="paint0_linear_2000_19193" x1="9.00581" x2="17.6899" y1="17.4323" y2="8.39485">
			<stop stop-color="#1514A4" />
			<stop offset="0.442308" stop-color="#0B5FFF" />
			<stop offset="1" stop-color="#0FFFFC" />
		</linearGradient>
	</defs>
</svg>