<svg fill="none" viewBox="6 6 25 25" xmlns="http://www.w3.org/2000/svg">
	<path clip-rule="evenodd" d="M6.896 8.51048C6.896 7.57042 7.66782 6.80835 8.6199 6.80835H28.4448C29.3969 6.80835 30.1687 7.57042 30.1687 8.51048V28.0849C30.1687 29.025 29.3969 29.7871 28.4448 29.7871H8.6199C7.66782 29.7871 6.896 29.025 6.896 28.0849V8.51048ZM10.3438 10.6381C10.3438 10.4031 10.5368 10.2126 10.7748 10.2126H13.3606C13.5987 10.2126 13.7916 10.4031 13.7916 10.6381V13.1913C13.7916 13.4263 13.5987 13.6169 13.3606 13.6169H10.7748C10.5368 13.6169 10.3438 13.4263 10.3438 13.1913V10.6381ZM15.0845 10.2126C14.8465 10.2126 14.6536 10.4031 14.6536 10.6381V13.1913C14.6536 13.4263 14.8465 13.6169 15.0845 13.6169H17.6704C17.9084 13.6169 18.1014 13.4263 18.1014 13.1913V10.6381C18.1014 10.4031 17.9084 10.2126 17.6704 10.2126H15.0845ZM18.9633 10.6381C18.9633 10.4031 19.1563 10.2126 19.3943 10.2126H21.9802C22.2182 10.2126 22.4111 10.4031 22.4111 10.6381V13.1913C22.4111 13.4263 22.2182 13.6169 21.9802 13.6169H19.3943C19.1563 13.6169 18.9633 13.4263 18.9633 13.1913V10.6381ZM10.7748 14.4679C10.5368 14.4679 10.3438 14.6584 10.3438 14.8935V17.4466C10.3438 17.6817 10.5368 17.8722 10.7748 17.8722H13.3606C13.5987 17.8722 13.7916 17.6817 13.7916 17.4466V14.8935C13.7916 14.6584 13.5987 14.4679 13.3606 14.4679H10.7748ZM14.6536 14.8935C14.6536 14.6584 14.8465 14.4679 15.0845 14.4679H17.6704C17.9084 14.4679 18.1014 14.6584 18.1014 14.8935V17.4466C18.1014 17.6817 17.9084 17.8722 17.6704 17.8722H15.0845C14.8465 17.8722 14.6536 17.6817 14.6536 17.4466V14.8935ZM23.7041 14.4679C23.4661 14.4679 23.2731 14.6584 23.2731 14.8935V17.4466C23.2731 17.6817 23.4661 17.8722 23.7041 17.8722H26.2899C26.528 17.8722 26.7209 17.6817 26.7209 17.4466V14.8935C26.7209 14.6584 26.528 14.4679 26.2899 14.4679H23.7041ZM10.3438 19.1488C10.3438 18.9138 10.5368 18.7232 10.7748 18.7232H13.3606C13.5987 18.7232 13.7916 18.9138 13.7916 19.1488V21.702C13.7916 21.937 13.5987 22.1275 13.3606 22.1275H10.7748C10.5368 22.1275 10.3438 21.937 10.3438 21.702V19.1488ZM19.3943 18.7232C19.1563 18.7232 18.9633 18.9138 18.9633 19.1488V21.702C18.9633 21.937 19.1563 22.1275 19.3943 22.1275H21.9802C22.2182 22.1275 22.4111 21.937 22.4111 21.702V19.1488C22.4111 18.9138 22.2182 18.7232 21.9802 18.7232H19.3943ZM23.2731 19.1488C23.2731 18.9138 23.4661 18.7232 23.7041 18.7232H26.2899C26.528 18.7232 26.7209 18.9138 26.7209 19.1488V21.702C26.7209 21.937 26.528 22.1275 26.2899 22.1275H23.7041C23.4661 22.1275 23.2731 21.937 23.2731 21.702V19.1488ZM15.0845 22.9786C14.8465 22.9786 14.6536 23.1691 14.6536 23.4041V25.9573C14.6536 26.1923 14.8465 26.3828 15.0845 26.3828H17.6704C17.9084 26.3828 18.1014 26.1923 18.1014 25.9573V23.4041C18.1014 23.1691 17.9084 22.9786 17.6704 22.9786H15.0845ZM18.9633 23.4041C18.9633 23.1691 19.1563 22.9786 19.3943 22.9786H21.9802C22.2182 22.9786 22.4111 23.1691 22.4111 23.4041V25.9573C22.4111 26.1923 22.2182 26.3828 21.9802 26.3828H19.3943C19.1563 26.3828 18.9633 26.1923 18.9633 25.9573V23.4041ZM23.7041 22.9786C23.4661 22.9786 23.2731 23.1691 23.2731 23.4041V25.9573C23.2731 26.1923 23.4661 26.3828 23.7041 26.3828H26.2899C26.528 26.3828 26.7209 26.1923 26.7209 25.9573V23.4041C26.7209 23.1691 26.528 22.9786 26.2899 22.9786H23.7041Z" fill="#0B63CE" fill-rule="evenodd" />
</svg>