<svg fill="none" height="20" viewBox="152 92 20 20" width="20" xmlns="http://www.w3.org/2000/svg">
	<path d="M157.516 109C158.345 109 159.016 109.672 159.016 110.5C159.016 111.328 158.345 112 157.516 112C156.688 112 156.016 111.328 156.016 110.5C156.016 109.672 156.688 109 157.516 109ZM167.516 109C168.345 109 169.016 109.672 169.016 110.5C169.016 111.328 168.345 112 167.516 112C166.688 112 166.016 111.328 166.016 110.5C166.016 109.672 166.688 109 167.516 109ZM153.016 92C154.742 92 156.039 93.2829 156.162 95H169.818C171.066 95 172.009 96.1299 171.786 97.3575L170.149 106.357C169.976 107.308 169.149 108 168.182 108H156.948C155.899 108 155.028 107.189 154.953 106.143L154.152 94.9287C154.108 94.3112 153.581 94 153.016 94C152.464 94 152.016 93.5523 152.016 93C152.016 92.4478 152.464 92.0001 153.016 92Z" fill="#0B5FFF" />
</svg>