<svg fill="none" height="20" viewBox="236 568 20 20" width="20" xmlns="http://www.w3.org/2000/svg">
	<path d="M256 568V588H236V568H256Z" fill="white" fill-opacity="0.01" />
	<path d="M246.834 571.333C247.294 571.334 247.667 571.706 247.667 572.166C247.667 572.626 248.04 573 248.5 573C248.96 573 249.334 572.627 249.334 572.166C249.334 571.706 249.707 571.333 250.167 571.333H251.834C253.214 571.334 254.334 572.453 254.334 573.833V582.166C254.334 583.547 253.214 584.666 251.834 584.666H250.167C249.707 584.666 249.334 584.294 249.334 583.833C249.334 583.373 248.96 583 248.5 583C248.068 583 247.713 583.328 247.671 583.748L247.663 583.918C247.62 584.339 247.265 584.666 246.834 584.666H240.167C238.786 584.666 237.667 583.547 237.667 582.166V573.833C237.667 572.453 238.786 571.333 240.167 571.333H246.834ZM248.5 578.833C248.04 578.834 247.667 579.206 247.667 579.666V580.499C247.667 580.959 248.04 581.333 248.5 581.333C248.96 581.333 249.333 580.96 249.333 580.499V579.666C249.333 579.206 248.96 578.833 248.5 578.833ZM248.5 574.667C248.04 574.668 247.667 575.04 247.667 575.5V576.333C247.667 576.793 248.04 577.167 248.5 577.167C248.96 577.167 249.333 576.793 249.333 576.333V575.5C249.333 575.04 248.96 574.667 248.5 574.667Z" fill="#0B5FFF" />
</svg>