<svg fill="none" height="20" viewBox="472 92 20 20" width="20" xmlns="http://www.w3.org/2000/svg">
	<path d="M490.812 104.94C491.813 105.596 491.768 107.117 490.676 107.694L483 111.753C482.374 112.083 481.625 112.083 481 111.753L473.323 107.694C472.232 107.118 472.187 105.597 473.186 104.94C473.23 104.969 473.275 104.996 473.323 105.021L481 109.08C481.625 109.41 482.374 109.41 483 109.08L490.676 105.021C490.723 104.997 490.769 104.969 490.812 104.94ZM490.812 100.664C491.813 101.32 491.768 102.841 490.676 103.418L483 107.477C482.374 107.807 481.625 107.807 481 107.477L473.323 103.418C472.232 102.841 472.187 101.32 473.186 100.664C473.23 100.693 473.275 100.72 473.323 100.745L481 104.804C481.625 105.134 482.374 105.134 483 104.804L490.676 100.745C490.723 100.72 490.769 100.692 490.812 100.664ZM481 92.248C481.626 91.9176 482.374 91.9176 483 92.248L490.677 96.3066C491.816 96.9088 491.816 98.5395 490.677 99.1416L483 103.2C482.374 103.531 481.626 103.531 481 103.2L473.323 99.1416C472.184 98.5395 472.184 96.9088 473.323 96.3066L481 92.248Z" fill="#0B5FFF" />
</svg>