<svg fill="none" height="20" viewBox="1089.33 408 20 20" width="20" xmlns="http://www.w3.org/2000/svg">
	<path d="M1109.33 408V428H1089.33V408H1109.33Z" fill="white" fill-opacity="0.01" />
	<path d="M1103.5 409.667C1104.88 409.667 1106 410.787 1106 412.168V423.015C1106 424.037 1104.84 424.628 1104.01 424.027L1103.5 423.652V425.515C1103.5 426.537 1102.34 427.127 1101.51 426.526L1098.08 424.031L1094.65 426.526C1093.83 427.127 1092.67 426.537 1092.67 425.515V414.667C1092.67 413.372 1093.65 412.307 1094.91 412.179L1095.17 412.167C1095.17 410.786 1096.29 409.667 1097.67 409.667H1103.5ZM1097.67 411.334C1097.21 411.334 1096.83 411.707 1096.83 412.167H1101C1102.38 412.167 1103.5 413.286 1103.5 414.667V421.591L1104.33 422.197V412.168C1104.33 411.707 1103.96 411.334 1103.5 411.334H1097.67Z" fill="#0B5FFF" />
</svg>