<svg fill="none" height="24" viewBox="0 0 24 24" width="24" xmlns="http://www.w3.org/2000/svg">
	<rect fill="#E7EFFF" height="24" rx="4" width="24" />
	<path d="M20 4V20H4V4H20Z" fill="white" fill-opacity="0.01" />
	<path d="M15.3337 5.3335C16.438 5.33372 17.3335 6.22921 17.3337 7.3335V16.0122C17.3333 16.8288 16.4066 17.3013 15.7458 16.8218L15.3337 16.521V18.0122C15.3336 18.8294 14.4057 19.3015 13.7448 18.8208L10.9997 16.8247L8.25458 18.8208C7.59365 19.3013 6.66678 18.8294 6.66669 18.0122V9.3335C6.66669 8.29779 7.45383 7.44545 8.46259 7.34326L8.66669 7.3335C8.66686 6.22918 9.56238 5.33367 10.6667 5.3335H15.3337ZM10.6667 6.66748C10.2988 6.66766 10.0008 6.96556 10.0007 7.3335H13.3337C14.4381 7.33372 15.3337 8.22906 15.3337 9.3335V14.8716L16.0007 15.3569V7.3335C16.0005 6.96559 15.7016 6.6677 15.3337 6.66748H10.6667Z" fill="url(#paint0_linear_2000_19255)" />
	<defs>
		<linearGradient gradientUnits="userSpaceOnUse" id="paint0_linear_2000_19255" x1="9.00594" x2="17.9222" y1="17.7471" y2="8.70319">
			<stop stop-color="#1514A4" />
			<stop offset="0.442308" stop-color="#0B5FFF" />
			<stop offset="1" stop-color="#0FFFFC" />
		</linearGradient>
	</defs>
</svg>