<svg fill="none" height="24" viewBox="0 0 24 24" width="24" xmlns="http://www.w3.org/2000/svg">
	<rect fill="#E7EFFF" height="24" rx="4" width="24" />
	<path d="M11.9996 5C14.3193 5 16.1998 6.88055 16.1998 9.2002H16.9C17.6732 9.2002 18.3003 9.82651 18.3004 10.5996V17.5996C18.3004 18.3728 17.6732 19 16.9 19H7.10022C6.32704 19 5.69989 18.3728 5.69983 17.5996V10.5996C5.69996 9.82651 6.32709 9.2002 7.10022 9.2002H7.79944C7.79944 6.88065 9.68013 5.00017 11.9996 5ZM11.9996 12C11.2266 12.0002 10.6002 12.6273 10.6002 13.4004C10.6003 13.9181 10.8825 14.3682 11.3004 14.6104V15.5C11.3004 15.8866 11.614 16.2002 12.0006 16.2002C12.3869 16.1999 12.6998 15.8864 12.6998 15.5V14.6104C13.1176 14.3682 13.3999 13.918 13.4 13.4004C13.4 12.6274 12.7735 12.0004 12.0006 12H11.9996ZM11.9996 6.40039C10.4533 6.40056 9.19983 7.65387 9.19983 9.2002H14.8004C14.8004 7.65376 13.5461 6.40039 11.9996 6.40039Z" fill="url(#paint0_linear_2000_19285)" />
	<defs>
		<linearGradient gradientUnits="userSpaceOnUse" id="paint0_linear_2000_19285" x1="8.46311" x2="17.4763" y1="17.7037" y2="7.15079">
			<stop stop-color="#1514A4" />
			<stop offset="0.442308" stop-color="#0B5FFF" />
			<stop offset="1" stop-color="#0FFFFC" />
		</linearGradient>
	</defs>
</svg>