<svg fill="none" height="20" viewBox="1089.33 488 20 20" width="20" xmlns="http://www.w3.org/2000/svg">
	<path d="M1099.33 488C1102.65 488 1105.33 490.686 1105.33 494H1106.33C1107.44 494 1108.33 494.895 1108.33 496V506C1108.33 507.105 1107.44 508 1106.33 508H1092.33C1091.23 508 1090.33 507.105 1090.33 506V496C1090.33 494.895 1091.23 494 1092.33 494H1093.33C1093.33 490.686 1096.02 488 1099.33 488ZM1099.23 498.005C1098.17 498.061 1097.33 498.932 1097.33 500C1097.33 500.74 1097.74 501.384 1098.33 501.73V503C1098.33 503.552 1098.78 504 1099.33 504C1099.89 504 1100.33 503.552 1100.33 503V501.73C1100.93 501.384 1101.33 500.74 1101.33 500C1101.33 498.931 1100.49 498.06 1099.44 498.005C1099.44 498.005 1099.44 498.005 1099.44 498.005L1099.33 498C1099.3 498 1099.26 498.001 1099.23 498.005ZM1099.33 490C1097.12 490 1095.33 491.791 1095.33 494H1103.33C1103.33 491.791 1101.54 490 1099.33 490Z" fill="#0B5FFF" />
</svg>