<svg fill="none" height="20" viewBox="0 0 20 20" width="20" xmlns="http://www.w3.org/2000/svg">
	<g clip-path="url(#clip0_2950_1912)">
		<path d="M20 0V20H0V0H20Z" fill="white" fill-opacity="0.01" />
		<path clip-rule="evenodd" d="M5.00004 1.66669C4.07957 1.66669 3.33337 2.41288 3.33337 3.33335V16.6667C3.33337 17.5872 4.07957 18.3334 5.00004 18.3334H15C15.9205 18.3334 16.6667 17.5872 16.6667 16.6667V5.3452C16.6667 4.90317 16.4911 4.47925 16.1786 4.16669L14.1667 2.15484C13.8541 1.84228 13.4302 1.66669 12.9882 1.66669H5.00004ZM13.532 8.99421C13.8574 8.66877 13.8574 8.14113 13.532 7.8157C13.2066 7.49026 12.6789 7.49026 12.3535 7.8157L8.81794 11.3512L7.63943 10.1727C7.314 9.84728 6.78636 9.84728 6.46092 10.1727C6.13549 10.4982 6.13549 11.0258 6.46092 11.3512L8.16976 13.0601C8.52775 13.4181 9.10815 13.4181 9.46613 13.0601L13.532 8.99421Z" fill="#0B5FFF" fill-rule="evenodd" />
	</g>
	<defs>
		<clipPath id="clip0_2950_1912">
			<rect fill="white" height="20" width="20" />
		</clipPath>
	</defs>
</svg>