<svg fill="none" height="24" viewBox="0 0 24 24" width="24" xmlns="http://www.w3.org/2000/svg">
	<rect fill="#E7EFFF" height="24" rx="4" width="24" />
	<path d="M13.5023 5.13558C13.7746 4.93958 14.1588 4.84797 14.5365 4.98617C15.3462 5.28243 16.0889 5.71616 16.7367 6.25863C17.0446 6.51651 17.1578 6.89479 17.1244 7.22836C17.0687 7.78406 17.167 8.32058 17.434 8.78304C17.7011 9.24567 18.117 9.59933 18.6263 9.82894C18.9323 9.96696 19.2039 10.2538 19.2728 10.6502C19.3444 11.063 19.3812 11.4876 19.3812 11.9198C19.3812 12.352 19.3444 12.7765 19.2728 13.1893C19.204 13.5859 18.9324 13.8735 18.6263 14.0116C18.1169 14.2412 17.7011 14.5948 17.434 15.0575C17.167 15.5199 17.0687 16.0565 17.1244 16.6121C17.1577 16.9456 17.0445 17.3231 16.7367 17.5809C16.0888 18.1235 15.3463 18.558 14.5365 18.8543C14.1589 18.9925 13.7746 18.9008 13.5023 18.7049C13.0487 18.3784 12.5347 18.1943 12.0004 18.1942C11.4659 18.1942 10.9511 18.3783 10.4974 18.7049C10.2252 18.9008 9.84085 18.9925 9.46326 18.8543C8.65342 18.558 7.9109 18.1235 7.26306 17.5809C6.95529 17.3231 6.84206 16.9456 6.87537 16.6121C6.93101 16.0565 6.83279 15.5199 6.5658 15.0575C6.29867 14.5948 5.88279 14.2412 5.37341 14.0116C5.06743 13.8735 4.79571 13.5858 4.72693 13.1893C4.65534 12.7765 4.61853 12.352 4.61853 11.9198C4.61855 11.4875 4.65531 11.0631 4.72693 10.6502C4.79576 10.2539 5.06753 9.96702 5.37341 9.82894C5.88271 9.59935 6.29866 9.24559 6.5658 8.78304C6.83279 8.32059 6.93101 7.78402 6.87537 7.22836C6.84196 6.8948 6.9552 6.5165 7.26306 6.25863C7.91079 5.71615 8.65359 5.28245 9.46326 4.98617C9.84091 4.84799 10.2252 4.93966 10.4974 5.13558C10.9511 5.46216 11.4659 5.64535 12.0004 5.64535C12.5347 5.64526 13.0487 5.46208 13.5023 5.13558ZM12.0004 9.70589C10.7774 9.70589 9.78553 10.6977 9.78552 11.9207C9.78552 13.1437 10.7774 14.1356 12.0004 14.1356C13.2232 14.1354 14.2142 13.1436 14.2142 11.9207C14.2142 10.6979 13.2232 9.70611 12.0004 9.70589Z" fill="url(#paint0_linear_2000_19045)" />
	<defs>
		<linearGradient gradientUnits="userSpaceOnUse" id="paint0_linear_2000_19045" x1="7.85596" x2="16.5444" y1="17.6242" y2="5.70655">
			<stop stop-color="#1514A4" />
			<stop offset="0.442308" stop-color="#0B5FFF" />
			<stop offset="1" stop-color="#0FFFFC" />
		</linearGradient>
	</defs>
</svg>