<svg fill="none" height="20" viewBox="662.667 488 20 20" width="20" xmlns="http://www.w3.org/2000/svg">
	<path d="M681.577 502.577C682.208 501.949 682.562 501.096 682.562 500.206V499.961C682.562 499.006 682.182 498.09 681.505 497.416C680.985 496.898 680.323 496.555 679.611 496.424V495.549C679.611 493.684 678.868 491.896 677.545 490.578C676.223 489.26 674.431 488.521 672.562 488.521C670.694 488.521 668.902 489.26 667.58 490.578C666.257 491.896 665.514 493.684 665.514 495.549V496.424C664.802 496.555 664.14 496.898 663.62 497.416C662.943 498.09 662.562 499.006 662.562 499.961V500.206C662.562 501.096 662.917 501.949 663.548 502.577C664.178 503.205 665.032 503.558 665.922 503.558C666.42 503.558 666.899 503.36 667.252 503.008C667.606 502.655 667.806 502.177 667.806 501.677V495.549C667.806 494.294 668.306 493.09 669.197 492.201C670.089 491.313 671.3 490.812 672.562 490.812C673.825 490.812 675.036 491.313 675.928 492.201C676.819 493.09 677.319 494.294 677.319 495.549V501.431L677.318 501.535C677.279 503.019 676.412 504.177 675.269 504.764C675.263 504.757 675.257 504.75 675.251 504.744L675.195 504.685L675.136 504.629C674.835 504.358 674.444 504.207 674.038 504.207H673.054C672.648 504.207 672.257 504.358 671.957 504.629L671.898 504.685C671.609 504.972 671.439 505.356 671.419 505.762L671.417 505.843L671.419 505.924C671.439 506.33 671.609 506.714 671.898 507.001C672.205 507.308 672.621 507.479 673.054 507.479H674.038C674.226 507.479 674.411 507.447 674.586 507.385C676.596 507.022 678.461 505.63 679.234 503.557C680.113 503.549 680.954 503.198 681.577 502.577Z" fill="#0B5FFF" />
</svg>