<svg fill="none" height="36" viewBox="0 0 37 36" width="37" xmlns="http://www.w3.org/2000/svg">
	<path d="M30.5414 9V27H18.1664V9H30.5414Z" fill="white" opacity="0.2" />
	<path d="M31.6664 18C31.6664 18.2984 31.5479 18.5845 31.3369 18.7955C31.1259 19.0065 30.8398 19.125 30.5414 19.125H18.1664C17.868 19.125 17.5819 19.0065 17.3709 18.7955C17.1599 18.5845 17.0414 18.2984 17.0414 18C17.0414 17.7016 17.1599 17.4155 17.3709 17.2045C17.5819 16.9935 17.868 16.875 18.1664 16.875H30.5414C30.8398 16.875 31.1259 16.9935 31.3369 17.2045C31.5479 17.4155 31.6664 17.7016 31.6664 18ZM18.1664 10.125H30.5414C30.8398 10.125 31.1259 10.0065 31.3369 9.79551C31.5479 9.58453 31.6664 9.29838 31.6664 9.00002C31.6664 8.70165 31.5479 8.4155 31.3369 8.20452C31.1259 7.99354 30.8398 7.87502 30.5414 7.87502H18.1664C17.868 7.87502 17.5819 7.99354 17.3709 8.20452C17.1599 8.4155 17.0414 8.70165 17.0414 9.00002C17.0414 9.29838 17.1599 9.58453 17.3709 9.79551C17.5819 10.0065 17.868 10.125 18.1664 10.125ZM30.5414 25.875H18.1664C17.868 25.875 17.5819 25.9935 17.3709 26.2045C17.1599 26.4155 17.0414 26.7016 17.0414 27C17.0414 27.2984 17.1599 27.5845 17.3709 27.7955C17.5819 28.0065 17.868 28.125 18.1664 28.125H30.5414C30.8398 28.125 31.1259 28.0065 31.3369 27.7955C31.5479 27.5845 31.6664 27.2984 31.6664 27C31.6664 26.7016 31.5479 26.4155 31.3369 26.2045C31.1259 25.9935 30.8398 25.875 30.5414 25.875ZM11.7455 5.95408L8.0414 9.65955L6.58733 8.20408C6.37624 7.99298 6.08993 7.87439 5.7914 7.87439C5.49286 7.87439 5.20656 7.99298 4.99546 8.20408C4.78436 8.41517 4.66577 8.70148 4.66577 9.00002C4.66577 9.29855 4.78436 9.58486 4.99546 9.79595L7.24546 12.046C7.34994 12.1506 7.47402 12.2335 7.61059 12.2901C7.74716 12.3468 7.89355 12.3759 8.0414 12.3759C8.18924 12.3759 8.33563 12.3468 8.4722 12.2901C8.60878 12.2335 8.73285 12.1506 8.83733 12.046L13.3373 7.54595C13.5484 7.33486 13.667 7.04855 13.667 6.75002C13.667 6.45148 13.5484 6.16517 13.3373 5.95408C13.1262 5.74298 12.8399 5.62439 12.5414 5.62439C12.2429 5.62439 11.9566 5.74298 11.7455 5.95408ZM11.7455 14.9541L8.0414 18.6595L6.58733 17.2041C6.37624 16.993 6.08993 16.8744 5.7914 16.8744C5.49286 16.8744 5.20656 16.993 4.99546 17.2041C4.78436 17.4152 4.66577 17.7015 4.66577 18C4.66577 18.1478 4.69489 18.2942 4.75145 18.4308C4.80802 18.5673 4.89094 18.6914 4.99546 18.796L7.24546 21.046C7.34994 21.1506 7.47402 21.2335 7.61059 21.2901C7.74716 21.3468 7.89355 21.3759 8.0414 21.3759C8.18924 21.3759 8.33563 21.3468 8.4722 21.2901C8.60878 21.2335 8.73285 21.1506 8.83733 21.046L13.3373 16.546C13.5484 16.3349 13.667 16.0485 13.667 15.75C13.667 15.4515 13.5484 15.1652 13.3373 14.9541C13.1262 14.743 12.8399 14.6244 12.5414 14.6244C12.2429 14.6244 11.9566 14.743 11.7455 14.9541ZM11.7455 23.9541L8.0414 27.6595L6.58733 26.2041C6.48281 26.0996 6.35872 26.0166 6.22216 25.9601C6.08559 25.9035 5.93922 25.8744 5.7914 25.8744C5.64358 25.8744 5.49721 25.9035 5.36064 25.9601C5.22407 26.0166 5.09998 26.0996 4.99546 26.2041C4.89094 26.3086 4.80802 26.4327 4.75145 26.5693C4.69489 26.7058 4.66577 26.8522 4.66577 27C4.66577 27.1478 4.69489 27.2942 4.75145 27.4308C4.80802 27.5673 4.89094 27.6914 4.99546 27.796L7.24546 30.046C7.34994 30.1506 7.47402 30.2335 7.61059 30.2901C7.74716 30.3468 7.89355 30.3759 8.0414 30.3759C8.18924 30.3759 8.33563 30.3468 8.4722 30.2901C8.60878 30.2335 8.73285 30.1506 8.83733 30.046L13.3373 25.546C13.5484 25.3349 13.667 25.0486 13.667 24.75C13.667 24.4515 13.5484 24.1652 13.3373 23.9541C13.1262 23.743 12.8399 23.6244 12.5414 23.6244C12.2429 23.6244 11.9566 23.743 11.7455 23.9541Z" fill="white" />
</svg>