<!-- @generated by scripts/buildSpritemap.mjs --><svg xmlns="http://www.w3.org/2000/svg" style="display: none"><symbol id="check-circle-full" viewBox="0 0 512 512">		<path class="lexicon-icon-outline" d="M471.2,117.7L280.3,340.8c-5.9,6.8-14.6,11.2-24.3,11.2c-8.8,0-16.8-3.6-22.6-9.4l-96-96.1 c-29.1-28.9,16.1-74.2,45.2-45.3l71.6,71.7L423.7,74.8c2.2-2.5,4.7-3.9,7.1-5.5C385,26.5,323.7,0,256,0C114.6,0,0,114.6,0,256 s114.6,256,256,256s256-114.6,256-256C512,205,496.9,157.6,471.2,117.7z" />	</symbol><symbol id="comments" viewBox="0 0 16 16">		<path d="M14 .002H2c-1.103 0-2 .897-2 2v9c0 1.103.897 2 2 2h1.584l-1.28 1.282a1.002 1.002 0 0 0 .705 1.709.986.986 0 0 0 .707-.294l2.696-2.697H14c1.103 0 2-.897 2-2v-9c0-1.103-.897-2-2-2Zm0 11H2v-9h12v9Z" />		<path d="M12 3.502H4a.999.999 0 1 0 0 2h8a.999.999 0 1 0 0-2Zm-3.857 3.5H3.857c-.474 0-.857.447-.857 1 0 .553.383 1 .857 1h4.286c.474 0 .857-.447.857-1 0-.553-.383-1-.857-1Z" />	</symbol><symbol id="exclamation-full" viewBox="0 0 16 16">		<path class="lexicon-icon-outline" clip-rule="evenodd" d="M2.344 13.66A7.942 7.942 0 0 0 8 16.005a7.937 7.937 0 0 0 5.656-2.344A7.943 7.943 0 0 0 16 8.005a7.938 7.938 0 0 0-2.344-5.656A7.937 7.937 0 0 0 8 .004a7.936 7.936 0 0 0-5.656 2.344A7.938 7.938 0 0 0 0 8.004c0 2.138.831 4.147 2.344 5.657ZM7 4.005c0-.553.446-1 1-1s1 .447 1 1v5c0 .553-.446 1-1 1s-1-.447-1-1v-5Zm2 8c0-.553-.446-1-1-1s-1 .447-1 1c0 .553.446 1 1 1s1-.447 1-1Z" fill-rule="evenodd" />	</symbol><symbol id="magic" viewBox="0 0 16 16">		<path class="lexicon-icon-outline" d="M9.47 1.96a.655.655 0 0 0 1.307.001c.36 0 .654-.294.654-.654a.656.656 0 0 0-.654-.653.655.655 0 0 0-.653-.654.656.656 0 0 0-.654.657.653.653 0 1 0 0 1.304Zm4.682 1.199-.19-.191-.185.19a.649.649 0 0 1-.464.191.648.648 0 0 1-.462-.19.648.648 0 0 1 0-.923l.19-.19-.19-.191a.648.648 0 0 1 0-.923.65.65 0 0 1 .923 0l.19.19.19-.19a.65.65 0 0 1 .923 0 .648.648 0 0 1 0 .923l-.19.19.19.191a.648.648 0 0 1 0 .923.648.648 0 0 1-.462.19.649.649 0 0 1-.463-.19Z" />		<path class="lexicon-icon-outline" clip-rule="evenodd" d="M10.474 3.568a1.94 1.94 0 0 0-1.385.576L.572 12.66a1.936 1.936 0 0 0-.571 1.426A1.954 1.954 0 0 0 1.959 16c.521 0 1.016-.203 1.384-.575l8.517-8.516a1.963 1.963 0 0 0 0-2.771c-.37-.366-.86-.57-1.386-.57Zm.462 2.421L9.465 7.458l-.923-.923 1.469-1.469a.655.655 0 0 1 .925.923Z" fill-rule="evenodd" />		<path class="lexicon-icon-outline" d="M14.693 5.226c.36 0 .653.294.653.654a.653.653 0 1 1 0 1.307c0 .36-.293.653-.653.653a.656.656 0 0 1-.654-.653.655.655 0 0 1-.653-.654c0-.36.294-.653.653-.653 0-.36.295-.654.654-.654Z" />	</symbol><symbol id="order-arrow-right" viewBox="0 0 512 512">		<path class="lexicon-icon-outline" d="M367.9,350.3l71.6-71.6c10.8-11.9,11.2-32.9,0-45.8l-71.6-71.6c-33.6-29.8-74.9,15.8-45.8,45.8l16.7,16.7H96c-42.5,0-42.5,64,0,64h242.8l-16.7,16.7C292.2,336.3,337,380,367.9,350.3z" />	</symbol><symbol id="stars" viewBox="0 0 512 512">		<path class="lexicon-icon-outline" d="M352 96a19.518 19.518 0 0 0-19.138 15.689l-16.678 83.392a32 32 0 0 1-25.103 25.103l-83.392 16.678a19.518 19.518 0 0 0 0 38.276l83.392 16.678a32 32 0 0 1 25.103 25.103l16.678 83.392a19.518 19.518 0 0 0 38.276 0l16.678-83.392a32 32 0 0 1 25.103-25.103l83.392-16.678a19.518 19.518 0 0 0 0-38.276l-83.392-16.678a32 32 0 0 1-25.103-25.103l-16.678-83.392A19.518 19.518 0 0 0 352 96ZM96 0c-9.233 0-17.112 6.675-18.63 15.782l-5.04 30.243A32 32 0 0 1 46.024 72.33l-30.243 5.04C6.675 78.889 0 86.768 0 96s6.675 17.113 15.782 18.63l30.243 5.041a32 32 0 0 1 26.304 26.304l5.04 30.243C78.889 185.325 86.768 192 96 192s17.113-6.675 18.63-15.782l5.041-30.243a32.001 32.001 0 0 1 26.304-26.304l30.243-5.041C185.325 113.112 192 105.233 192 96c0-9.233-6.675-17.112-15.782-18.63l-30.243-5.04a32 32 0 0 1-26.304-26.305l-5.041-30.243C113.113 6.675 105.233 0 96 0Zm44.119 399.522c-3.877 15.511-13.422 24.804-28.597 28.597-20.185 5.047-20.185 34.715 0 39.762 15.175 3.793 24.72 13.086 28.597 28.597 5.047 20.185 34.715 20.185 39.762 0 3.793-15.175 13.086-24.72 28.597-28.597 20.185-5.047 20.185-34.715 0-39.762-15.175-3.793-24.72-13.086-28.597-28.597-5.047-20.185-34.715-20.185-39.762 0Z" />	</symbol><symbol id="thumbs-down" viewBox="0 0 16 16">		<path class="lexicon-icon-outline" d="M0 8.638c-.004 2.442 1.997 2.327 1.997 2.327l3.382.006c-1.45 3.32-.097 4.458.679 4.788 3.96 1.678 3.661-5.785 6.943-5.785V1.005a1 1 0 0 0-1-1H6.255c-3.01 0-6.256.997-6.256 8.633Zm6.286-6.64H11v6.976c-1.1 0-3 5.383-4 4.991-.63-.246-.22-1.59 1.07-3.99.43-.8-.57-.998-1.07-.999l-3.984-.001a.97.97 0 0 1-.98-1.002C2.25 2.884 4.134 2 6.286 2Zm9.713 6.979V1.002c0-1.327-2-1.327-2 0v7.975c.002 1.355 2 1.302 2 0Z" />	</symbol><symbol id="thumbs-up" viewBox="0 0 16 16">		<path class="lexicon-icon-outline" d="M16 7.372c.002-2.442-1.998-2.327-1.998-2.327l-3.383-.006c1.45-3.32.097-4.458-.678-4.788-3.96-1.678-3.662 5.785-6.944 5.785v8.969a1 1 0 0 0 1 1h5.747c3.009 0 6.255-.997 6.255-8.633Zm-6.288 6.64H4.998V7.035C6.1 7.036 8 1.653 9 2.045c.63.246.22 1.59-1.07 3.99-.43.8.57.998 1.07.999l3.984.001a.97.97 0 0 1 .98 1.002c-.214 5.089-2.098 5.974-4.25 5.974ZM0 7.033v7.975c0 1.327 2 1.327 2 0V7.033c-.003-1.355-2-1.302-2 0Z" />	</symbol><symbol id="times" viewBox="0 0 512 512">		<path class="lexicon-icon-outline" d="M300.4,256L467,89.4c29.6-29.6-14.8-74.1-44.4-44.4L256,211.6L89.4,45C59.8,15.3,15.3,59.8,45,89.4L211.6,256L45,422.6 c-29.7,29.7,14.7,74.1,44.4,44.4L256,300.4L422.6,467c29.7,29.7,74.1-14.7,44.4-44.4L300.4,256z" />	</symbol></svg>