<svg fill="none" height="87" viewBox="0 0 137 87" width="137" xmlns="http://www.w3.org/2000/svg">
	<mask height="57" id="mask0_8803_27973" maskUnits="userSpaceOnUse" style="mask-type:alpha" width="43" x="47" y="8">
		<path clip-rule="evenodd" d="M76.5156 8H52.4688C49.5151 8 47.125 10.3901 47.125 13.3438V59.6562C47.125 62.6099 49.5151 65 52.4688 65H84.5313C87.4849 65 89.875 62.6099 89.875 59.6562V21.3594L76.5156 8ZM82.75 34.7188C82.75 35.7025 81.9525 36.5 80.9688 36.5H56.0312C55.0475 36.5 54.25 35.7025 54.25 34.7188C54.25 33.735 55.0475 32.9375 56.0312 32.9375H80.9688C81.9525 32.9375 82.75 33.735 82.75 34.7188ZM80.9688 40.0625H56.0312C55.0475 40.0625 54.25 40.86 54.25 41.8438C54.25 42.8275 55.0475 43.625 56.0312 43.625H80.9688C81.9525 43.625 82.75 42.8275 82.75 41.8438C82.75 40.86 81.9525 40.0625 80.9688 40.0625ZM56.0312 47.1875H66.7188C67.7025 47.1875 68.5 47.985 68.5 48.9688C68.5 49.9525 67.7025 50.75 66.7188 50.75H56.0312C55.0475 50.75 54.25 49.9525 54.25 48.9688C54.25 47.985 55.0475 47.1875 56.0312 47.1875Z" fill="black" fill-rule="evenodd" />
	</mask>
	<g mask="url(#mask0_8803_27973)">
		<rect fill="#80ACFF" height="57" width="57" x="40" y="8" />
	</g>
	<path d="M66.6001 63.2C66.6001 54.8053 73.4054 48 81.8001 48C90.1948 48 97.0001 54.8053 97.0001 63.2C97.0001 71.5947 90.1948 78.4 81.8001 78.4C73.4054 78.4 66.6001 71.5947 66.6001 63.2Z" fill="#0B5FFF" />
	<mask height="16" id="mask1_8803_27973" maskUnits="userSpaceOnUse" style="mask-type:alpha" width="12" x="76" y="55">
		<path clip-rule="evenodd" d="M81.1196 55.8946C81.5111 55.5148 82.0371 55.4941 82.4787 55.8946L84.6051 58.0187C85.5189 58.974 84.0763 60.2407 83.245 59.3774L82.7496 58.882V66.0553C82.7496 67.3013 80.8496 67.3102 80.8496 66.0553V58.882L80.3533 59.3774C79.3142 60.3089 78.1388 58.8078 78.9941 58.0187L81.1196 55.8946ZM85.5996 68.9033V67.0046C85.5996 65.7497 87.4996 65.7587 87.4996 67.0046V68.2686C87.4996 69.6677 86.3654 70.8019 84.9663 70.8019H78.6329C77.2338 70.8019 76.0996 69.6677 76.0996 68.2686V67.0046C76.0996 65.7675 77.9996 65.729 77.9996 67.0046V68.9033H85.5996Z" fill="black" fill-rule="evenodd" />
	</mask>
	<g mask="url(#mask1_8803_27973)">
		<rect fill="white" height="15.2" width="15.2" x="74.2002" y="55.6" />
	</g>
</svg>