<svg fill="none" height="48" viewBox="0 0 48 48" width="48" xmlns="http://www.w3.org/2000/svg">
	<path d="M12.1701 21.4802C12.7801 13.7702 20.5801 10.9002 25.7401 14.6102C26.4301 15.1002 27.1001 15.7102 27.5601 16.4102C28.1301 17.2902 28.6701 17.5502 29.7601 17.3402C33.4501 16.6502 37.1301 19.3402 37.7401 23.0502C37.8001 23.4202 37.8301 23.7902 37.8801 24.2102C38.5501 24.3102 39.1701 24.3402 39.7501 24.5002C42.4601 25.2302 44.2901 27.9002 43.9601 30.5602C43.5901 33.5702 41.3201 35.6502 38.2201 35.6902C33.9201 35.7402 29.6101 35.7002 25.3101 35.7102C20.7701 35.7102 16.2301 35.7302 11.6801 35.7102C7.66013 35.6802 4.76013 33.4202 4.12013 29.8502C3.33013 25.5002 6.53013 21.6002 10.9701 21.4902C11.3501 21.4902 11.7201 21.4902 12.1701 21.4902V21.4802Z" stroke="#0B5FFF" stroke-linejoin="round" stroke-width="2" />
</svg>