<svg fill="none" height="40" viewBox="0 0 41 40" width="41" xmlns="http://www.w3.org/2000/svg">
	<path d="M3.66602 10.5332H36.9993" stroke="#0B5FFF" stroke-linecap="round" stroke-linejoin="round" stroke-width="1.66667" />
	<path d="M35.7743 5H4.89102C4.21447 5 3.66602 5.54845 3.66602 6.225V34.2083C3.66602 34.8849 4.21447 35.4333 4.89102 35.4333H35.7743C36.4509 35.4333 36.9993 34.8849 36.9993 34.2083V6.225C36.9993 5.54845 36.4509 5 35.7743 5Z" stroke="#0B5FFF" stroke-linecap="round" stroke-linejoin="round" stroke-width="1.66667" />
	<path d="M7.26621 8.6918C7.76327 8.6918 8.16621 8.27766 8.16621 7.7668C8.16621 7.25593 7.76327 6.8418 7.26621 6.8418C6.76915 6.8418 6.36621 7.25593 6.36621 7.7668C6.36621 8.27766 6.76915 8.6918 7.26621 8.6918Z" fill="#0B5FFF" />
	<path d="M9.97422 8.6918C10.4713 8.6918 10.8742 8.27766 10.8742 7.7668C10.8742 7.25593 10.4713 6.8418 9.97422 6.8418C9.47716 6.8418 9.07422 7.25593 9.07422 7.7668C9.07422 8.27766 9.47716 8.6918 9.97422 8.6918Z" fill="#0B5FFF" />
	<path d="M12.6744 8.6918C13.1715 8.6918 13.5744 8.27766 13.5744 7.7668C13.5744 7.25593 13.1715 6.8418 12.6744 6.8418C12.1774 6.8418 11.7744 7.25593 11.7744 7.7668C11.7744 8.27766 12.1774 8.6918 12.6744 8.6918Z" fill="#0B5FFF" />
	<path d="M32.0327 19.0156H17.4494C16.8695 19.0156 16.3994 19.4857 16.3994 20.0656V24.4906C16.3994 25.0705 16.8695 25.5406 17.4494 25.5406H32.0327C32.6126 25.5406 33.0827 25.0705 33.0827 24.4906V20.0656C33.0827 19.4857 32.6126 19.0156 32.0327 19.0156Z" fill="#0B5FFF" />
	<path d="M6.94922 31.4258H30.3742" stroke="#0B5FFF" stroke-linecap="round" stroke-linejoin="round" stroke-width="1.66667" />
	<path d="M6.94922 28.125H33.0826" stroke="#0B5FFF" stroke-linecap="round" stroke-linejoin="round" stroke-width="1.66667" />
	<path d="M23.7576 14.166H7.92422C7.38574 14.166 6.94922 14.6025 6.94922 15.141V22.0993C6.94922 22.6378 7.38574 23.0743 7.92422 23.0743H23.7576C24.296 23.0743 24.7326 22.6378 24.7326 22.0993V15.141C24.7326 14.6025 24.296 14.166 23.7576 14.166Z" stroke="#0B5FFF" stroke-linecap="round" stroke-linejoin="round" stroke-width="1.66667" />
</svg>