<svg fill="none" height="48" viewBox="0 0 49 48" width="49" xmlns="http://www.w3.org/2000/svg">
	<path d="M4.55273 23.0996H39.5727" stroke="#0B5FFF" stroke-width="2" />
	<path d="M37.963 17.3906H5.94301C5.05383 17.3906 4.33301 18.1114 4.33301 19.0006V43.3406C4.33301 44.2298 5.05383 44.9506 5.94301 44.9506H37.963C38.8522 44.9506 39.573 44.2298 39.573 43.3406V19.0006C39.573 18.1114 38.8522 17.3906 37.963 17.3906Z" stroke="#0B5FFF" stroke-width="2" />
	<path d="M37.6328 31.5599H10.7028C9.82277 31.5599 9.09277 30.8399 9.09277 29.9499V24.9199" stroke="#0B5FFF" stroke-width="2" />
	<path d="M9.09277 15.6V5.61C9.09277 4.73 9.81277 4 10.7028 4H42.7228C43.6028 4 44.3328 4.72 44.3328 5.61V29.96C44.3328 30.84 43.6128 31.57 42.7228 31.57H41.3728" stroke="#0B5FFF" stroke-width="2" />
	<path d="M8.14336 21.2008C8.66803 21.2008 9.09336 20.7755 9.09336 20.2508C9.09336 19.7261 8.66803 19.3008 8.14336 19.3008C7.61869 19.3008 7.19336 19.7261 7.19336 20.2508C7.19336 20.7755 7.61869 21.2008 8.14336 21.2008Z" fill="#0B5FFF" />
	<path d="M11.0027 21.2008C11.5274 21.2008 11.9527 20.7755 11.9527 20.2508C11.9527 19.7261 11.5274 19.3008 11.0027 19.3008C10.4781 19.3008 10.0527 19.7261 10.0527 20.2508C10.0527 20.7755 10.4781 21.2008 11.0027 21.2008Z" fill="#0B5FFF" />
	<path d="M13.8533 21.2008C14.378 21.2008 14.8033 20.7755 14.8033 20.2508C14.8033 19.7261 14.378 19.3008 13.8533 19.3008C13.3287 19.3008 12.9033 19.7261 12.9033 20.2508C12.9033 20.7755 13.3287 21.2008 13.8533 21.2008Z" fill="#0B5FFF" />
	<path d="M9.24316 9.71094H44.3332" stroke="#0B5FFF" stroke-width="2" />
	<path d="M12.9031 7.81016C13.4278 7.81016 13.8531 7.38483 13.8531 6.86016C13.8531 6.33549 13.4278 5.91016 12.9031 5.91016C12.3785 5.91016 11.9531 6.33549 11.9531 6.86016C11.9531 7.38483 12.3785 7.81016 12.9031 7.81016Z" fill="#0B5FFF" />
	<path d="M15.7635 7.81016C16.2881 7.81016 16.7135 7.38483 16.7135 6.86016C16.7135 6.33549 16.2881 5.91016 15.7635 5.91016C15.2388 5.91016 14.8135 6.33549 14.8135 6.86016C14.8135 7.38483 15.2388 7.81016 15.7635 7.81016Z" fill="#0B5FFF" />
	<path d="M18.6229 7.81016C19.1475 7.81016 19.5729 7.38483 19.5729 6.86016C19.5729 6.33549 19.1475 5.91016 18.6229 5.91016C18.0982 5.91016 17.6729 6.33549 17.6729 6.86016C17.6729 7.38483 18.0982 7.81016 18.6229 7.81016Z" fill="#0B5FFF" />
</svg>