<svg fill="none" height="40" viewBox="0 0 40 40" width="40" xmlns="http://www.w3.org/2000/svg">
	<path d="M33.033 28.7581H12.5913L6.96634 2.69141H0.833008" stroke="#0B5FFF" stroke-linecap="round" stroke-linejoin="round" stroke-width="1.66667" />
	<path d="M11.5667 22.6253H35.075L39.1667 8.30859H8.5" stroke="#0B5FFF" stroke-linejoin="round" stroke-width="1.66667" />
	<path d="M15.6585 37.3091C17.3521 37.3091 18.7251 35.9361 18.7251 34.2424C18.7251 32.5488 17.3521 31.1758 15.6585 31.1758C13.9648 31.1758 12.5918 32.5488 12.5918 34.2424C12.5918 35.9361 13.9648 37.3091 15.6585 37.3091Z" fill="#0B5FFF" stroke="#0B5FFF" stroke-width="1.66667" />
	<path d="M29.9671 37.3091C31.6607 37.3091 33.0337 35.9361 33.0337 34.2424C33.0337 32.5488 31.6607 31.1758 29.9671 31.1758C28.2734 31.1758 26.9004 32.5488 26.9004 34.2424C26.9004 35.9361 28.2734 37.3091 29.9671 37.3091Z" fill="#0B5FFF" stroke="#0B5FFF" stroke-width="1.66667" />
	<path d="M13.4167 19.5915C13.499 19.9758 13.8385 20.2503 14.2315 20.2503H32.2792C32.6513 20.2503 32.9783 20.0036 33.0805 19.6459L35.3376 11.7459C35.4897 11.2135 35.09 10.6836 34.5364 10.6836H12.5386C12.0081 10.6836 11.6126 11.1728 11.7238 11.6915L13.4167 19.5915Z" fill="#0B5FFF" />
</svg>