<svg fill="none" height="40" viewBox="0 0 40 40" width="40" xmlns="http://www.w3.org/2000/svg">
	<path d="M15.4579 36.6661V32.1911C15.4579 32.1911 15.4245 32.1245 15.3912 32.1245H12.4995C10.7995 32.1245 9.39954 30.7328 9.39954 29.0245V24.5495L6.36621 23.0328L9.39121 16.9828C9.39121 16.9828 9.39121 16.9661 9.39121 16.9495V15.9745C9.39121 9.49947 14.2412 3.77447 20.7079 3.34947C24.3745 3.11614 27.7162 4.51614 30.0912 6.86614C32.2745 9.06614 33.6329 12.0911 33.6329 15.4411C33.6329 19.8661 31.9079 23.8995 29.0912 26.8828V36.6578" stroke="#0B5FFF" stroke-linecap="round" stroke-linejoin="round" stroke-width="1.66667" />
	<path d="M21.5163 21.5091C24.0246 21.5091 26.0579 19.4757 26.0579 16.9674C26.0579 14.4592 24.0246 12.4258 21.5163 12.4258C19.008 12.4258 16.9746 14.4592 16.9746 16.9674C16.9746 19.4757 19.008 21.5091 21.5163 21.5091Z" stroke="#0B5FFF" stroke-linecap="round" stroke-linejoin="round" stroke-width="1.66667" />
	<path d="M21.5166 10.9082V12.4249" stroke="#0B5FFF" stroke-linecap="round" stroke-linejoin="round" stroke-width="1.66667" />
	<path d="M21.5166 23.0342V21.5176" stroke="#0B5FFF" stroke-linecap="round" stroke-linejoin="round" stroke-width="1.66667" />
	<path d="M16.2666 13.9414L17.5749 14.6997" stroke="#0B5FFF" stroke-linecap="round" stroke-linejoin="round" stroke-width="1.66667" />
	<path d="M26.7669 20.0005L25.4502 19.2422" stroke="#0B5FFF" stroke-linecap="round" stroke-linejoin="round" stroke-width="1.66667" />
	<path d="M26.7669 13.9414L25.4502 14.6997" stroke="#0B5FFF" stroke-linecap="round" stroke-linejoin="round" stroke-width="1.66667" />
	<path d="M16.2666 20.0005L17.5749 19.2422" stroke="#0B5FFF" stroke-linecap="round" stroke-linejoin="round" stroke-width="1.66667" />
</svg>