<svg fill="none" height="40" viewBox="0 0 41 40" width="41" xmlns="http://www.w3.org/2000/svg">
	<path d="M29.6988 21.6741L28.1655 21.2908C28.0072 21.2491 27.8905 21.1324 27.8488 20.9741C27.6822 20.3824 27.4488 19.8241 27.1572 19.2991C27.0822 19.1574 27.0738 18.9908 27.1572 18.8491L27.9655 17.4908C28.0738 17.3158 28.0405 17.0908 27.8988 16.9408L27.4655 16.5074L27.0155 16.0574L26.5822 15.6241C26.4405 15.4824 26.2155 15.4491 26.0322 15.5574L24.6738 16.3658C24.5322 16.4491 24.3655 16.4491 24.2238 16.3658C23.6988 16.0741 23.1405 15.8408 22.5488 15.6741C22.3905 15.6324 22.2738 15.5074 22.2322 15.3574L21.8488 13.8241C21.7988 13.6241 21.6238 13.4824 21.4155 13.4824H19.5488C19.3405 13.4824 19.1655 13.6241 19.1155 13.8241L18.7322 15.3574C18.6905 15.5158 18.5738 15.6324 18.4155 15.6741C17.8238 15.8408 17.2655 16.0741 16.7405 16.3658C16.5988 16.4408 16.4322 16.4491 16.2905 16.3658L14.9322 15.5574C14.7572 15.4491 14.5322 15.4824 14.3822 15.6241L13.9488 16.0574L13.4988 16.5074L13.0655 16.9408C12.9238 17.0824 12.8905 17.3074 12.9988 17.4908L13.8072 18.8491C13.8905 18.9908 13.8905 19.1574 13.8072 19.2991C13.5155 19.8241 13.2822 20.3824 13.1155 20.9741C13.0738 21.1324 12.9488 21.2491 12.7988 21.2908L11.2655 21.6741C11.0655 21.7241 10.9238 21.8991 10.9238 22.1074V23.9741C10.9238 24.1824 11.0655 24.3574 11.2655 24.4074L12.7988 24.7908C12.9572 24.8324 13.0738 24.9491 13.1155 25.1074C13.2822 25.6991 13.5155 26.2574 13.8072 26.7824C13.8822 26.9241 13.8905 27.0908 13.8072 27.2324L12.9988 28.5908C12.8905 28.7658 12.9238 28.9908 13.0655 29.1408L13.4988 29.5741L13.9488 30.0241L14.3822 30.4574C14.5238 30.5991 14.7488 30.6324 14.9322 30.5241L16.2905 29.7158C16.4322 29.6324 16.5988 29.6324 16.7405 29.7158C17.2655 30.0074 17.8238 30.2408 18.4155 30.4074C18.5738 30.4491 18.6905 30.5741 18.7322 30.7241L19.1155 32.2574C19.1655 32.4574 19.3405 32.5991 19.5488 32.5991H21.4155C21.6238 32.5991 21.7988 32.4574 21.8488 32.2574L22.2322 30.7241C22.2738 30.5658 22.3905 30.4491 22.5488 30.4074C23.1405 30.2408 23.6988 30.0074 24.2238 29.7158C24.3655 29.6408 24.5322 29.6324 24.6738 29.7158L26.0322 30.5241C26.2072 30.6324 26.4322 30.5991 26.5822 30.4574L27.0155 30.0241L27.4655 29.5741L27.8988 29.1408C28.0405 28.9991 28.0738 28.7741 27.9655 28.5908L27.1572 27.2324C27.0738 27.0908 27.0738 26.9241 27.1572 26.7824C27.4488 26.2574 27.6822 25.6991 27.8488 25.1074C27.8905 24.9491 28.0155 24.8324 28.1655 24.7908L29.6988 24.4074C29.8988 24.3574 30.0405 24.1824 30.0405 23.9741V22.1074C30.0405 21.8991 29.8988 21.7241 29.6988 21.6741ZM20.4905 26.5574C18.5488 26.5574 16.9738 24.9824 16.9738 23.0408C16.9738 21.0991 18.5488 19.5241 20.4905 19.5241C22.4322 19.5241 24.0072 21.0991 24.0072 23.0408C24.0072 24.9824 22.4322 26.5574 20.4905 26.5574Z" fill="#0B5FFF" />
	<path d="M3.66602 10.5332H36.9993" stroke="#0B5FFF" stroke-linecap="round" stroke-linejoin="round" stroke-width="1.66667" />
	<path d="M35.7743 5H4.89102C4.21447 5 3.66602 5.54845 3.66602 6.225V34.2083C3.66602 34.8849 4.21447 35.4333 4.89102 35.4333H35.7743C36.4509 35.4333 36.9993 34.8849 36.9993 34.2083V6.225C36.9993 5.54845 36.4509 5 35.7743 5Z" stroke="#0B5FFF" stroke-linecap="round" stroke-linejoin="round" stroke-width="1.66667" />
	<path d="M7.26621 8.6918C7.76327 8.6918 8.16621 8.27766 8.16621 7.7668C8.16621 7.25593 7.76327 6.8418 7.26621 6.8418C6.76915 6.8418 6.36621 7.25593 6.36621 7.7668C6.36621 8.27766 6.76915 8.6918 7.26621 8.6918Z" fill="#0B5FFF" />
	<path d="M9.97422 8.6918C10.4713 8.6918 10.8742 8.27766 10.8742 7.7668C10.8742 7.25593 10.4713 6.8418 9.97422 6.8418C9.47716 6.8418 9.07422 7.25593 9.07422 7.7668C9.07422 8.27766 9.47716 8.6918 9.97422 8.6918Z" fill="#0B5FFF" />
	<path d="M12.6744 8.6918C13.1715 8.6918 13.5744 8.27766 13.5744 7.7668C13.5744 7.25593 13.1715 6.8418 12.6744 6.8418C12.1774 6.8418 11.7744 7.25593 11.7744 7.7668C11.7744 8.27766 12.1774 8.6918 12.6744 8.6918Z" fill="#0B5FFF" />
</svg>