<svg fill="none" height="40" viewBox="0 0 41 40" width="41" xmlns="http://www.w3.org/2000/svg">
	<path d="M6.91667 20.2148H5.45833C4.65292 20.2148 4 20.8678 4 21.6732V31.1482C4 31.9536 4.65292 32.6065 5.45833 32.6065H6.91667C7.72208 32.6065 8.375 31.9536 8.375 31.1482V21.6732C8.375 20.8678 7.72208 20.2148 6.91667 20.2148Z" stroke="#0B5FFF" stroke-linecap="round" stroke-linejoin="round" stroke-width="1.66667" />
	<path d="M8.7334 21.6738H16.0167C18.0251 21.6738 19.6584 23.3072 19.6584 25.3155H25.8501C26.8584 25.3155 27.6751 26.1322 27.6751 27.1405C27.6751 28.1488 26.8584 28.9655 25.8501 28.9655H17.4667" stroke="#0B5FFF" stroke-linecap="round" stroke-linejoin="round" stroke-width="1.66667" />
	<path d="M27.75 27.0747L28.4084 26.7747L34.9417 23.8081C35.7667 23.4331 36.7417 23.7747 37.15 24.5914C37.5584 25.4081 37.25 26.3914 36.45 26.8331L22.4084 34.4914C22.05 34.6831 21.6334 34.7247 21.25 34.5914L8.73337 30.4164L8.3667 30.2497" stroke="#0B5FFF" stroke-linecap="round" stroke-linejoin="round" stroke-width="1.66667" />
	<path d="M34.2917 12.6324L32.8583 12.2741C32.7167 12.2408 32.6 12.1241 32.5583 11.9824C32.4083 11.4324 32.1833 10.9074 31.9083 10.4241C31.8333 10.2908 31.8333 10.1324 31.9083 10.0074L32.6667 8.74075C32.7667 8.57409 32.7417 8.36576 32.6 8.23242L32.1917 7.82409L31.7667 7.39909L31.3583 6.99076C31.225 6.85742 31.0167 6.83242 30.85 6.92409L29.5833 7.68242C29.4583 7.75742 29.3 7.75742 29.1667 7.68242C28.675 7.40742 28.1583 7.19076 27.6083 7.03242C27.4667 6.99076 27.35 6.88242 27.3167 6.73242L26.9583 5.29909C26.9083 5.11576 26.7417 4.98242 26.55 4.98242H24.8083C24.6167 4.98242 24.45 5.11576 24.4 5.29909L24.0417 6.73242C24.0083 6.87409 23.8917 6.99076 23.75 7.03242C23.2 7.18242 22.675 7.40742 22.1917 7.68242C22.0583 7.75742 21.9 7.75742 21.775 7.68242L20.5083 6.92409C20.3417 6.82409 20.1333 6.84909 20 6.99076L19.5917 7.39909L19.1667 7.82409L18.7583 8.23242C18.625 8.36576 18.6 8.57409 18.6917 8.74075L19.45 10.0074C19.525 10.1324 19.525 10.2908 19.45 10.4241C19.175 10.9158 18.9583 11.4324 18.8 11.9824C18.7583 12.1241 18.65 12.2408 18.5 12.2741L17.0667 12.6324C16.8833 12.6824 16.75 12.8491 16.75 13.0408V14.7824C16.75 14.9741 16.8833 15.1408 17.0667 15.1908L18.5 15.5491C18.6417 15.5824 18.7583 15.6991 18.8 15.8408C18.9583 16.3908 19.175 16.9158 19.45 17.3991C19.525 17.5324 19.525 17.6908 19.45 17.8158L18.6917 19.0824C18.5917 19.2491 18.6167 19.4574 18.7583 19.5908L19.1667 19.9991L19.5917 20.4241L20 20.8324C20.1333 20.9658 20.3417 20.9908 20.5083 20.8991L21.775 20.1408C21.9 20.0658 22.0583 20.0658 22.1917 20.1408C22.6833 20.4158 23.2 20.6324 23.75 20.7908C23.8917 20.8324 24.0083 20.9408 24.0417 21.0908L24.4 22.5241C24.45 22.7074 24.6167 22.8408 24.8083 22.8408H26.55C26.7417 22.8408 26.9083 22.7074 26.9583 22.5241L27.3167 21.0908C27.35 20.9491 27.4667 20.8324 27.6083 20.7908C28.1583 20.6408 28.6833 20.4158 29.1667 20.1408C29.3 20.0658 29.4583 20.0658 29.5833 20.1408L30.85 20.8991C31.0167 20.9991 31.225 20.9741 31.3583 20.8324L31.7667 20.4241L32.1917 19.9991L32.6 19.5908C32.7333 19.4574 32.7583 19.2491 32.6667 19.0824L31.9083 17.8158C31.8333 17.6908 31.8333 17.5324 31.9083 17.3991C32.1833 16.9074 32.4 16.3908 32.5583 15.8408C32.6 15.6991 32.7083 15.5824 32.8583 15.5491L34.2917 15.1908C34.475 15.1408 34.6083 14.9741 34.6083 14.7824V13.0408C34.6083 12.8491 34.475 12.6824 34.2917 12.6324ZM25.7 17.1908C23.8917 17.1908 22.4167 15.7241 22.4167 13.9074C22.4167 12.0908 23.8833 10.6241 25.7 10.6241C27.5167 10.6241 28.9833 12.0908 28.9833 13.9074C28.9833 15.7241 27.5167 17.1908 25.7 17.1908Z" fill="#0B5FFF" />
</svg>