<svg fill="none" height="80" viewBox="0 0 80 80" width="80" xmlns="http://www.w3.org/2000/svg">
	<g clip-path="url(#clip0_1665_13326)">
		<path d="M25.333 12V68" stroke="#0B5FFF" stroke-width="2.66667" />
		<path d="M40 13.334H21.333C19.8604 13.3342 18.666 14.5283 18.666 16.001V64.001C18.666 65.4736 19.8604 66.6678 21.333 66.668H58.666C60.1388 66.668 61.333 65.4737 61.333 64.001V16.001C61.333 14.5284 60.1395 13.3343 58.667 13.334V10.668C61.6122 10.6683 64 13.0557 64 16.001V64.001C64 66.9465 61.6115 69.334 58.666 69.334H21.333C18.3876 69.3338 16 66.9464 16 64.001V16.001C16 13.0556 18.3876 10.6681 21.333 10.668H40V13.334ZM57.333 10.668V13.334H41.333V10.668H57.333Z" fill="#0B5FFF" />
		<mask fill="white" id="path-4-inside-1_1665_13326">
			<path d="M41.3333 9.33398L40 10.6673H41.3333V9.33398Z" />
		</mask>
		<path d="M41.3333 9.33398L40 10.6673H41.3333V9.33398Z" fill="#0B5FFF" />
		<path d="M40 10.6673L39.0572 9.72451L36.781 12.0007H40V10.6673ZM41.3333 9.33398H42.6667V6.11503L40.3905 8.39118L41.3333 9.33398ZM41.3333 10.6673V12.0007H42.6667V10.6673H41.3333ZM40 10.6673L40.9428 11.6101L42.2761 10.2768L41.3333 9.33398L40.3905 8.39118L39.0572 9.72451L40 10.6673ZM41.3333 9.33398H40V10.6673H41.3333H42.6667V9.33398H41.3333ZM41.3333 10.6673V9.33398H40V10.6673V12.0007H41.3333V10.6673Z" fill="#0B5FFF" mask="url(#path-4-inside-1_1665_13326)" />
		<path d="M56 8.00098C57.4725 8.00115 58.6658 9.19449 58.666 10.667V52.8242L56.7363 51.8604L49.333 48.1582L41.9297 51.8604L40 52.8242V8.00098H56Z" fill="#0B5FFF" stroke="white" stroke-width="2.66667" />
	</g>
	<defs>
		<clipPath id="clip0_1665_13326">
			<rect fill="white" height="64" transform="translate(8 8)" width="64" />
		</clipPath>
	</defs>
</svg>