<svg fill="none" height="80" viewBox="0 0 80 80" width="80" xmlns="http://www.w3.org/2000/svg">
	<path d="M16 41.498C18.2089 41.498 19.9996 43.2892 20 45.498H30C33.3133 45.4982 35.9996 48.1847 36 51.498H48C49.8056 51.4982 51.332 52.6955 51.8291 54.3389L66.0166 46.4824C67.9245 45.4264 70.3273 46.0932 71.418 47.9814C72.547 49.9372 71.898 52.36 70.0039 53.4541C69.9965 53.4584 60.0515 59.0725 40.1699 70.2949C38.7939 71.0716 37.166 71.2739 35.6416 70.8584L19.9551 66.0967C19.6661 68.0218 18.0057 69.498 16 69.498H12C9.79086 69.498 8 67.7072 8 65.498V45.498C8.00035 43.2892 9.79108 41.498 12 41.498H16ZM20 63.9756L36.168 68.9287C37.1842 69.2057 38.2692 69.0705 39.1865 68.5527L68.9873 51.7314C69.9413 51.1803 70.263 49.9808 69.7217 49.043C69.141 48.0377 67.9392 47.7046 66.9854 48.2324L51.8408 56.6182C51.3563 58.2818 49.82 59.4979 48 59.498H27C26.4477 59.498 26 59.0503 26 58.498C26.0004 57.9461 26.4479 57.498 27 57.498H48C49.1044 57.4979 50 56.6025 50 55.498C49.9996 54.3939 49.1042 53.4982 48 53.498H34V51.498C33.9996 49.2893 32.2088 47.4982 30 47.498H20V63.9756ZM12 43.499C10.8955 43.499 10.0002 44.3946 10 45.499V65.499C10 66.6036 10.8954 67.499 12 67.499H16C17.1046 67.499 18 66.6036 18 65.499V45.499C17.9998 44.3946 17.1045 43.499 16 43.499H12ZM35.6348 14.9893C36.1729 14.8651 36.7098 15.2011 36.834 15.7393C36.868 15.8871 36.8681 16.0407 36.834 16.1885L36.0332 19.6592C35.909 20.1973 35.3721 20.5333 34.834 20.4092C34.6514 20.367 34.4841 20.2741 34.3516 20.1416L34.0801 19.8701C30.4564 26.0056 31.2804 34.0408 36.5518 39.3125C40.5359 43.2967 46.0994 44.7412 51.2275 43.6445C51.6507 43.554 52.2858 43.3637 52.792 43.2041C53.2582 43.0572 53.7663 43.2571 53.998 43.6875C54.2889 44.2283 54.0292 44.9006 53.4453 45.0908C52.9177 45.2627 52.3112 45.4498 51.8906 45.5459C46.0547 46.8787 39.683 45.2728 35.1377 40.7275C29.0804 34.6702 28.243 25.3693 32.625 18.415L31.6816 17.4717C31.2912 17.0812 31.2912 16.4481 31.6816 16.0576C31.8142 15.9251 31.9814 15.8322 32.1641 15.79L35.6348 14.9893ZM43.0723 10.6465C49.1114 8.98439 55.8481 10.5268 60.5938 15.2725C66.6508 21.3298 67.4883 30.6298 63.1064 37.584L63.9492 38.4268C64.0817 38.5593 64.1746 38.7266 64.2168 38.9092C64.341 39.4473 64.0049 39.9842 63.4668 40.1084L60.248 40.8516C60.1001 40.8857 59.9458 40.8857 59.7979 40.8516C59.2599 40.7273 58.9247 40.1904 59.0488 39.6523L59.792 36.4326C59.8342 36.2501 59.9262 36.0826 60.0586 35.9502C60.449 35.5599 61.0821 35.5601 61.4727 35.9502L61.6514 36.1289C65.275 29.9934 64.4511 21.9583 59.1797 16.6865C55.0789 12.5857 49.305 11.1761 44.0547 12.458C43.755 12.5312 43.3237 12.6648 42.9453 12.7871C42.475 12.9392 41.9599 12.7375 41.7266 12.3018C41.4383 11.7633 41.6927 11.0935 42.2715 10.8984C42.5602 10.8011 42.8526 10.707 43.0723 10.6465Z" fill="#0B5FFF" />
	<path d="M14 61.9023C15.1044 61.9023 15.9996 62.7981 16 63.9023C16 65.0069 15.1046 65.9023 14 65.9023C12.8954 65.9023 12 65.0069 12 63.9023C12.0004 62.7981 12.8956 61.9023 14 61.9023ZM48.5586 16C49.4193 16 50.1838 16.5507 50.4561 17.3672L50.7988 18.3975C51.5046 18.6028 52.1786 18.8831 52.8105 19.2305L53.7812 18.7451C54.5512 18.3601 55.4821 18.5114 56.0908 19.1201L56.8799 19.9092C57.4886 20.5179 57.6399 21.4488 57.2549 22.2188L56.7695 23.1895C57.1169 23.8214 57.3972 24.4954 57.6025 25.2012L58.6328 25.5439C59.4493 25.8162 60 26.5807 60 27.4414V28.5586C60 29.4193 59.4493 30.1838 58.6328 30.4561L57.6025 30.7988C57.3972 31.5046 57.1169 32.1786 56.7695 32.8105L57.2549 33.7812C57.6399 34.5512 57.4886 35.4821 56.8799 36.0908L56.0908 36.8799C55.4821 37.4886 54.5512 37.6399 53.7812 37.2549L52.8105 36.7695C52.1786 37.1169 51.5046 37.3972 50.7988 37.6025L50.4561 38.6328C50.1838 39.4493 49.4193 40 48.5586 40H47.4414C46.5807 40 45.8162 39.4493 45.5439 38.6328L45.2012 37.6025C44.4954 37.3972 43.8214 37.1169 43.1895 36.7695L42.2188 37.2549C41.4488 37.6399 40.5179 37.4886 39.9092 36.8799L39.1201 36.0908C38.5114 35.4821 38.3601 34.5512 38.7451 33.7812L39.2305 32.8105C38.8831 32.1786 38.6028 31.5046 38.3975 30.7988L37.3672 30.4561C36.5507 30.1838 36 29.4193 36 28.5586V27.4414C36 26.5807 36.5507 25.8162 37.3672 25.5439L38.3975 25.2012C38.6028 24.4954 38.8831 23.8214 39.2305 23.1895L38.7451 22.2188C38.3601 21.4488 38.5114 20.5179 39.1201 19.9092L39.9092 19.1201C40.5179 18.5114 41.4488 18.3601 42.2188 18.7451L43.1895 19.2305C43.8214 18.8831 44.4954 18.6028 45.2012 18.3975L45.5439 17.3672C45.8162 16.5507 46.5807 16 47.4414 16H48.5586ZM48 23C45.2386 23 43 25.2386 43 28C43 30.7614 45.2386 33 48 33C50.7614 33 53 30.7614 53 28C53 25.2386 50.7614 23 48 23Z" fill="#0B5FFF" />
</svg>