<svg fill="none" height="80" viewBox="0 0 80 80" width="80" xmlns="http://www.w3.org/2000/svg">
	<path d="M22.667 37.334H49.3337" stroke="#0B5FFF" stroke-linecap="round" stroke-width="2.66667" />
	<path d="M22.667 44H49.3337" stroke="#0B5FFF" stroke-linecap="round" stroke-width="2.66667" />
	<path d="M27.5469 30.4785H44.8802" stroke="#0B5FFF" stroke-linecap="round" stroke-width="2.66667" />
	<path clip-rule="evenodd" d="M54.8812 46.7741C54.8812 42.724 58.1644 39.4408 62.2145 39.4408C66.2646 39.4408 69.5479 42.724 69.5479 46.7741C69.5479 49.4577 68.1063 51.8047 65.9553 53.0829C65.922 53.0953 65.8896 53.1104 65.8585 53.128C64.8531 53.6993 63.7038 54.0553 62.4897 54.1024C62.3984 54.1057 62.3066 54.1074 62.2145 54.1074C62.0437 54.1074 61.8743 54.1016 61.7064 54.0901C60.5758 54.0116 59.511 53.6731 58.5755 53.1309C58.5428 53.112 58.5088 53.0959 58.4737 53.0829C56.3227 51.8047 54.8812 49.4577 54.8812 46.7741ZM57.5479 54.0783C55.1423 52.5382 53.5479 49.8424 53.5479 46.7741C53.5479 41.9876 57.4281 38.1074 62.2145 38.1074C67.001 38.1074 70.8812 41.9876 70.8812 46.7741C70.8812 49.8424 69.2867 52.5382 66.8812 54.0783V62.7077C66.8812 62.9773 66.7188 63.2204 66.4696 63.3236C66.2205 63.4268 65.9338 63.3698 65.7431 63.1791L62.2145 59.6505L58.6859 63.1791C58.4953 63.3698 58.2085 63.4268 57.9594 63.3236C57.7103 63.2204 57.5479 62.9773 57.5479 62.7077V54.0783Z" fill="#0B5FFF" fill-rule="evenodd" />
	<path d="M59.9746 10.6406C61.9776 10.6408 63.5477 12.3187 63.5479 14.2939V36.667C63.5479 36.7333 63.5406 36.7986 63.5312 36.8623C63.1004 36.8056 62.6612 36.7735 62.2148 36.7734C61.7679 36.7734 61.3279 36.8055 60.8965 36.8623C60.8871 36.7986 60.8818 36.7333 60.8818 36.667V14.2939C60.8817 13.7098 60.4245 13.3068 59.9746 13.3066H12.4551C11.9968 13.3066 11.548 13.7044 11.5479 14.2939V52.3066C11.5479 52.8911 12.005 53.2939 12.4551 53.2939H54.6338C55.1058 53.8423 55.6359 54.3396 56.2148 54.7744V55.9414C56.1454 55.9526 56.0745 55.9599 56.002 55.96H12.4551C10.4518 55.96 8.88184 54.2821 8.88184 52.3066V14.2939C8.88201 12.3238 10.4335 10.6406 12.4551 10.6406H59.9746Z" fill="#0B5FFF" />
	<path d="M62.2139 38.7734C66.632 38.7736 70.2139 42.3553 70.2139 46.7734C70.2139 51.1916 66.632 54.7733 62.2139 54.7734C57.7956 54.7734 54.2139 51.1917 54.2139 46.7734C54.2139 42.3552 57.7956 38.7734 62.2139 38.7734ZM66.1562 43.7656C65.6357 43.245 64.7922 43.2453 64.2715 43.7656L61.2139 46.8232L60.1562 45.7656C59.6357 45.245 58.7922 45.2453 58.2715 45.7656C57.7508 46.2863 57.7508 47.1297 58.2715 47.6504L60.2715 49.6504C60.7922 50.1711 61.6356 50.1711 62.1562 49.6504L66.1562 45.6504C66.6766 45.1297 66.6768 44.2862 66.1562 43.7656Z" fill="#0B5FFF" />
	<path d="M39.7334 17.5745C38.8934 16.7345 37.7201 16.2012 36.4401 16.2012C35.1601 16.2012 33.9868 16.7212 33.1468 17.5745C32.3068 18.4145 31.7734 19.5878 31.7734 20.8678C31.7734 22.1478 32.2934 23.3212 33.1468 24.1612C33.9868 25.0012 35.1601 25.5345 36.4401 25.5345C37.7201 25.5345 38.8934 25.0145 39.7334 24.1612C40.5734 23.3212 41.1068 22.1478 41.1068 20.8678C41.1068 19.5878 40.5868 18.4145 39.7334 17.5745Z" fill="#0B5FFF" />
</svg>