<svg fill="none" height="202" preserveAspectRatio="none" viewBox="0 0 1125 202" width="1125" xmlns="http://www.w3.org/2000/svg">
	<g clip-path="url(#clip0_1_247)">
		<path d="M0 10.2187C0 4.6959 4.47715 0.21875 10 0.21875H1115C1120.52 0.21875 1125 4.6959 1125 10.2188V192.219C1125 197.742 1120.52 202.219 1115 202.219H10C4.47717 202.219 0 197.742 0 192.219V10.2187Z" fill="url(#paint0_radial_1_247)" />
		<path d="M0 10.2187C0 4.6959 4.47715 0.21875 10 0.21875H1115C1120.52 0.21875 1125 4.6959 1125 10.2188V192.219C1125 197.742 1120.52 202.219 1115 202.219H10C4.47717 202.219 0 197.742 0 192.219V10.2187Z" fill="url(#paint1_radial_1_247)" />
		<g clip-path="url(#clip1_1_247)">
			<path d="M1194.2 198.479C1056.4 -88.9219 619.329 422.921 923.479 481.527C1204.63 535.734 1260.24 336.199 1194.2 198.479H1194.2Z" fill="url(#paint2_linear_1_247)" />
			<path d="M912.819 191.829C689.331 240.131 904.491 565.285 1043.31 550.429C1182.14 535.622 1303.91 309.918 1201.17 196.838C1098.36 83.7335 1052.24 162.628 912.819 191.829Z" fill="url(#paint3_linear_1_247)" />
		</g>
	</g>
	<defs>
		<radialGradient cx="0" cy="0" gradientTransform="translate(-3.35276e-05 202.219) rotate(-10.1793) scale(1142.99 662.735)" gradientUnits="userSpaceOnUse" id="paint0_radial_1_247" r="1">
			<stop stop-color="#06004D" />
			<stop offset="0.334167" stop-color="#0001A5" />
			<stop offset="0.706667" stop-color="#0069FF" />
			<stop offset="1" stop-color="#00E0FF" />
		</radialGradient>
		<radialGradient cx="0" cy="0" gradientTransform="translate(1050 202.219) rotate(-180) scale(707.813 174.225)" gradientUnits="userSpaceOnUse" id="paint1_radial_1_247" r="1">
			<stop offset="0.163356" stop-color="#FF6DA3" />
			<stop offset="0.558499" stop-color="#CA00FA" stop-opacity="0.8" />
			<stop offset="1" stop-color="#CA00FA" stop-opacity="0" />
		</radialGradient>
		<linearGradient gradientUnits="userSpaceOnUse" id="paint2_linear_1_247" x1="1188.4" x2="871.873" y1="103.297" y2="545.941">
			<stop stop-color="white" stop-opacity="0.25" />
			<stop offset="0.64" stop-color="white" stop-opacity="0.08" />
			<stop offset="1" stop-color="white" stop-opacity="0" />
		</linearGradient>
		<linearGradient gradientUnits="userSpaceOnUse" id="paint3_linear_1_247" x1="1249.17" x2="832.907" y1="161.781" y2="491.501">
			<stop stop-color="white" />
			<stop offset="0.01" stop-color="white" stop-opacity="0.97" />
			<stop offset="0.13" stop-color="white" stop-opacity="0.75" />
			<stop offset="0.25" stop-color="white" stop-opacity="0.55" />
			<stop offset="0.37" stop-color="white" stop-opacity="0.38" />
			<stop offset="0.49" stop-color="white" stop-opacity="0.24" />
			<stop offset="0.62" stop-color="white" stop-opacity="0.14" />
			<stop offset="0.74" stop-color="white" stop-opacity="0.06" />
			<stop offset="0.87" stop-color="white" stop-opacity="0.01" />
			<stop offset="1" stop-color="white" stop-opacity="0" />
		</linearGradient>
		<clipPath id="clip0_1_247">
			<path d="M0 10C0 4.47715 4.47715 0 10 0H1115C1120.52 0 1125 4.47715 1125 10V192C1125 197.523 1120.52 202 1115 202H10C4.47717 202 0 197.523 0 192V10Z" fill="white" />
		</clipPath>
		<clipPath id="clip1_1_247">
			<rect fill="white" height="331" transform="translate(794 96)" width="331" />
		</clipPath>
	</defs>
</svg>