<svg fill="none" height="54" viewBox="0 0 134 54" width="134" xmlns="http://www.w3.org/2000/svg">
	<path d="M20.463 39.0568H4.10446V5.17387C4.10446 4.96642 3.96641 4.82813 3.75934 4.82813H1.20547C0.998399 4.82813 0.860352 4.96642 0.860352 5.17387V41.5462C0.860352 41.7537 0.998399 41.892 1.20547 41.892H20.463C20.6701 41.892 20.8082 41.7537 20.8082 41.5462V39.3334C20.8082 39.1951 20.6701 39.0568 20.463 39.0568Z" fill="#101820" />
	<path d="M44.6902 14.7192H38.8922V9.32563C38.8922 5.52244 40.1347 3.65542 42.6885 3.65542C43.7239 3.65542 44.7592 3.93201 45.7256 4.34691C45.7946 4.41606 45.9326 4.41606 46.0017 4.34691C46.0707 4.27776 46.1397 4.20861 46.2087 4.13946L46.899 2.13414C46.968 1.99584 46.899 1.7884 46.6919 1.71925C45.3805 1.16606 43.931 0.820312 42.6885 0.820312C38.271 0.820312 35.7862 3.79372 35.7862 9.11819V14.7192L32.473 14.9267C32.266 14.9267 32.1279 15.065 32.1279 15.2724V17.1395C32.1279 17.3469 32.266 17.4852 32.473 17.4852H35.7862V41.549C35.7862 41.7565 35.9242 41.8948 36.1313 41.8948H38.5471C38.7542 41.8948 38.8922 41.7565 38.8922 41.549V17.4852H44.6902C44.8973 17.4852 45.0353 17.3469 45.0353 17.1395V14.9958C45.0353 14.8575 44.8973 14.7192 44.6902 14.7192Z" fill="#101820" />
	<path d="M57.2529 14.0313C51.524 14.0313 45.3809 19.0791 45.3809 28.3451C45.3809 36.7121 50.5576 42.5898 57.9431 42.5898C61.8775 42.5898 64.2933 41.2759 66.5021 39.9621C66.6401 39.893 66.7091 39.6855 66.6401 39.4781L65.6048 37.611C65.5357 37.5419 65.4667 37.4727 65.3977 37.4727C65.3287 37.4727 65.1906 37.4727 65.1216 37.5419C62.9128 39.1323 60.7041 39.8238 58.2192 39.8238C52.6283 39.8238 48.832 35.4674 48.625 29.0366H67.3304C67.4684 29.0366 67.6065 28.8983 67.6755 28.76C67.8135 28.0685 67.8135 27.3078 67.8135 26.6855C67.6755 18.7334 63.8102 14.0313 57.2529 14.0313ZM48.5559 26.2706C49.1772 20.6695 52.6974 16.7972 57.2529 16.7972C62.0155 16.7972 64.6384 20.1855 64.7075 26.2706H48.5559Z" fill="#101820" />
	<path d="M85.3449 14.6469C84.5167 14.232 83.6884 14.0938 82.584 14.0938C79.8231 14.0938 77.2002 15.8225 75.1985 19.0725L74.9914 15.0618C74.9914 14.8544 74.8534 14.7161 74.6463 14.7161H72.5756C72.3685 14.7161 72.2305 14.8544 72.2305 15.0618V41.615C72.2305 41.8225 72.3685 41.9608 72.5756 41.9608H74.9914C75.1985 41.9608 75.3365 41.8225 75.3365 41.615V23.6363C76.9931 19.4874 79.547 17.0672 82.2389 17.0672C83.2052 17.0672 83.6194 17.2055 84.5167 17.482C84.5857 17.482 84.7237 17.482 84.7928 17.482C84.8618 17.4129 84.9308 17.3437 84.9308 17.2746L85.483 15.0618C85.552 14.8544 85.483 14.7161 85.3449 14.6469Z" fill="#101820" />
	<path d="M107.157 14.7161H105.017C104.81 14.7161 104.672 14.8544 104.672 15.0618L104.534 17.0672C102.256 15.2693 100.047 14.0938 96.8721 14.0938C89.8317 14.0938 84.793 20.1097 84.793 28.4076C84.793 37.3278 89.0034 42.6523 96.1128 42.6523C99.0118 42.6523 101.911 41.3384 104.603 38.8491L104.81 41.6842C104.81 41.8916 104.948 42.0299 105.155 42.0299H107.226C107.433 42.0299 107.571 41.8916 107.571 41.6842V15.0618C107.502 14.8544 107.364 14.7161 107.157 14.7161ZM104.396 20.1097V35.5299C101.566 38.4342 99.0808 39.6789 96.458 39.6789C91.2122 39.6789 88.0371 35.3916 88.0371 28.2693C88.0371 21.8384 91.9714 16.7906 97.0101 16.7906C99.633 16.8597 101.842 17.8278 104.396 20.1097Z" fill="#101820" />
	<path d="M133.524 14.8559C133.455 14.7867 133.386 14.7176 133.248 14.7176H130.763C130.625 14.7176 130.487 14.7867 130.418 14.925L124.758 31.5899C124.482 32.4889 124.137 33.4569 123.861 34.425C123.447 35.808 122.963 37.191 122.549 38.4357C121.997 37.0527 121.445 35.5314 120.893 34.0793C120.548 33.1804 120.202 32.3506 119.926 31.5208L113.576 14.8559C113.507 14.7176 113.369 14.6484 113.231 14.6484H110.608C110.47 14.6484 110.401 14.7176 110.332 14.7867C110.263 14.8559 110.263 14.9942 110.332 15.1325L121.169 42.0314L120.479 44.2442C119.443 47.3559 117.51 51.0208 113.99 51.0208C113.3 51.0208 112.472 50.8133 111.92 50.6059C111.851 50.6059 111.713 50.6059 111.643 50.6059C111.574 50.675 111.505 50.7442 111.436 50.8133L110.884 52.957C110.815 53.0952 110.953 53.3027 111.091 53.3718C111.851 53.7176 112.955 53.925 113.921 53.925C117.994 53.925 121.169 50.8133 123.17 44.9357L133.593 15.0633C133.662 15.0633 133.593 14.925 133.524 14.8559Z" fill="#101820" />
	<path d="M27.3652 8.70595C27.7793 8.70595 28.1245 8.36021 28.1245 7.94531V5.45595C28.1245 5.04106 27.7793 4.69531 27.3652 4.69531H24.8804C24.4662 4.69531 24.1211 5.04106 24.1211 5.45595V7.94531C24.1211 8.36021 24.4662 8.70595 24.8804 8.70595H27.3652Z" fill="#101820" />
	<path d="M24.8803 14.7219H27.2962C27.5032 14.7219 27.6413 14.8602 27.6413 15.0677V41.6208C27.6413 41.8283 27.5032 41.9666 27.2962 41.9666H24.8803C24.6733 41.9666 24.5352 41.8283 24.5352 41.6208V15.0677C24.5352 14.8602 24.6733 14.7219 24.8803 14.7219Z" fill="#101820" />
					</svg>