<svg fill="none" height="40" viewBox="0 0 40 40" width="40" xmlns="http://www.w3.org/2000/svg">
	<g clip-path="url(#a)">
		<path d="M33.1 20c0 7.732-6.268 14-14 14s-14-6.268-14-14 6.268-14 14-14 14 6.268 14 14Z" fill="#E3EDFF" />
		<path d="M.1 27a4 4 0 0 1 4-4h8a4 4 0 0 1 4 4v8a4 4 0 0 1-4 4h-8a4 4 0 0 1-4-4v-8Z" fill="#5791FF" />
		<path d="M22.1 5a4 4 0 0 1 4-4h8a4 4 0 0 1 4 4v8a4 4 0 0 1-4 4h-8a4 4 0 0 1-4-4V5Z" fill="#80ACFF" />
		<path d="M.192 11.636a3.728 3.728 0 0 1 0-5.272l5.272-5.272a3.728 3.728 0 0 1 5.272 0l5.273 5.272a3.728 3.728 0 0 1 0 5.272l-5.273 5.272a3.728 3.728 0 0 1-5.272 0L.192 11.636Z" fill="#0B5FFF" />
		<path d="M16.009 6.364a3.728 3.728 0 0 1 0 5.272l-5.273 5.272a3.728 3.728 0 0 1-5.272 0l-.014-.014A14.013 14.013 0 0 1 15.995 6.35l.014.014Z" fill="#5791FF" />
		<path d="M29.014 22.563a1.33 1.33 0 0 1 2.174 0l1.032 1.463c.296.42.807.632 1.313.544l1.764-.304a1.33 1.33 0 0 1 1.538 1.537l-.305 1.764a1.33 1.33 0 0 0 .544 1.314l1.463 1.032a1.33 1.33 0 0 1 0 2.174l-1.463 1.032a1.33 1.33 0 0 0-.544 1.313l.305 1.765a1.33 1.33 0 0 1-1.538 1.537l-1.764-.304a1.33 1.33 0 0 0-1.313.544l-1.032 1.463a1.33 1.33 0 0 1-2.174 0l-1.033-1.463a1.33 1.33 0 0 0-1.313-.544l-1.764.304a1.33 1.33 0 0 1-1.538-1.537l.305-1.765a1.33 1.33 0 0 0-.544-1.313l-1.463-1.032a1.33 1.33 0 0 1 0-2.174l1.463-1.032a1.33 1.33 0 0 0 .544-1.314l-.305-1.764a1.33 1.33 0 0 1 1.538-1.537l1.764.304a1.33 1.33 0 0 0 1.313-.544l1.032-1.463Z" fill="#004AD7" />
		<path d="M29.014 22.563a1.33 1.33 0 0 1 2.174 0l1.032 1.463c.062.089.136.167.215.236a14.027 14.027 0 0 1-9.072 9.074 1.33 1.33 0 0 0-.236-.217l-1.463-1.032a1.33 1.33 0 0 1 0-2.174l1.463-1.032a1.33 1.33 0 0 0 .544-1.314l-.305-1.764a1.33 1.33 0 0 1 1.538-1.537l1.764.304a1.33 1.33 0 0 0 1.313-.544l1.032-1.463Z" fill="#5791FF" />
	</g>
	<defs>
		<clipPath id="a">
			<path d="M0 0h40v40H0z" fill="#fff" />
		</clipPath>
	</defs>
</svg>