<svg fill="none" height="40" viewBox="0 0 41 40" width="41" xmlns="http://www.w3.org/2000/svg">
	<path d="M28.09 0a6 6 0 0 1 6 6v22a6 6 0 0 1-6 6h-4a6 6 0 0 0 6-6V6a6 6 0 0 0-6-6h4Z" fill="#5791FF" />
	<path d="M8.09 6a6 6 0 0 1 6-6h10a6 6 0 0 1 6 6v22a6 6 0 0 1-6 6h-10a6 6 0 0 1-6-6V6Z" fill="#B3CDFF" fill-opacity=".8" />
	<path d="M5.928 2.719c.479-.959 1.847-.959 2.326 0l5.698 11.399A1.3 1.3 0 0 1 12.789 16H1.393A1.3 1.3 0 0 1 .23 14.118L5.928 2.719Z" fill="#80ACFF" />
	<path d="M13.952 14.118a1.3 1.3 0 0 1-1.164 1.88H8.091V6c0-.894.2-1.741.55-2.504l5.31 10.622Z" fill="#004AD7" />
	<path d="M14.09 33a7 7 0 1 1-14 0 7 7 0 0 1 14 0Z" fill="#80ACFF" />
	<path d="M8.09 26.07a7.002 7.002 0 0 1 5.929 7.928A5.999 5.999 0 0 1 8.09 28v-1.93Z" fill="#004AD7" />
	<path d="M20.09 12a4 4 0 0 1 4-4h12a4 4 0 0 1 4 4v12l-4 4h-12a4 4 0 0 1-4-4V12Z" fill="#80ACFF" />
	<path d="M20.09 12a4 4 0 0 1 4-4h12a4 4 0 0 1 4 4v2h-20v-2Z" fill="#004AD7" />
	<path d="M26.09 6a2 2 0 0 1 2 2v2a2 2 0 1 1-4 0V8a2 2 0 0 1 2-2Zm8 0a2 2 0 0 1 2 2v2a2 2 0 1 1-4 0V8a2 2 0 0 1 2-2Z" fill="#0B5FFF" />
	<path d="M28.09 8v2a2 2 0 1 1-4 0V8h4Zm8 0v2a2 2 0 1 1-4 0V8h4Z" fill="#B3CDFF" />
	<path d="M36.09 25a1 1 0 0 1 1-1h3l-4 4v-3Zm-6-3a2 2 0 1 1 0 4h-6a2 2 0 1 1 0-4h6Zm-6-6a2 2 0 1 1 .001 4 2 2 0 0 1 0-4Zm6 0a2 2 0 1 1 .001 4 2 2 0 0 1 0-4Zm6 0a2 2 0 1 1 .001 4 2 2 0 0 1 0-4Z" fill="#004AD7" />
</svg>