<svg fill="none" height="20" viewBox="0 0 20 20" width="20" xmlns="http://www.w3.org/2000/svg">
	<path d="M4 3a3 3 0 0 1 3-3h7a3 3 0 0 1 3 3v11a3 3 0 0 1-3 3H7a3 3 0 0 1-3-3V3Z" fill="#B3CDFF" fill-opacity=".8" />
	<path d="M2.918 1.36a.65.65 0 0 1 1.164 0L6.93 7.058A.65.65 0 0 1 6.349 8H.651a.65.65 0 0 1-.582-.941l2.85-5.7ZM7 16.5a3.5 3.5 0 1 1-7 0 3.5 3.5 0 0 1 7 0Z" fill="#0B5FFF" />
	<path d="M10 6a2 2 0 0 1 2-2h6a2 2 0 0 1 2 2v6l-2 2h-6a2 2 0 0 1-2-2V6Z" fill="#80ACFF" />
	<path d="M10 6a2 2 0 0 1 2-2h6a2 2 0 0 1 2 2v1H10V6Z" fill="#0B5FFF" />
	<path d="M13 3a1 1 0 0 1 1 1v1a1 1 0 1 1-2 0V4a1 1 0 0 1 1-1Zm4 0a1 1 0 0 1 1 1v1a1 1 0 1 1-2 0V4a1 1 0 0 1 1-1Z" fill="#0B5FFF" />
	<path d="M18 12.5a.5.5 0 0 1 .5-.5H20l-2 2v-1.5ZM11 9a1 1 0 1 1 2 0 1 1 0 0 1-2 0Zm0 3a1 1 0 0 1 1-1h3a1 1 0 1 1 0 2h-3a1 1 0 0 1-1-1Zm3-3a1 1 0 1 1 2 0 1 1 0 0 1-2 0Zm3 0a1 1 0 1 1 2 0 1 1 0 0 1-2 0Z" fill="#004AD7" />
</svg>