<svg fill="none" height="40" viewBox="0 0 40 40" width="40" xmlns="http://www.w3.org/2000/svg">
	<g clip-path="url(#a)">
		<path d="M0 9.412c0-1.3 1.053-2.353 2.353-2.353h23.53a2.352 2.352 0 0 1 2.352 2.353v25.882A4.706 4.706 0 0 1 23.53 40H4.706A4.706 4.706 0 0 1 0 35.294V9.412Z" fill="#B3CDFF" />
		<path d="M14.118 7.059h11.764c1.3 0 2.353 1.053 2.353 2.353v25.882A4.706 4.706 0 0 1 23.53 40h-9.411V7.059Z" fill="#5791FF" />
		<path d="M7.059 18.823a2.352 2.352 0 0 1 2.353-2.352h28.235c1.3 0 2.353 1.053 2.353 2.352v14.118c0 1.3-1.053 2.353-2.353 2.353H9.412a2.353 2.353 0 0 1-2.353-2.353V18.823Z" fill="#004AD7" />
		<path d="M7.059 18.823a2.352 2.352 0 0 1 2.353-2.352h4.706v18.823H9.412a2.353 2.353 0 0 1-2.353-2.353V18.823Z" fill="#0B5FFF" />
		<path d="M28.235 25.882a4.706 4.706 0 1 1-9.411 0 4.706 4.706 0 0 1 9.411 0Zm2.353 0a2.353 2.353 0 1 1 4.706 0 2.353 2.353 0 0 1-4.706 0Z" fill="#F0F5FF" />
		<path d="M11.765 25.882a2.353 2.353 0 1 1 4.706 0 2.353 2.353 0 0 1-4.706 0Z" fill="#80ACFF" />
		<path d="M14.118 23.53a2.353 2.353 0 0 1 0 4.705V23.53Z" fill="#F0F5FF" />
		<path d="M11.765 2.353a2.353 2.353 0 0 0-2.353 2.353v5.882a1.176 1.176 0 1 1-2.353 0V4.706A4.706 4.706 0 0 1 11.765 0h4.706a4.706 4.706 0 0 1 4.706 4.706v5.882a1.177 1.177 0 0 1-2.354 0V4.706c0-1.218-.925-2.22-2.111-2.342l-.241-.011h-4.706Z" fill="#004AD7" />
		<path d="M14.118 0v2.353h-2.353a2.353 2.353 0 0 0-2.353 2.353v5.882a1.176 1.176 0 1 1-2.353 0V4.706A4.706 4.706 0 0 1 11.765 0h2.353Z" fill="#0B5FFF" />
	</g>
	<defs>
		<clipPath id="a">
			<path d="M0 0h40v40H0z" fill="#fff" />
		</clipPath>
	</defs>
</svg>