<svg fill="none" height="40" viewBox="0 0 40 40" width="40" xmlns="http://www.w3.org/2000/svg">
	<g clip-path="url(#a)">
		<path d="M27.633 36.996c-.23.86-1.377.925-1.741.1l-3.58-11.302c-.34-.767.346-1.563 1.115-1.297l11.111 2.176c.829.287.892 1.48.095 1.812l-4.902 2.043a.918.918 0 0 0-.53.615l-1.568 5.853Z" fill="#0B5FFF" />
		<path d="M30.214 39.317c-.23.86-1.376.925-1.74.1l-3.581-11.303c-.339-.766.346-1.563 1.116-1.297l11.11 2.177c.83.286.892 1.48.096 1.812l-4.902 2.043a.918.918 0 0 0-.53.615l-1.569 5.853Z" fill="#B3CDFF" />
		<path d="M24.893 28.114c-.339-.766.346-1.563 1.116-1.297l8.585 1.683-4.863 2.028a.918.918 0 0 0-.53.615l-1.534 5.727-2.774-8.755Z" fill="#004AD7" />
		<path d="M22.203 0c1.216 0 2.202.97 2.202 2.166v5.139a15.55 15.55 0 0 1 5.681 3.08l4.406-2.497c1.054-.597 2.402-.243 3.01.793l2.203 3.75a2.145 2.145 0 0 1-.808 2.958l-4.025 2.282c.449 1.468.683 3 .683 4.551h-8.467a7.09 7.09 0 0 0-4.375-6.55 7.09 7.09 0 0 0-9.263 9.263A7.09 7.09 0 0 0 20 29.31v8.468a15.556 15.556 0 0 1-11.534-5.122l-2.958 1.678c-1.054.597-2.402.243-3.01-.792l-2.203-3.75a2.146 2.146 0 0 1 .808-2.958l3.559-2.023a15.555 15.555 0 0 1 .464-7.14L1.103 15.39a2.146 2.146 0 0 1-.808-2.958l2.203-3.75c.608-1.036 1.956-1.39 3.01-.793l4.4 2.496a15.555 15.555 0 0 1 5.687-3.08V2.167C15.595.97 16.58 0 17.797 0h4.406Z" fill="#80ACFF" />
		<path d="M31.111 22.222a11.111 11.111 0 1 0-11.11 11.111L20 29.31c-1.41 0-2.767-.41-3.939-1.194a7.053 7.053 0 0 1-2.61-3.181 7.05 7.05 0 0 1-.404-4.095 7.055 7.055 0 0 1 1.94-3.63 7.055 7.055 0 0 1 3.63-1.94 7.05 7.05 0 0 1 4.096.403 7.053 7.053 0 0 1 3.181 2.61 7.052 7.052 0 0 1 1.194 3.94h4.023Z" fill="#004AD7" />
	</g>
	<defs>
		<clipPath id="a">
			<path d="M0 0h40v40H0z" fill="#fff" />
		</clipPath>
	</defs>
</svg>