<svg fill="none" height="64" viewBox="0 0 128 64" width="128" xmlns="http://www.w3.org/2000/svg">
	<defs>
		<linearGradient id="gaugeGradient" x1="0%" x2="100%" y1="0%" y2="0%">
			<stop offset="0%" stop-color="#7DB1FF" />
			<stop offset="100%" stop-color="#FF6568" />
		</linearGradient>
	</defs>

	<path d="M3.73135 64C1.61059 64 -0.120651 62.2792 0.00652313 60.1623C0.432564 53.07 2.03726 46.0889 4.76307 39.5083C7.97937 31.7434 12.6936 24.6881 18.6365 18.7452C24.5795 12.8022 31.6348 8.08801 39.3996 4.87171C47.1645 1.65541 55.4868 -3.67377e-07 63.8914 0C72.296 3.67377e-07 80.6183 1.65541 88.3831 4.87171C96.1479 8.08801 103.203 12.8022 109.146 18.7452C115.089 24.6881 119.803 31.7434 123.02 39.5083C125.745 46.0889 127.35 53.07 127.776 60.1623C127.903 62.2792 126.172 64 124.051 64C121.931 64 120.225 62.2788 120.08 60.1629C119.665 54.0799 118.264 48.096 115.924 42.4473C113.094 35.6142 108.945 29.4055 103.716 24.1757C98.4858 18.946 92.2771 14.7975 85.4441 11.9671C78.611 9.13676 71.2874 7.68 63.8914 7.68C56.4953 7.68 49.1717 9.13676 42.3386 11.9671C35.5056 14.7974 29.2969 18.9459 24.0671 24.1757C18.8373 29.4055 14.6888 35.6142 11.8585 42.4473C9.51869 48.096 8.11761 54.0799 7.70222 60.1629C7.55773 62.2788 5.85213 64 3.73135 64Z" fill="url(#gaugeGradient)" id="Active" />
</svg>