<svg xmlns="http://www.w3.org/2000/svg">
	<symbol fill="none" height="16" id="champion-cup" viewBox="0 0 16 16" width="16" xmlns="http://www.w3.org/2000/svg">
		<path d="M12.8 0.8V0H3.2V0.8C2.35131 0.8 1.53737 1.13714 0.937258 1.73726C0.337142 2.33737 0 3.15131 0 4C0 4.84869 0.337142 5.66263 0.937258 6.26274C1.53737 6.86286 2.35131 7.2 3.2 7.2H3.848C4.20135 7.8105 4.6849 8.33561 5.26426 8.73799C5.84362 9.14036 6.50454 9.41009 7.2 9.528V11.2H4.176L2.976 16H13.024L11.824 11.2H8.8V9.528C9.49546 9.41009 10.1564 9.14036 10.7357 8.73799C11.3151 8.33561 11.7987 7.8105 12.152 7.2H12.8C13.6487 7.2 14.4626 6.86286 15.0627 6.26274C15.6629 5.66263 16 4.84869 16 4C16 3.15131 15.6629 2.33737 15.0627 1.73726C14.4626 1.13714 13.6487 0.8 12.8 0.8ZM3.2 5.6C2.77565 5.6 2.36869 5.43143 2.06863 5.13137C1.76857 4.83131 1.6 4.42435 1.6 4C1.6 3.57565 1.76857 3.16869 2.06863 2.86863C2.36869 2.56857 2.77565 2.4 3.2 2.4V4.8C3.19942 5.06831 3.22353 5.3361 3.272 5.6H3.2ZM13.928 5.128C13.6293 5.42847 13.2237 5.59821 12.8 5.6H12.728C12.7765 5.3361 12.8006 5.06831 12.8 4.8V2.4C13.2243 2.4 13.6313 2.56857 13.9314 2.86863C14.2314 3.16869 14.4 3.57565 14.4 4C14.3982 4.42366 14.2285 4.82932 13.928 5.128Z" fill="#AA33FF" />
	</symbol>

	<symbol fill="none" height="16" id="heating" viewBox="0 0 16 16" width="16">
		<path d="M15.5827 7.77589C15.638 7.77354 15.6932 7.78377 15.7448 7.80579C15.7964 7.82784 15.8433 7.86141 15.8825 7.90417C15.9217 7.94695 15.9521 7.9983 15.9723 8.05464C15.9926 8.111 16.0019 8.17162 15.9997 8.23211C15.9997 8.34998 15.9584 8.46355 15.8835 8.54846C15.8086 8.63336 15.7062 8.68291 15.5983 8.68736H15.4899C15.4839 10.4528 15.3856 12.2167 15.196 13.97C15.0973 14.375 14.902 14.7452 14.6306 15.0416C14.3592 15.3377 14.021 15.5501 13.6501 15.6579C11.7735 15.912 9.88286 16.0248 7.99203 15.9955C6.1064 16.0248 4.22097 15.912 2.34956 15.6579C1.97879 15.5501 1.64046 15.3377 1.36911 15.0416C1.09766 14.7452 0.902415 14.375 0.803696 13.97C0.614095 12.2111 0.515777 10.4419 0.509756 8.67096H0.402336C0.29438 8.66659 0.192141 8.61604 0.117185 8.5311C0.0422221 8.44611 -7.40506e-05 8.33274 9.73254e-08 8.21474C3.8227e-05 8.09841 0.0428189 7.98643 0.118162 7.90417C0.193499 7.82215 0.295931 7.77589 0.402336 7.77589H15.5827Z" fill="#FF8133" />
		<path clip-rule="evenodd" d="M3.92571 0C4.08388 0 4.23166 0.0695249 4.33683 0.184222C4.44123 0.298365 4.49698 0.449171 4.49698 0.60282C4.49698 0.659587 4.5062 0.66979 4.52042 0.684803C4.55306 0.719248 4.62068 0.764576 4.78018 0.851664C4.98969 0.942605 5.17035 1.09075 5.30654 1.27991C5.44673 1.47472 5.5348 1.70608 5.56239 1.94831L5.56435 1.96953L5.56239 1.99075C5.53663 2.23402 5.44918 2.46655 5.30849 2.66205C5.16874 2.85607 4.98065 3.00649 4.76358 3.09512C4.57198 3.17886 4.51918 3.22592 4.5048 3.24462C4.50225 3.24751 4.49698 3.247 4.49698 3.33721C4.49694 3.34223 4.49457 3.35701 4.54483 3.4028C4.57126 3.42682 4.60529 3.45367 4.65128 3.48767C4.69526 3.52019 4.75083 3.56017 4.80752 3.60438C4.98781 3.74487 5.56318 4.07983 5.56337 4.73768C5.56337 5.04634 5.47801 5.28669 5.32314 5.47457C5.17239 5.65724 4.96943 5.77475 4.76456 5.86423C4.57246 5.94816 4.51912 5.99409 4.5048 6.01276C4.50225 6.01566 4.49698 6.01515 4.49698 6.10536C4.49693 6.25899 4.44125 6.40985 4.33683 6.52396C4.23166 6.63865 4.08388 6.70721 3.92571 6.70721C3.84392 6.7073 3.7629 6.68914 3.68938 6.65416C3.61591 6.61908 3.55116 6.56828 3.49896 6.50659C3.44667 6.44469 3.40699 6.37238 3.38275 6.29537C3.35853 6.21834 3.34924 6.13664 3.3554 6.05617C3.36749 5.77207 3.45732 5.49645 3.61516 5.26527C3.76945 5.03954 3.98335 4.86445 4.23136 4.76565C4.26958 4.74313 4.30133 4.72134 4.32902 4.70392C4.30195 4.6869 4.27138 4.66504 4.23429 4.64316C3.98516 4.54454 3.77 4.37007 3.61516 4.14354C3.45575 3.91015 3.36614 3.63096 3.3554 3.34396L3.35443 3.33625L3.3554 3.32853C3.36849 3.04264 3.45924 2.76533 3.61809 2.53281C3.77124 2.30876 3.98247 2.13505 4.22746 2.03415C4.26748 2.0106 4.30033 1.98758 4.32902 1.96953C4.30195 1.95251 4.27138 1.93065 4.23429 1.90877C3.98517 1.81015 3.76999 1.63566 3.61516 1.40915C3.45586 1.17589 3.36622 0.897352 3.3554 0.610536L3.35443 0.60282C3.35443 0.449168 3.41116 0.298366 3.51556 0.184222C3.62058 0.069559 3.7677 0.000209289 3.92571 0ZM3.63567 5.66168C3.63323 5.66837 3.63118 5.6752 3.62884 5.68194C3.64626 5.63148 3.66607 5.58206 3.68938 5.53437L3.63567 5.66168ZM3.55462 3.33721C3.55697 3.39997 3.56426 3.46217 3.57513 3.52336L3.55462 3.33721ZM3.55462 0.60282C3.55697 0.665582 3.56426 0.727786 3.57513 0.78897L3.55462 0.60282ZM4.31437 0.723384C4.31645 0.729412 4.31966 0.734933 4.32218 0.740745C4.31873 0.732802 4.31505 0.724994 4.31242 0.716632L4.31437 0.723384Z" fill="#FF8133" fill-rule="evenodd" />
		<path clip-rule="evenodd" d="M7.46665 0C7.62481 9.1626e-05 7.77267 0.0694609 7.87778 0.184222C7.98208 0.298347 8.03793 0.44924 8.03793 0.60282C8.03793 0.648532 8.04787 0.675008 8.07699 0.708916C8.11596 0.754141 8.18647 0.808538 8.3182 0.893138C8.56211 1.04972 9.08847 1.34085 9.08869 2.00329V2.02065C9.067 2.26639 8.98058 2.50245 8.8387 2.69967C8.69675 2.89685 8.50386 3.04894 8.28109 3.1337C8.10778 3.21349 8.06003 3.25769 8.04672 3.27548C8.04369 3.27961 8.03793 3.2781 8.03793 3.37097C8.03794 3.40856 8.04426 3.42397 8.06723 3.44909C8.10337 3.48849 8.17228 3.53908 8.31332 3.62463C8.58089 3.78692 9.08853 4.07554 9.08869 4.73768C9.08869 5.04861 8.99868 5.28894 8.8426 5.47553C8.69087 5.65673 8.48851 5.77322 8.29281 5.8623C8.10984 5.94554 8.06025 5.99173 8.04672 6.00987C8.04369 6.014 8.03793 6.01249 8.03793 6.10536C8.03788 6.25892 7.98211 6.40987 7.87778 6.52396C7.77267 6.63872 7.62481 6.70712 7.46665 6.70721C7.3848 6.70737 7.30393 6.68913 7.23033 6.65416C7.15675 6.6191 7.09218 6.56832 7.0399 6.50659C6.98754 6.44466 6.94797 6.37244 6.92369 6.29537C6.89945 6.21829 6.89018 6.13669 6.89635 6.05617C6.90925 5.77502 6.997 5.50228 7.15123 5.27202C7.30067 5.04897 7.50725 4.87434 7.7479 4.77047C7.78094 4.74384 7.81386 4.71856 7.84457 4.69717C7.81917 4.68137 7.79125 4.66105 7.75766 4.64123C7.51304 4.53792 7.30261 4.36265 7.15123 4.13679C6.99567 3.90456 6.90807 3.62864 6.89635 3.34493L6.89537 3.33625L6.89635 3.32756C6.91028 3.04496 6.99917 2.77094 7.15416 2.53956C7.30462 2.3151 7.51176 2.13839 7.75376 2.03319C7.79333 2.00988 7.82589 1.98741 7.85434 1.96953C7.82668 1.95216 7.79578 1.92933 7.75766 1.90684C7.51304 1.80352 7.30261 1.62828 7.15123 1.4024C6.99567 1.17017 6.90807 0.894253 6.89635 0.610536L6.89537 0.60282C6.89537 0.449062 6.95197 0.298394 7.0565 0.184222C7.16162 0.0695355 7.30854 6.99642e-05 7.46665 0ZM7.72934 6.39182L7.7645 6.34649C7.76652 6.34351 7.76744 6.33987 7.76938 6.33684C7.7571 6.35599 7.74468 6.37506 7.72934 6.39182ZM8.8885 4.73768C8.8885 4.86726 8.8699 4.97932 8.83772 5.07719C8.85312 5.03033 8.86639 4.98047 8.87483 4.92672C8.884 4.86826 8.8885 4.80518 8.8885 4.73768ZM7.43052 2.50677C7.4213 2.51702 7.41404 2.52895 7.40513 2.53956C7.42351 2.51772 7.44238 2.49648 7.46177 2.4759L7.43052 2.50677ZM7.13072 0.430172C7.12906 0.434011 7.12739 0.437853 7.12584 0.441746C7.13465 0.419519 7.1457 0.39833 7.15806 0.378089L7.13072 0.430172Z" fill="#FF8133" fill-rule="evenodd" />
		<path clip-rule="evenodd" d="M10.991 0C11.1492 2.10238e-05 11.296 0.0694633 11.4011 0.184222C11.5057 0.298402 11.5623 0.449032 11.5623 0.60282C11.5623 0.652129 11.5703 0.66534 11.5886 0.684803C11.6244 0.722563 11.6918 0.767989 11.8377 0.856486C12.1052 1.01875 12.6128 1.30732 12.613 1.96953V1.97725L12.6121 1.98496C12.5925 2.232 12.5076 2.46972 12.365 2.66784C12.2288 2.85704 12.0439 3.00059 11.8318 3.08547C11.6851 3.16981 11.6196 3.22009 11.5877 3.25619C11.5691 3.27715 11.5623 3.29181 11.5623 3.33721C11.5623 3.37483 11.5686 3.39017 11.5916 3.41534C11.6277 3.45476 11.6964 3.50521 11.8377 3.59088C12.1052 3.75315 12.6129 4.04168 12.613 4.70392C12.613 5.36517 12.1248 5.65261 11.8338 5.81986C11.6863 5.90459 11.6197 5.95439 11.5877 5.99058C11.5692 6.01151 11.5623 6.02624 11.5623 6.0716C11.5622 6.22532 11.5057 6.37607 11.4011 6.4902C11.296 6.60488 11.1491 6.6744 10.991 6.67442C10.8328 6.67437 10.685 6.60499 10.5799 6.4902C10.4756 6.37611 10.4198 6.22516 10.4197 6.0716V6.06388C10.4305 5.77693 10.5211 5.49862 10.6805 5.26527C10.835 5.03913 11.049 4.86436 11.2976 4.76565C11.3375 4.74208 11.3704 4.72152 11.3972 4.70392C11.3712 4.68688 11.3397 4.66675 11.3015 4.64412C11.0513 4.54569 10.8358 4.37084 10.6805 4.14354C10.5209 3.91009 10.4305 3.63108 10.4197 3.34396V3.32853C10.4328 3.04257 10.5245 2.76536 10.6834 2.53281C10.8369 2.30829 11.048 2.13396 11.2937 2.03319C11.3303 2.00985 11.3601 1.98733 11.3865 1.96953C11.3603 1.95192 11.3307 1.92987 11.2947 1.90684C11.0474 1.80791 10.8344 1.63434 10.6805 1.40915C10.521 1.17583 10.4305 0.897476 10.4197 0.610536V0.60282C10.4197 0.449248 10.4756 0.298345 10.5799 0.184222C10.685 0.0694279 10.8328 5.18172e-05 10.991 0ZM10.9178 6.46898L10.991 6.47669C10.9443 6.47668 10.8989 6.46599 10.8562 6.44776C10.8763 6.45636 10.8965 6.46431 10.9178 6.46898ZM11.2537 6.35806L11.2898 6.31273C11.2928 6.30832 11.2939 6.30278 11.2967 6.29826C11.2836 6.31919 11.2703 6.33991 11.2537 6.35806ZM10.6267 6.15069C10.631 6.1741 10.6374 6.19702 10.6453 6.21917C10.6369 6.19585 10.631 6.17158 10.6267 6.14683V6.15069ZM11.4871 5.81215C11.4786 5.81941 11.4711 5.82717 11.4636 5.83433C11.4877 5.81137 11.5165 5.78768 11.5515 5.76296L11.4871 5.81215ZM10.7 5.66168C10.6964 5.67153 10.6936 5.68164 10.6902 5.69158C10.7083 5.6378 10.7289 5.58506 10.7537 5.53437L10.7 5.66168ZM11.6707 4.70392C11.6707 4.72921 11.6514 4.75852 11.6072 4.79652C11.5628 4.83446 11.4937 4.88121 11.3933 4.94023C11.4433 4.91084 11.4859 4.8848 11.5213 4.86114C11.6279 4.78988 11.6707 4.74191 11.6707 4.70392ZM11.6531 1.92806C11.6647 1.94336 11.6705 1.9569 11.6707 1.96953C11.6704 1.94425 11.6477 1.91483 11.6013 1.87694L11.6531 1.92806ZM11.2537 0.31636L11.2117 0.276815C11.2077 0.273598 11.2031 0.271167 11.199 0.268134C11.2183 0.282392 11.237 0.298145 11.2537 0.31636Z" fill="#FF8133" fill-rule="evenodd" />
	</symbol>

	<symbol fill="none" height="16" id="hot" viewBox="0 0 12 16" width="12">
		<path d="M12 9.9721C12 13.3095 9.30937 16 6 16C2.69062 16 0 13.3085 0 10.0002C0 8.16686 0.869375 6.66285 1.70531 5.80976C2.17313 5.29103 3 5.61914 3 6.29724V8.96902C3 10.068 3.87406 10.9846 4.97375 10.9983C6.09063 11.0158 7 10.1127 7 9.00027C7 6.25037 1.52813 5.99663 5.37031 0.338095C5.79219 -0.278131 6.75 0.00154561 6.75 0.745267C6.72188 3.96921 12 4.67856 12 9.9721Z" fill="#FF4F45" />
	</symbol>

	<svg fill="none" height="16" id="reload" viewBox="0 0 16 16" width="16" xmlns="http://www.w3.org/2000/svg">
		<path d="M11.352 0H4.648C1.736 0 0 1.736 0 4.648V11.344C0 14.264 1.736 16 4.648 16H11.344C14.256 16 15.992 14.264 15.992 11.352V4.648C16 1.736 14.264 0 11.352 0ZM2.6 7.912C2.624 6.504 3.184 5.176 4.176 4.184C5.2 3.16 6.56 2.6 8 2.6C9.44 2.6 10.8 3.16 11.816 4.184C11.84 4.208 11.864 4.24 11.888 4.272V3.584C11.888 3.256 12.16 2.984 12.488 2.984C12.816 2.984 13.088 3.256 13.088 3.584V5.704C13.088 6.032 12.816 6.304 12.488 6.304H10.368C10.04 6.304 9.768 6.032 9.768 5.704C9.768 5.376 10.04 5.104 10.368 5.104H11.032C11.008 5.08 10.992 5.056 10.968 5.032C10.176 4.24 9.12 3.8 8 3.8C6.88 3.8 5.824 4.24 5.032 5.032C4.256 5.808 3.824 6.84 3.808 7.936C3.8 8.256 3.528 8.52 3.2 8.52H3.192C2.864 8.52 2.6 8.24 2.6 7.912ZM11.816 11.816C10.8 12.832 9.44 13.4 8 13.4C6.56 13.4 5.2 12.84 4.184 11.816C4.16 11.792 4.136 11.76 4.112 11.728V12.408C4.112 12.736 3.84 13.008 3.512 13.008C3.184 13.008 2.912 12.736 2.912 12.408V10.288C2.912 9.96 3.184 9.688 3.512 9.688H5.632C5.96 9.688 6.232 9.96 6.232 10.288C6.232 10.616 5.96 10.888 5.632 10.888H4.968C4.992 10.912 5.008 10.936 5.032 10.96C5.824 11.752 6.88 12.192 8 12.192C9.12 12.192 10.176 11.752 10.968 10.96C11.752 10.176 12.192 9.128 12.192 8.008C12.192 7.68 12.464 7.408 12.792 7.408C13.12 7.408 13.392 7.68 13.392 8.008C13.392 9.456 12.832 10.808 11.816 11.816Z" fill="#FF80C8" />
	</svg>

	<symbol fill="none" id="snow" viewBox="0 0 16 16">
		<path class="snow-trend" d="M8.72495 0V2.02214L10.2246 0.71875L11.2448 1.69922L8.72495 3.88932V6.81901L11.5237 5.33984L12.329 2.27214L13.7675 2.58984L13.2909 4.40625L15.1876 3.40365L15.9289 4.57943L14.0165 5.59115L16 6.1276L15.5817 7.42708L12.2494 6.52474L9.48475 7.98438L12.2764 9.45964L15.5817 8.5651L16 9.86328L14.0436 10.3932L15.9402 11.3958L15.1989 12.5716L13.2852 11.5612L13.7675 13.4023L12.329 13.7201L11.5166 10.6276L8.72495 9.15234V12.0951L11.2448 14.2852L10.2246 15.2656L8.72495 13.9622V16H7.24091V13.9805L5.76114 15.2669L4.74095 14.2852L7.24091 12.1133V9.17057L4.48342 10.6276L3.67096 13.7201L2.23246 13.4023L2.71481 11.5612L0.788261 12.5794L0.0455313 11.4036L1.95643 10.3945L0 9.86458L0.418319 8.5651L3.72361 9.46094L6.51525 7.98568L3.75064 6.52474L0.418319 7.42708L0 6.1276L1.98346 5.59115L0.0554913 4.57162L0.798221 3.39583L2.70912 4.40625L2.23246 2.58984L3.67096 2.27214L4.4763 5.33984L7.24091 6.79948V3.87109L4.74095 1.69922L5.76114 0.71875L7.24091 2.00391V0H8.72495Z" fill="#4B9FFF" />
	</symbol>
</svg>