<svg fill="none" height="40" viewBox="0 0 150 40" width="150" xmlns="http://www.w3.org/2000/svg">
	<g clip-path="url(#clip0_4596_56964)">
		<path d="M15.4266 12.7968L20.799 17.3522C21.4528 17.9427 21.5381 18.955 20.9411 19.6018L14.6307 26.8567C14.3536 27.1857 13.9684 27.3677 13.5674 27.4026C13.5045 27.4134 13.4325 27.4191 13.3516 27.4191L8.54771 27.3629C7.95078 27.3629 7.35385 26.8567 7.26857 26.2662L6.53414 21.7724C6.45457 21.2586 6.46671 20.6662 6.8422 20.2204L13.1526 12.9655C13.7211 12.2906 14.7444 12.2344 15.4266 12.7968Z" fill="#1AA0E8" />
		<path d="M20.9127 26.7443L15.5688 22.1889C14.8866 21.6265 14.8013 20.6142 15.3982 19.9393L21.7086 12.6843C22.0761 12.2481 22.5628 12.1322 23.1663 12.1511L27.8201 12.1782C28.417 12.1782 29.0139 12.6843 29.0992 13.2749L29.8667 17.9709C29.877 18.0424 29.8819 18.1078 29.8818 18.1667C29.9066 18.5704 29.7784 18.9868 29.4971 19.3206L23.1867 26.5756C22.6182 27.2504 21.5949 27.3067 20.9127 26.7443Z" fill="#0B63CE" />
		<path d="M18.9858 15.8147L20.799 17.3522C21.4528 17.9427 21.5381 18.955 20.9411 19.6018L17.3616 23.7171L15.5688 22.1888C14.8866 21.6264 14.8013 20.6141 15.3982 19.9392L18.9858 15.8147Z" fill="#134194" />
		<path d="M36.985 16.4188C36.5663 17.5844 36.3616 18.8142 36.3803 20.0506C36.3617 21.2891 36.5635 22.5212 36.9765 23.691C37.3272 24.6837 37.8773 25.5965 38.5938 26.3748C39.2656 27.0919 40.0896 27.6539 41.007 28.0206C41.9614 28.3996 42.9817 28.5907 44.0106 28.5832C45.0126 28.5964 46.0046 28.3847 46.9115 27.9643C47.8064 27.5335 48.6017 26.9254 49.2476 26.1779L47.579 24.3802C47.1392 24.8732 46.6137 25.2847 46.0272 25.5955C45.4174 25.8945 44.7428 26.0423 44.0619 26.026C43.4095 26.0487 42.7612 25.9142 42.1733 25.6344C41.5853 25.3545 41.0754 24.9375 40.6875 24.4196C39.8565 23.3468 39.441 21.8652 39.441 19.9747C39.43 19.1267 39.5473 18.2819 39.789 17.4681C39.9895 16.7843 40.3206 16.1445 40.7645 15.5832C41.1656 15.0829 41.6741 14.6765 42.2535 14.3932C42.8491 14.1097 43.5033 13.9662 44.1646 13.9741C44.7567 13.9609 45.3434 14.0872 45.8761 14.3426C46.384 14.602 46.847 14.9391 47.2481 15.3413L48.9168 13.5183C48.333 12.9218 47.6523 12.4255 46.9029 12.0498C46.0492 11.6184 45.1009 11.401 44.1418 11.4168C43.0993 11.4108 42.0662 11.6117 41.104 12.0076C40.1692 12.3894 39.3287 12.965 38.6395 13.6955C37.9086 14.4848 37.346 15.4109 36.985 16.4188Z" fill="#272833" />
		<path fill-rule="evenodd" clip-rule="evenodd" d="M50.9363 19.3163C50.5982 20.1975 50.4327 21.134 50.4485 22.0761C50.4327 23.0181 50.5982 23.9546 50.9363 24.8358C51.2325 25.6006 51.6827 26.2983 52.2598 26.8867C52.8009 27.4349 53.4517 27.8661 54.171 28.1527C54.8885 28.4394 55.6559 28.5856 56.4301 28.5831C57.2117 28.5856 57.9865 28.4394 58.712 28.1527C59.4331 27.8695 60.0847 27.4379 60.6232 26.8867C61.1946 26.2939 61.6441 25.5974 61.9467 24.8358C62.6123 23.0545 62.6123 21.0976 61.9467 19.3163C61.6441 18.5547 61.1946 17.8582 60.6232 17.2654C60.0829 16.7135 59.432 16.2785 58.712 15.9882C57.9886 15.6929 57.213 15.5419 56.4301 15.5437C55.6545 15.5418 54.8864 15.693 54.171 15.9882C53.4529 16.282 52.8027 16.7165 52.2598 17.2654C51.6827 17.8538 51.2325 18.5515 50.9363 19.3163ZM54.2594 25.0778C53.7384 24.3257 53.4778 23.3251 53.4778 22.0761C53.4759 20.8101 53.7365 19.802 54.2594 19.0518C54.4924 18.6959 54.8147 18.4053 55.195 18.2081C55.5752 18.011 56.0007 17.914 56.4301 17.9265C56.861 17.9145 57.2879 18.0116 57.6699 18.2086C58.0519 18.4056 58.3763 18.6959 58.6122 19.0518C59.1428 19.817 59.408 20.8251 59.408 22.0761C59.408 23.327 59.1428 24.3276 58.6122 25.0778C58.3765 25.4339 58.0522 25.7243 57.6701 25.9214C57.288 26.1184 56.8611 26.2154 56.4301 26.2031C56.0006 26.2159 55.5751 26.119 55.1948 25.9219C54.8144 25.7247 54.4922 25.4339 54.2594 25.0778Z" fill="#272833"/>
		<path d="M64.8503 15.8476H67.2892L67.4945 17.5356H67.5972C68.1118 16.9953 68.6947 16.5226 69.3315 16.1289C69.9653 15.7376 70.7003 15.5353 71.448 15.5466C72.2312 15.5081 73.007 15.7117 73.6672 16.1289C74.2474 16.5417 74.6926 17.1128 74.9479 17.7719C75.5042 17.1667 76.1336 16.631 76.822 16.1768C77.469 15.7558 78.229 15.5354 79.0041 15.5438C80.3352 15.5438 81.3193 15.9705 81.9564 16.8238C82.5934 17.6772 82.91 18.8962 82.9062 20.481V28.2793H79.9197V20.8608C79.9197 19.8312 79.7609 19.1054 79.4434 18.6834C79.2731 18.4686 79.0519 18.2985 78.7991 18.1881C78.5464 18.0777 78.27 18.0304 77.9943 18.0504C77.2071 18.0504 76.3257 18.5652 75.3501 19.5949V28.2793H72.3979V20.8608C72.3979 19.8312 72.2391 19.1054 71.9215 18.6834C71.7471 18.4668 71.5214 18.2958 71.2642 18.1854C71.0071 18.075 70.7264 18.0287 70.4468 18.0504C69.6595 18.0504 68.7781 18.5652 67.8026 19.5949V28.2793H64.8503V15.8476Z" fill="#272833" />
		<path d="M88.4171 15.8476H85.9783V28.2793H88.9305V19.5949C89.9061 18.5652 90.7875 18.0504 91.5747 18.0504C91.8543 18.0287 92.135 18.075 92.3922 18.1854C92.6493 18.2958 92.875 18.4668 93.0494 18.6834C93.367 19.1054 93.5258 19.8312 93.5258 20.8608V28.2793H96.4781V19.5949C97.4536 18.5652 98.335 18.0504 99.1223 18.0504C99.3979 18.0304 99.6743 18.0777 99.927 18.1881C100.18 18.2985 100.401 18.4686 100.571 18.6834C100.889 19.1054 101.048 19.8312 101.048 20.8608V28.2793H104.014V20.481C104.018 18.8962 103.701 17.6772 103.064 16.8238C102.427 15.9705 101.443 15.5438 100.112 15.5438C99.3369 15.5354 98.577 15.7558 97.9299 16.1768C97.2416 16.631 96.6122 17.1667 96.0559 17.7719C95.806 17.1153 95.368 16.5445 94.7951 16.1289C94.1349 15.7117 93.3591 15.5081 92.5759 15.5466C91.8274 15.5357 91.0916 15.7379 90.4566 16.1289C89.8212 16.5234 89.2394 16.9961 88.7252 17.5356H88.6225L88.4171 15.8476Z" fill="#272833" />
		<path fill-rule="evenodd" clip-rule="evenodd" d="M106.285 22.0761C106.269 21.1395 106.435 20.2087 106.773 19.3332C107.065 18.5732 107.505 17.8767 108.068 17.2823C108.595 16.7338 109.228 16.2948 109.93 15.9911C110.609 15.6921 111.344 15.5368 112.087 15.5353C112.862 15.5197 113.632 15.6664 114.346 15.9657C114.978 16.2393 115.536 16.6556 115.975 17.1811C116.427 17.7336 116.764 18.3696 116.964 19.0519C117.194 19.8247 117.306 20.6267 117.298 21.4319C117.31 21.891 117.267 22.3499 117.17 22.7991H109.16C109.297 23.9244 109.695 24.7937 110.352 25.407C111.042 26.0262 111.951 26.3535 112.883 26.3185C113.401 26.3235 113.917 26.2426 114.409 26.0793C114.9 25.9088 115.37 25.6832 115.809 25.407L116.81 27.2299C116.187 27.6302 115.517 27.9533 114.814 28.1921C114.071 28.4464 113.29 28.5749 112.503 28.5719C111.669 28.578 110.842 28.4282 110.064 28.1302C109.323 27.842 108.65 27.4063 108.088 26.8502C107.507 26.27 107.056 25.5761 106.764 24.8134C106.434 23.9381 106.271 23.0099 106.285 22.0761ZM114.731 20.9508C114.731 19.9549 114.521 19.1785 114.101 18.6214C113.68 18.0644 113.035 17.7831 112.164 17.7775C111.797 17.7753 111.434 17.8447 111.094 17.9819C110.755 18.119 110.447 18.3211 110.187 18.5764C109.617 19.1091 109.266 19.8977 109.135 20.9424L114.731 20.9508Z" fill="#272833"/>
		<path d="M122.047 15.8477H119.609V28.271H122.561V20.6752C122.955 19.7262 123.425 19.0642 123.973 18.6891C124.423 18.3464 124.97 18.1499 125.539 18.1264C125.771 18.1232 126.003 18.1402 126.232 18.1771C126.44 18.2157 126.646 18.2665 126.848 18.329L127.362 15.7971C126.809 15.5768 126.208 15.4975 125.616 15.5663C125.024 15.6351 124.459 15.85 123.973 16.1909C123.292 16.6753 122.737 17.3127 122.356 18.0505H122.253L122.047 15.8477Z" fill="#272833" />
		<path d="M127.592 22.0762C127.575 21.1316 127.749 20.1932 128.106 19.3164C128.421 18.5464 128.893 17.8484 129.492 17.2655C130.069 16.7105 130.754 16.276 131.506 15.9883C132.271 15.6919 133.086 15.5411 133.908 15.5438C134.644 15.5255 135.375 15.6667 136.05 15.9574C136.622 16.2121 137.147 16.5581 137.605 16.9814L136.178 18.8297C135.867 18.5639 135.521 18.3389 135.151 18.1601C134.806 17.999 134.429 17.9163 134.048 17.9182C133.573 17.9036 133.101 17.9976 132.669 18.1929C132.237 18.3881 131.856 18.6792 131.557 19.0435C130.924 19.7937 130.608 20.8018 130.608 22.0677C130.608 23.3337 130.919 24.3343 131.543 25.0694C131.831 25.4305 132.2 25.7203 132.622 25.9157C133.043 26.111 133.505 26.2066 133.971 26.1947C134.464 26.2001 134.953 26.0923 135.397 25.8797C135.816 25.6785 136.209 25.4271 136.566 25.1313L137.798 26.9796C137.218 27.4909 136.548 27.8941 135.822 28.1696C135.134 28.4338 134.403 28.5712 133.665 28.5747C132.844 28.5811 132.03 28.4351 131.264 28.1443C130.533 27.8659 129.872 27.4339 129.327 26.8784C128.758 26.2907 128.321 25.5921 128.043 24.8275C127.727 23.9444 127.574 23.0125 127.592 22.0762Z" fill="#272833" />
		<path fill-rule="evenodd" clip-rule="evenodd" d="M138.811 19.3332C138.473 20.2087 138.308 21.1396 138.323 22.0761C138.31 23.0099 138.472 23.9381 138.802 24.8134C139.094 25.5761 139.545 26.27 140.126 26.8502C140.688 27.4069 141.361 27.8428 142.103 28.1302C142.88 28.4282 143.708 28.5781 144.542 28.5719C145.328 28.5744 146.109 28.446 146.852 28.1921C147.555 27.9528 148.225 27.6297 148.849 27.23L147.848 25.407C147.408 25.6832 146.938 25.9088 146.447 26.0794C145.955 26.2424 145.44 26.3232 144.921 26.3185C143.989 26.3535 143.08 26.0262 142.391 25.407C141.733 24.7937 141.335 23.9244 141.199 22.7991H149.208C149.305 22.3499 149.348 21.891 149.336 21.4319C149.343 20.6268 149.231 19.825 149.003 19.0519C148.805 18.3735 148.472 17.7405 148.024 17.1895C147.586 16.6641 147.028 16.2478 146.396 15.9742C145.682 15.6754 144.912 15.5287 144.136 15.5438C143.393 15.545 142.659 15.7003 141.98 15.9995C141.274 16.2987 140.637 16.735 140.106 17.2824C139.543 17.876 139.103 18.5727 138.811 19.3332ZM146.139 18.6215C146.559 19.1785 146.769 19.9549 146.769 20.9508L141.173 20.9424C141.307 19.8959 141.655 19.1082 142.225 18.5764C142.485 18.3208 142.793 18.1186 143.132 17.9814C143.472 17.8443 143.835 17.775 144.202 17.7775C145.073 17.7831 145.719 18.0644 146.139 18.6215Z" fill="#272833"/>
	</g>
	<defs>
		<clipPath id="clip0_4596_56964">
			<rect fill="white" height="40" width="149.338" />
		</clipPath>
	</defs>
</svg>