<svg fill="none" height="24" viewBox="0 0 24 24" width="24" xmlns="http://www.w3.org/2000/svg">
	<g clip-path="url(#clip0_4596_53334)">
		<mask height="14" id="mask0_4596_53334" maskUnits="userSpaceOnUse" style="mask-type:alpha" width="16" x="4" y="5">
			<path d="M19.9688 7.06165C19.3811 7.3219 18.7497 7.49752 18.0871 7.57577C18.7633 7.17174 19.2835 6.53114 19.528 5.76858C18.8947 6.1426 18.1939 6.41467 17.4474 6.56118C16.8497 5.92601 15.9983 5.5293 15.0556 5.5293C13.246 5.5293 11.7795 6.99251 11.7795 8.79606C11.7795 9.05177 11.8087 9.30107 11.8644 9.54042C9.14133 9.40392 6.72761 8.10358 5.11145 6.12717C4.82947 6.60948 4.66795 7.17087 4.66795 7.76965C4.66795 8.90348 5.2465 9.90352 6.12532 10.4886C5.58781 10.4713 5.08317 10.3248 4.6415 10.08C4.6415 10.0937 4.6415 10.1073 4.6415 10.121C4.6415 11.7043 5.77123 13.0238 7.26968 13.324C6.99499 13.3987 6.70572 13.4387 6.40639 13.4387C6.19559 13.4387 5.99024 13.4178 5.7895 13.3796C6.20653 14.6772 7.41661 15.6226 8.85025 15.6481C7.72872 16.5244 6.31607 17.0467 4.78116 17.0467C4.51649 17.0467 4.25553 17.0312 4 17.0012C5.45007 17.9285 7.17205 18.469 9.02272 18.469C15.0493 18.469 18.3445 13.4906 18.3445 9.17371C18.3445 9.03174 18.3408 8.89163 18.3353 8.75149C18.9741 8.29195 19.5299 7.71687 19.9688 7.06168L19.9688 7.06165Z" fill="#6B6C7E" />
		</mask>
		<g mask="url(#mask0_4596_53334)">
			<rect fill="#6B6C7E" height="16" width="16" x="4" y="4" />
		</g>
	</g>
	<defs>
		<clipPath id="clip0_4596_53334">
			<rect fill="white" height="24" rx="4" width="24" />
		</clipPath>
	</defs>
</svg>