<svg fill="none" height="36" viewBox="0 0 36 36" width="36" xmlns="http://www.w3.org/2000/svg">
	<path d="M13.4997 7.875H31.4997C31.7981 7.875 32.0843 7.99353 32.2952 8.20451C32.5062 8.41548 32.6247 8.70163 32.6247 9V12.4875C32.6262 12.7466 32.537 12.998 32.3727 13.1983C32.2083 13.3986 31.9791 13.5352 31.7247 13.5844C30.7129 13.7992 29.8056 14.355 29.1545 15.1588C28.5035 15.9626 28.1482 16.9656 28.1482 18C28.1482 19.0344 28.5035 20.0374 29.1545 20.8412C29.8056 21.645 30.7129 22.2008 31.7247 22.4156C31.9791 22.4648 32.2083 22.6014 32.3727 22.8017C32.537 23.002 32.6262 23.2534 32.6247 23.5125V27C32.6247 27.2984 32.5062 27.5845 32.2952 27.7955C32.0843 28.0065 31.7981 28.125 31.4997 28.125H13.4997V7.875Z" fill="white" opacity="0.2" />
	<path d="M13.4997 7.875V28.125" stroke="white" stroke-linecap="round" stroke-linejoin="round" stroke-width="2" />
	<path d="M3.37476 23.5125C3.37332 23.2534 3.46249 23.002 3.62684 22.8017C3.79119 22.6014 4.02038 22.4648 4.27476 22.4156C5.28658 22.2008 6.19393 21.645 6.84497 20.8412C7.49602 20.0374 7.85126 19.0344 7.85126 18C7.85126 16.9656 7.49602 15.9626 6.84497 15.1588C6.19393 14.355 5.28658 13.7992 4.27476 13.5844C4.02038 13.5352 3.79119 13.3986 3.62684 13.1983C3.46249 12.998 3.37332 12.7466 3.37476 12.4875V9C3.37476 8.70163 3.49328 8.41548 3.70426 8.20451C3.91524 7.99353 4.20139 7.875 4.49976 7.875H31.4998C31.7981 7.875 32.0843 7.99353 32.2953 8.20451C32.5062 8.41548 32.6248 8.70163 32.6248 9V12.4875C32.6262 12.7466 32.537 12.998 32.3727 13.1983C32.2083 13.3986 31.9791 13.5352 31.7248 13.5844C30.7129 13.7992 29.8056 14.355 29.1545 15.1588C28.5035 15.9626 28.1483 16.9656 28.1483 18C28.1483 19.0344 28.5035 20.0374 29.1545 20.8412C29.8056 21.645 30.7129 22.2008 31.7248 22.4156C31.9791 22.4648 32.2083 22.6014 32.3727 22.8017C32.537 23.002 32.6262 23.2534 32.6248 23.5125V27C32.6248 27.2984 32.5062 27.5845 32.2953 27.7955C32.0843 28.0065 31.7981 28.125 31.4998 28.125H4.49976C4.20139 28.125 3.91524 28.0065 3.70426 27.7955C3.49328 27.5845 3.37476 27.2984 3.37476 27V23.5125Z" stroke="white" stroke-linecap="round" stroke-linejoin="round" stroke-width="2" />
</svg>