<svg fill="none" height="88" viewBox="0 0 88 88" width="88" xmlns="http://www.w3.org/2000/svg">
	<g filter="url(#filter0_d_215_10845)">
		<rect fill="url(#paint0_linear_215_10845)" height="64" rx="32" width="64" x="10" y="8" />
		<path clip-rule="evenodd" d="M48.625 37.25C53.8027 37.25 58 41.4473 58 46.625C58 51.8027 53.8027 56 48.625 56C43.4473 56 39.25 51.8027 39.25 46.625C39.25 41.4473 43.4473 37.25 48.625 37.25ZM49.3745 41.1331C49.3745 40.1223 47.8193 40.1223 47.8193 41.1331V42.0046C45.2558 42.4539 44.1986 46.5383 47.9243 47.2244C52.5874 48.0276 49.0864 51.1135 46.85 49.219C46.1811 48.467 45.0629 49.5583 45.6879 50.2615C46.1201 50.7449 47.1576 51.1624 47.8193 51.3088V52.095C47.8193 53.1326 49.3745 53.1374 49.3745 52.095V51.3064C53.2051 50.0881 51.999 46.0281 48.6201 45.8108H48.6127C45.3876 45.2346 47.6728 42.2952 49.8945 44.0115C50.5757 44.7634 51.689 43.6794 51.0518 42.9641C50.6196 42.4832 50.0313 42.1487 49.3745 42.0022V41.1331Z" fill="white" fill-rule="evenodd" />
		<path d="M38.625 24C41.9986 24 45.1687 25.3119 47.5513 27.6987C49.5554 29.6985 50.8012 32.2543 51.1495 35.019C50.3359 34.8428 49.4913 34.75 48.625 34.75C48.3854 34.75 48.1475 34.7571 47.9115 34.7711C47.0477 30.4337 43.2135 27.1562 38.625 27.1562C33.4021 27.1562 29.1562 31.4025 29.1562 36.625C29.1562 41.2132 32.4334 45.0477 36.7711 45.9115C36.7571 46.1475 36.75 46.3854 36.75 46.625C36.75 47.4913 36.8428 48.3359 37.019 49.1495C34.2553 48.8011 31.7028 47.555 29.6987 45.5513C27.3115 43.1692 26 39.9982 26 36.625C26 33.2518 27.3115 30.0808 29.6987 27.6987C32.0813 25.3119 35.2514 24 38.625 24Z" fill="white" />
		<path d="M39.4141 28.7344C39.8471 28.7344 40.2031 29.0894 40.2031 29.5234V34.3909C41.1201 34.7165 41.7812 35.5944 41.7812 36.625C41.7812 37.9319 40.7209 38.9922 39.4141 38.9922C39.0488 38.9922 38.7036 38.9084 38.3923 38.7604L36.0251 41.1276C35.8726 41.2804 35.6706 41.3594 35.4688 41.3594C35.2669 41.3594 35.0634 41.2804 34.9109 41.1276C34.6011 40.8219 34.6011 40.3187 34.9109 40.013L37.2781 37.6458C37.1301 37.3351 37.0469 36.9899 37.0469 36.625C37.0469 35.5944 37.708 34.7165 38.625 34.3909V29.5234C38.625 29.0894 38.9795 28.7344 39.4141 28.7344Z" fill="white" />
	</g>
	<defs>
		<filter color-interpolation-filters="sRGB" filterUnits="userSpaceOnUse" height="88" id="filter0_d_215_10845" width="88" x="0" y="0">
			<feFlood flood-opacity="0" result="BackgroundImageFix" />
			<feColorMatrix in="SourceAlpha" result="hardAlpha" type="matrix" values="0 0 0 0 0 0 0 0 0 0 0 0 0 0 0 0 0 0 127 0" />
			<feOffset dx="2" dy="4" />
			<feGaussianBlur stdDeviation="6" />
			<feColorMatrix type="matrix" values="0 0 0 0 0.0431373 0 0 0 0 0.372549 0 0 0 0 1 0 0 0 0.3 0" />
			<feBlend in2="BackgroundImageFix" mode="normal" result="effect1_dropShadow_215_10845" />
			<feBlend in="SourceGraphic" in2="effect1_dropShadow_215_10845" mode="normal" result="shape" />
		</filter>
		<linearGradient gradientUnits="userSpaceOnUse" id="paint0_linear_215_10845" x1="-47.1429" x2="67.1429" y1="130.286" y2="16">
			<stop stop-color="#E7EFFF" />
			<stop offset="1" stop-color="#377CFF" />
		</linearGradient>
	</defs>
</svg>