<svg fill="none" height="12" viewBox="0 0 12 12" width="12" xmlns="http://www.w3.org/2000/svg">
	<g id="1-color">
		<g id="icon">
			<path d="M3.91474 1.42084C5.49021 0.191074 8.56176 0.566098 10.307 2.14111C13.9026 5.38024 9.46622 13.2306 5.08599 10.6441C6.37802 10.2374 7.64661 9.4091 8.48829 8.4739L8.48931 8.47275C9.45087 7.39465 9.88909 6.31303 9.90567 5.30869C9.92228 4.30341 9.51549 3.41643 8.86393 2.73445C7.70635 1.52286 5.75886 0.936326 3.91474 1.42084Z" fill="#2E5AAC" />
			<path d="M4.7126 10.3976L4.71239 10.3976C4.67053 10.3677 4.62868 10.3379 4.58684 10.3071C4.51709 10.2559 4.44737 10.2024 4.37752 10.1425C3.04765 8.99188 1.95597 7.39296 2.8228 3.5466C2.88057 3.29023 2.94705 3.02387 3.02274 2.74701L3.02281 2.7468C3.09253 2.48181 3.21107 2.25343 3.34642 2.0403C3.36575 2.00986 3.38544 1.97972 3.40537 1.94984C3.87755 1.75658 4.36468 1.6455 4.84845 1.60714C8.23488 1.33867 11.4566 4.63361 8.2349 8.24584C7.37424 9.20213 6.03541 10.0469 4.7126 10.3976Z" fill="#2E5AAC" />
			<path d="M1.18982 3.71908C1.68189 3.05478 2.24993 2.56139 2.85726 2.21691C2.79228 2.35274 2.73556 2.49914 2.69353 2.65841C2.07902 4.90694 2.05058 6.51504 2.38518 7.73621C2.72224 8.96637 3.41625 9.76164 4.15456 10.4004L4.15575 10.4014C4.19441 10.4346 4.23294 10.4659 4.27102 10.4957C3.46621 10.6379 2.68423 10.5704 2.05054 10.2063C0.249404 9.20218 -0.196895 5.63179 1.18982 3.71908Z" fill="#2E5AAC" />
		</g>
	</g>
</svg>