<?xml version="1.0"?>

<svg xmlns="http://www.w3.org/2000/svg">
	<symbol id="union" viewBox="0 0 16 16">
		<path d="M4 8C6.20914 8 8 9.79086 8 12C8 14.2091 6.20914 16 4 16C1.79086 16 0 14.2091 0 12C0 9.79086 1.79086 8 4 8ZM11.8955 9.27539C11.9605 9.24633 12.0356 9.24633 12.1006 9.27539C12.1749 9.30882 12.2321 9.40855 12.3457 9.60742L15.6562 15.4014C15.7686 15.5979 15.8242 15.6968 15.8154 15.7773C15.8077 15.8474 15.7709 15.9108 15.7139 15.9521C15.6482 15.9997 15.5349 16 15.3086 16H8.6875C8.46115 16 8.34786 15.9997 8.28223 15.9521C8.22516 15.9108 8.18838 15.8474 8.18066 15.7773C8.17194 15.6968 8.22754 15.5979 8.33984 15.4014L11.6504 9.60742C11.764 9.40855 11.8212 9.30882 11.8955 9.27539ZM4 10C2.89543 10 2 10.8954 2 12C2 13.1046 2.89543 14 4 14C5.10457 14 6 13.1046 6 12C6 10.8954 5.10457 10 4 10ZM12 0C14.2091 0 16 1.79086 16 4C16 6.20914 14.2091 8 12 8C9.79086 8 8 6.20914 8 4C8 1.79086 9.79086 0 12 0ZM5.40039 0C5.96018 0 6.24024 0.000406853 6.4541 0.109375C6.64207 0.205215 6.79478 0.357928 6.89062 0.545898C6.99959 0.75976 7 1.03982 7 1.59961V5.40039C7 5.96018 6.99959 6.24024 6.89062 6.4541C6.79478 6.64207 6.64207 6.79478 6.4541 6.89062C6.24024 6.99959 5.96018 7 5.40039 7H1.59961C1.03982 7 0.75976 6.99959 0.545898 6.89062C0.357928 6.79478 0.205215 6.64207 0.109375 6.4541C0.000406859 6.24024 0 5.96018 0 5.40039V1.59961C0 1.03982 0.000406853 0.75976 0.109375 0.545898C0.205215 0.357928 0.357928 0.205215 0.545898 0.109375C0.75976 0.000406859 1.03982 0 1.59961 0H5.40039ZM12 2C10.8954 2 10 2.89543 10 4C10 5.10457 10.8954 6 12 6C13.1046 6 14 5.10457 14 4C14 2.89543 13.1046 2 12 2Z" />
	</symbol>
</svg>